<svg width="1320" height="525" viewBox="0 0 1320 525" fill="none" xmlns="http://www.w3.org/2000/svg">
<g clip-path="url(#clip0_92_31)">
<path d="M290.007 405.479L281.023 407.886L261.224 333.992L303.435 322.682L305.531 330.506L272.303 339.409L290.007 405.479ZM341.903 366.312C342.576 368.824 343.527 371.088 344.758 373.105C345.989 375.122 347.464 376.763 349.183 378.027C350.966 379.275 352.954 380.123 355.144 380.571C357.318 380.955 359.692 380.802 362.268 380.112C367.098 378.817 370.238 376.113 371.689 371.997C373.122 367.817 372.942 362.378 371.148 355.681C370.423 352.976 369.492 350.534 368.356 348.354C367.284 346.156 365.976 344.367 364.433 342.986C362.873 341.541 361.029 340.585 358.903 340.12C356.777 339.654 354.329 339.793 351.56 340.535C349.177 341.173 347.141 342.202 345.451 343.621C343.807 344.958 342.517 346.581 341.579 348.489C340.623 350.332 340.059 352.347 339.885 354.533C339.695 356.655 339.884 358.778 340.453 360.903L341.903 366.312ZM326.175 341.228L334.578 338.977L336.856 347.477L337.049 347.425C337.934 344.289 339.543 341.408 341.876 338.781C344.256 336.073 347.475 334.175 351.532 333.088C354.365 332.329 357.19 332.055 360.008 332.266C362.825 332.478 365.508 333.346 368.056 334.872C370.588 336.333 372.881 338.583 374.938 341.621C376.977 344.594 378.643 348.496 379.938 353.326C381.18 357.962 381.687 362.174 381.46 365.962C381.215 369.686 380.365 372.951 378.908 375.756C377.516 378.545 375.622 380.881 373.228 382.765C370.882 384.567 368.227 385.865 365.265 386.659C363.333 387.177 361.397 387.42 359.455 387.387C357.596 387.403 355.854 387.214 354.231 386.82C352.654 386.346 351.213 385.731 349.906 384.977C348.6 384.223 347.534 383.335 346.708 382.314L346.515 382.366L353.373 407.963L344.68 410.292L326.175 341.228ZM421.671 315.64L430.75 313.207L444.39 364.112L435.793 366.415L425.027 326.233L424.061 326.491C424.062 327.526 423.954 328.798 423.737 330.305C423.532 331.602 423.188 333.282 422.706 335.344C422.27 337.324 421.639 339.736 420.814 342.58L411.549 372.912L402.469 375.344L388.829 324.44L397.426 322.137L408.193 362.319L409.159 362.06C409.329 360.634 409.552 359.022 409.829 357.222C410.111 355.697 410.493 353.904 410.976 351.842C411.441 349.716 412.057 347.377 412.823 344.825L421.671 315.64ZM481.205 355.593C477.418 356.401 473.871 356.557 470.564 356.063C467.256 355.569 464.262 354.439 461.58 352.673C458.898 350.907 456.579 348.56 454.621 345.634C452.664 342.708 451.15 339.248 450.08 335.256C449.028 331.328 448.65 327.598 448.946 324.068C449.243 320.538 450.151 317.361 451.672 314.538C453.176 311.65 455.205 309.174 457.757 307.11C460.357 304.964 463.402 303.32 466.892 302.177L461.069 280.444L469.762 278.115L475.585 299.848C479.372 299.04 482.919 298.884 486.226 299.378C489.533 299.872 492.496 301.011 495.113 302.794C497.795 304.56 500.115 306.907 502.072 309.833C504.03 312.759 505.543 316.219 506.613 320.211C507.665 324.139 508.044 327.869 507.747 331.399C507.451 334.929 506.551 338.138 505.047 341.026C503.59 343.832 501.562 346.308 498.962 348.454C496.409 350.518 493.388 352.122 489.898 353.264L494.427 370.167L485.734 372.497L481.205 355.593ZM468.678 308.842C464.128 310.407 460.99 313.249 459.264 317.369C457.521 321.425 457.486 326.576 459.16 332.823C460.834 339.069 463.351 343.571 466.713 346.328C470.122 349.004 474.348 349.838 479.393 348.832L468.678 308.842ZM488.112 346.599C492.662 345.035 495.809 342.224 497.552 338.168C499.278 334.048 499.304 328.865 497.63 322.618C495.956 316.372 493.415 311.911 490.006 309.235C486.645 306.478 482.442 305.603 477.397 306.61L488.112 346.599ZM611.816 263.759C611.058 261.961 610.107 260.214 608.963 258.519C607.801 256.76 606.41 255.304 604.79 254.15C603.217 252.915 601.399 252.057 599.337 251.574C597.276 251.091 594.989 251.186 592.477 251.859C586.102 253.567 582.171 257.312 580.684 263.094C579.26 268.859 579.972 277.054 582.819 287.679C585.701 298.433 589.19 305.918 593.288 310.135C597.433 314.27 602.66 315.492 608.971 313.801C611.676 313.076 613.832 311.98 615.441 310.514C617.032 308.983 618.192 307.258 618.92 305.337C619.695 303.335 620.104 301.258 620.149 299.107C620.176 296.891 620.002 294.695 619.626 292.518L628.416 290.163C629.09 293.709 629.253 297.151 628.905 300.488C628.539 303.761 627.62 306.768 626.146 309.509C624.672 312.251 622.658 314.654 620.106 316.718C617.6 318.701 614.512 320.184 610.842 321.168C606.527 322.324 602.474 322.651 598.681 322.148C594.953 321.629 591.524 320.166 588.395 317.761C585.249 315.291 582.417 311.805 579.899 307.304C577.446 302.785 575.296 297.08 573.45 290.19C570.016 277.375 569.869 267.165 573.007 259.561C576.129 251.891 582.004 246.901 590.633 244.589C593.595 243.795 596.549 243.486 599.495 243.663C602.506 243.823 605.356 244.543 608.046 245.824C610.736 247.105 613.186 249.036 615.396 251.619C617.589 254.137 619.423 257.373 620.896 261.326L611.816 263.759ZM676.372 269.134C675.738 267.026 674.922 265.14 673.924 263.475C672.926 261.81 671.698 260.448 670.241 259.389C668.848 258.313 667.22 257.645 665.356 257.385C663.539 257.044 661.439 257.192 659.056 257.83C654.678 259.004 651.644 261.335 649.956 264.824C648.333 268.296 647.885 272.419 648.612 277.193L676.527 269.714L676.372 269.134ZM689.022 284.276C689.247 288.978 687.878 293.141 684.914 296.765C681.951 300.388 677.636 302.959 671.97 304.478C667.913 305.565 664.199 305.87 660.827 305.393C657.502 304.834 654.523 303.631 651.888 301.783C649.253 299.936 647.022 297.531 645.193 294.57C643.364 291.61 641.941 288.229 640.923 284.43C639.922 280.695 639.497 277.048 639.647 273.487C639.798 269.927 640.543 266.656 641.884 263.674C643.224 260.692 645.195 258.128 647.794 255.982C650.377 253.772 653.568 252.158 657.367 251.14C661.295 250.087 664.825 249.866 667.956 250.476C671.152 251.07 673.962 252.284 676.386 254.119C678.793 255.889 680.78 258.152 682.346 260.907C683.977 263.645 685.224 266.624 686.087 269.844L687.277 274.287L650.282 284.2C651.119 286.806 652.152 289.117 653.383 291.134C654.66 293.069 656.118 294.645 657.756 295.863C659.458 297.063 661.355 297.832 663.446 298.169C665.538 298.506 667.872 298.329 670.448 297.639C672.702 297.035 674.5 296.277 675.843 295.365C677.169 294.388 678.179 293.393 678.873 292.379C679.632 291.347 680.116 290.32 680.326 289.298C680.535 288.276 680.665 287.344 680.715 286.502L689.022 284.276ZM714.442 260.279L721.977 258.26L731.853 232.527L741.416 229.965L729.934 259.752L756.601 280.455L746.459 283.173L723.821 265.531L716.383 267.523L722.31 289.643L713.617 291.973L699.977 241.068L708.671 238.739L714.442 260.279ZM774.4 250.425C775.073 252.937 776.024 255.201 777.255 257.218C778.486 259.234 779.961 260.875 781.68 262.14C783.464 263.388 785.451 264.235 787.641 264.684C789.815 265.068 792.189 264.915 794.765 264.224C799.595 262.93 802.735 260.225 804.186 256.11C805.62 251.929 805.439 246.491 803.645 239.794C802.92 237.089 801.989 234.647 800.853 232.467C799.781 230.269 798.474 228.48 796.93 227.099C795.37 225.654 793.526 224.698 791.4 224.233C789.274 223.767 786.826 223.905 784.057 224.647C781.674 225.286 779.638 226.314 777.948 227.734C776.305 229.071 775.014 230.694 774.076 232.602C773.12 234.445 772.556 236.46 772.382 238.646C772.192 240.768 772.381 242.891 772.95 245.016L774.4 250.425ZM758.672 225.341L767.075 223.089L769.353 231.59L769.546 231.538C770.431 228.402 772.04 225.521 774.373 222.894C776.753 220.186 779.972 218.288 784.029 217.201C786.862 216.442 789.688 216.168 792.505 216.379C795.322 216.59 798.005 217.459 800.554 218.985C803.085 220.446 805.378 222.696 807.435 225.734C809.474 228.707 811.14 232.609 812.435 237.438C813.677 242.075 814.184 246.287 813.957 250.075C813.712 253.799 812.862 257.063 811.405 259.869C810.013 262.658 808.119 264.994 805.725 266.878C803.379 268.68 800.724 269.978 797.762 270.772C795.83 271.289 793.894 271.532 791.952 271.5C790.093 271.515 788.351 271.326 786.728 270.933C785.151 270.458 783.71 269.844 782.403 269.09C781.097 268.335 780.031 267.448 779.205 266.427L779.012 266.478L785.871 292.075L777.177 294.405L758.672 225.341ZM861.728 219.468C861.094 217.36 860.278 215.474 859.28 213.809C858.282 212.144 857.054 210.782 855.597 209.723C854.204 208.647 852.576 207.979 850.712 207.719C848.895 207.378 846.795 207.526 844.412 208.165C840.034 209.338 837 211.669 835.312 215.158C833.689 218.63 833.241 222.753 833.968 227.528L861.883 220.048L861.728 219.468ZM874.378 234.61C874.603 239.312 873.233 243.475 870.27 247.099C867.307 250.722 862.992 253.293 857.326 254.812C853.269 255.899 849.554 256.204 846.183 255.727C842.858 255.168 839.879 253.965 837.244 252.117C834.609 250.27 832.378 247.865 830.549 244.905C828.72 241.944 827.297 238.563 826.279 234.764C825.278 231.029 824.853 227.382 825.003 223.821C825.154 220.261 825.899 216.99 827.24 214.008C828.58 211.026 830.55 208.462 833.15 206.316C835.733 204.106 838.924 202.492 842.723 201.474C846.651 200.421 850.181 200.2 853.312 200.81C856.508 201.404 859.318 202.618 861.742 204.453C864.149 206.223 866.136 208.486 867.702 211.241C869.333 213.979 870.58 216.958 871.443 220.178L872.633 224.621L835.638 234.534C836.475 237.14 837.508 239.451 838.739 241.468C840.016 243.403 841.474 244.979 843.112 246.197C844.814 247.398 846.711 248.166 848.802 248.503C850.894 248.84 853.228 248.663 855.804 247.973C858.057 247.369 859.856 246.611 861.199 245.699C862.525 244.722 863.535 243.727 864.229 242.713C864.988 241.681 865.472 240.654 865.681 239.632C865.891 238.61 866.021 237.678 866.071 236.836L874.378 234.61ZM881.373 192.463L926.771 180.299L928.713 187.543L910.36 192.461L922.059 236.121L913.365 238.45L901.667 194.79L883.314 199.708L881.373 192.463ZM960.038 194.472L983.22 188.26L977.449 166.72L986.142 164.391L999.782 215.295L991.088 217.624L985.161 195.505L961.979 201.716L967.906 223.836L959.213 226.165L945.573 175.261L954.266 172.932L960.038 194.472ZM1041.62 205.431C1033.83 207.518 1027.27 206.755 1021.96 203.142C1016.7 199.511 1012.95 193.477 1010.69 185.041C1008.43 176.606 1008.7 169.526 1011.52 163.802C1014.38 157.997 1019.64 154.068 1027.31 152.015C1035.1 149.927 1041.62 150.699 1046.87 154.33C1052.17 157.879 1055.95 163.872 1058.21 172.307C1060.49 180.808 1060.2 187.96 1057.34 193.765C1054.52 199.489 1049.28 203.377 1041.62 205.431ZM1029.12 158.776C1024.03 160.139 1020.77 162.911 1019.34 167.091C1017.89 171.207 1018 176.388 1019.67 182.634C1021.34 188.881 1023.82 193.464 1027.08 196.385C1030.41 199.288 1034.66 200.049 1039.81 198.669C1045.09 197.254 1048.38 194.474 1049.69 190.328C1051.05 186.165 1050.9 180.961 1049.23 174.714C1047.55 168.468 1045.06 163.926 1041.75 161.087C1038.41 158.183 1034.21 157.413 1029.12 158.776Z" fill="#171717"/>
<path d="M572.052 306.611L1066.37 174.159L1067.66 178.989L573.346 311.441L572.052 306.611Z" fill="#171717"/>
</g>
<rect x="147.247" y="269.32" width="993.251" height="251.937" transform="rotate(-15 147.247 269.32)" stroke="#171717" stroke-width="20"/>
<defs>
<clipPath id="clip0_92_31">
<rect x="135" y="262.249" width="1013.25" height="271.937" transform="rotate(-15 135 262.249)" fill="white"/>
</clipPath>
</defs>
</svg>
