<svg width="1301" height="499" viewBox="0 0 1301 499" fill="none" xmlns="http://www.w3.org/2000/svg">
<path d="M138.203 153.64C136.763 159.88 134.963 166.96 132.803 174.88C130.883 181.6 128.603 189.64 125.963 199C123.323 208.12 120.323 218.44 116.963 229.96L102.923 276.76H140.003L141.803 229.6C142.283 218.32 142.763 208.12 143.243 199C143.723 189.64 144.203 181.6 144.683 174.88C145.403 166.96 146.003 159.88 146.483 153.64H138.203ZM138.563 327.88H86.3633L68.3633 379H0.323281L98.2433 103.6H206.963V379H137.843L138.563 327.88Z" fill="white"/>
<path opacity="0.8" d="M434.553 220.3C453.753 220.3 468.853 226.2 479.853 238C490.853 249.6 496.353 266 496.353 287.2C496.353 301 494.253 313.8 490.053 325.6C485.853 337.2 479.853 347.3 472.053 355.9C464.253 364.3 454.653 371 443.253 376C432.053 380.8 419.353 383.2 405.153 383.2C381.553 383.2 363.253 376.8 350.253 364C337.453 351 331.053 332.3 331.053 307.9C331.053 301.5 331.353 295 331.953 288.4C332.553 281.6 333.553 274.6 334.953 267.4C339.953 234.8 350.553 209 366.753 190C383.153 170.8 406.853 159.4 437.853 155.8L455.853 153.7C464.253 152.7 470.053 151.4 473.253 149.8C476.653 148 478.553 145.6 478.953 142.6H512.853C511.053 158.4 505.953 170.6 497.553 179.2C489.353 187.6 476.153 192.8 457.953 194.8L440.553 197.2C428.953 198.6 419.253 200.8 411.453 203.8C403.853 206.6 397.453 210.5 392.253 215.5C387.253 220.5 383.253 226.7 380.253 234.1C377.453 241.5 375.153 250.3 373.353 260.5H373.953C380.353 247.3 388.253 237.3 397.653 230.5C407.253 223.7 419.553 220.3 434.553 220.3ZM380.253 316.9C380.253 321.3 380.653 325.5 381.453 329.5C382.253 333.5 383.653 337.1 385.653 340.3C387.653 343.3 390.353 345.7 393.753 347.5C397.353 349.3 401.753 350.2 406.953 350.2C414.953 350.2 421.553 347.9 426.753 343.3C431.953 338.7 436.053 333.1 439.053 326.5C442.053 319.9 444.153 312.9 445.353 305.5C446.553 297.9 447.153 291.2 447.153 285.4C447.153 281.4 446.653 277.5 445.653 273.7C444.853 269.7 443.353 266.2 441.153 263.2C439.153 260.2 436.453 257.8 433.053 256C429.853 254 425.753 253 420.753 253C413.153 253 406.753 255.2 401.553 259.6C396.353 263.8 392.153 269.1 388.953 275.5C385.953 281.9 383.753 288.9 382.353 296.5C380.953 303.9 380.253 310.7 380.253 316.9Z" fill="white"/>
<path opacity="0.6" d="M623.762 252.08H688.802C701.282 252.08 710.562 254.88 716.642 260.48C722.722 265.92 725.762 272.8 725.762 281.12C725.762 284.96 725.042 288.56 723.602 291.92C722.322 295.28 720.482 298.32 718.082 301.04C715.682 303.76 712.882 306.08 709.682 308C706.482 309.92 703.042 311.28 699.362 312.08L699.122 312.56C706.322 314.16 711.762 317.36 715.442 322.16C719.282 326.96 721.202 332.4 721.202 338.48C721.202 344.72 719.922 350.4 717.362 355.52C714.802 360.64 711.122 365.04 706.322 368.72C701.522 372.24 695.682 375.04 688.802 377.12C682.082 379.04 674.402 380 665.762 380H600.962L623.762 252.08ZM652.082 272.96L646.562 303.92H671.042C678.242 303.92 683.842 302.24 687.842 298.88C691.842 295.52 693.842 291.2 693.842 285.92C693.842 282.24 692.562 279.2 690.002 276.8C687.442 274.24 683.522 272.96 678.242 272.96H652.082ZM642.962 324.32L636.722 359.12H663.602C671.602 359.12 677.842 357.28 682.322 353.6C686.962 349.92 689.282 344.96 689.282 338.72C689.282 334.56 687.682 331.12 684.482 328.4C681.282 325.68 676.322 324.32 669.602 324.32H642.962Z" fill="white"/>
<path opacity="0.4" d="M857.892 284.14H925.032L922.512 297.64H871.572L855.912 379H839.532L857.892 284.14Z" fill="white"/>
<path opacity="0.2" d="M1014.88 395.2L1019.44 372.16H1026.16C1028 369.76 1029.64 366.76 1031.08 363.16C1032.6 359.48 1034.04 354.92 1035.4 349.48C1036.28 346.12 1037.2 342.52 1038.16 338.68C1039.12 334.84 1040.04 331.24 1040.92 327.88C1041.88 323.96 1042.84 320.04 1043.8 316.12H1086.4L1075.48 372.16H1083.88L1079.44 395.2H1072L1075.12 379H1025.56L1022.44 395.2H1014.88ZM1043.44 349.72C1042.16 354.92 1040.84 359.36 1039.48 363.04C1038.12 366.72 1036.68 369.76 1035.16 372.16H1067.08L1076.68 322.96H1050.16L1043.44 349.72Z" fill="white"/>
<path opacity="0.15" d="M1205.49 361.12C1205.77 359.48 1205.75 357.96 1205.43 356.56C1205.15 355.16 1204.63 353.96 1203.87 352.96C1203.11 351.92 1202.13 351.12 1200.93 350.56C1199.77 349.96 1198.41 349.66 1196.85 349.66C1194.97 349.66 1193.33 350.02 1191.93 350.74C1190.53 351.42 1189.33 352.32 1188.33 353.44C1187.37 354.56 1186.59 355.82 1185.99 357.22C1185.39 358.62 1184.95 360.04 1184.67 361.48H1205.43L1205.49 361.12ZM1206.33 371.5C1205.97 372.54 1205.45 373.56 1204.77 374.56C1204.13 375.52 1203.29 376.38 1202.25 377.14C1201.25 377.9 1200.03 378.52 1198.59 379C1197.15 379.44 1195.49 379.66 1193.61 379.66C1189.53 379.66 1186.39 378.5 1184.19 376.18C1181.99 373.86 1180.89 370.68 1180.89 366.64C1180.89 364.36 1181.19 362.06 1181.79 359.74C1182.39 357.38 1183.35 355.28 1184.67 353.44C1185.99 351.56 1187.67 350.04 1189.71 348.88C1191.75 347.68 1194.21 347.08 1197.09 347.08C1199.45 347.08 1201.43 347.52 1203.03 348.4C1204.63 349.28 1205.89 350.42 1206.81 351.82C1207.73 353.18 1208.33 354.72 1208.61 356.44C1208.89 358.16 1208.89 359.86 1208.61 361.54L1208.19 364H1184.31C1184.19 364.96 1184.13 365.88 1184.13 366.76C1184.13 370.08 1184.97 372.62 1186.65 374.38C1188.33 376.14 1190.69 377.02 1193.73 377.02C1195.21 377.02 1196.49 376.86 1197.57 376.54C1198.65 376.18 1199.55 375.74 1200.27 375.22C1200.99 374.66 1201.57 374.06 1202.01 373.42C1202.45 372.74 1202.79 372.1 1203.03 371.5H1206.33Z" fill="white"/>
<g opacity="0.8">
<circle cx="1193.66" cy="362.232" r="66.9652" transform="rotate(-38.0027 1193.66 362.232)" stroke="#171717" stroke-width="8.06963"/>
<path d="M1225 421L1240.76 408.686L1299.21 483.489C1301.95 487.001 1301.33 492.073 1297.82 494.817L1294.78 497.194C1291.26 499.938 1286.19 499.315 1283.45 495.803L1225 421Z" fill="#171717"/>
</g>
</svg>
