<svg width="1299" height="497" viewBox="0 0 1299 497" fill="none" xmlns="http://www.w3.org/2000/svg">
<path d="M109.443 153.64C109.443 154.12 109.323 156.28 109.083 160.12C108.843 163.96 108.483 169.24 108.003 175.96C107.523 182.68 106.683 190.6 105.483 199.72C104.523 208.84 103.323 218.92 101.883 229.96L95.4033 276.76H132.123L125.643 229.6C123.963 218.32 122.643 208.12 121.683 199C120.723 189.64 120.003 181.6 119.523 174.88C118.803 166.96 118.323 159.88 118.083 153.64H109.443ZM139.683 327.88H87.8433L79.5633 379H12.2433L61.2033 103.6H169.923L218.883 379H147.963L139.683 327.88Z" fill="white"/>
<path d="M420.553 220C442.153 220 459.153 227 471.553 241C484.153 255 490.453 274.8 490.453 300.4C490.453 313.4 488.453 325 484.453 335.2C480.453 345.4 474.753 354.1 467.353 361.3C460.153 368.3 451.453 373.7 441.253 377.5C431.053 381.3 419.853 383.2 407.653 383.2C393.253 383.2 380.853 381 370.453 376.6C360.053 372 351.453 365.5 344.653 357.1C338.053 348.5 333.153 338.2 329.953 326.2C326.953 314 325.453 300.4 325.453 285.4C325.453 264.2 327.153 246 330.553 230.8C334.153 215.4 339.453 202.5 346.453 192.1C353.453 181.7 362.253 173.7 372.853 168.1C383.653 162.3 396.253 158.4 410.653 156.4L427.453 154.3C435.853 153.1 441.553 151.7 444.553 150.1C447.753 148.5 449.453 146 449.653 142.6H483.553C483.553 150.4 482.653 157.3 480.853 163.3C479.253 169.3 476.553 174.5 472.753 178.9C468.953 183.3 463.853 186.9 457.453 189.7C451.253 192.3 443.653 194.2 434.653 195.4L416.053 197.8C406.053 199.2 397.753 201.5 391.153 204.7C384.553 207.7 379.253 211.7 375.253 216.7C371.453 221.5 368.653 227.4 366.853 234.4C365.253 241.4 364.253 249.6 363.853 259H364.453C369.053 246.6 375.953 237 385.153 230.2C394.353 223.4 406.153 220 420.553 220ZM375.253 300.4C375.253 307.8 375.853 314.6 377.053 320.8C378.253 326.8 380.053 332 382.453 336.4C385.053 340.8 388.453 344.2 392.653 346.6C396.853 349 401.953 350.2 407.953 350.2C413.953 350.2 418.953 349 422.953 346.6C427.153 344 430.453 340.5 432.853 336.1C435.253 331.5 436.953 326.2 437.953 320.2C439.153 314 439.753 307.4 439.753 300.4C439.753 293.4 439.153 287 437.953 281.2C436.953 275.2 435.153 270.1 432.553 265.9C429.953 261.5 426.653 258.1 422.653 255.7C418.653 253.3 413.653 252.1 407.653 252.1C401.653 252.1 396.553 253.4 392.353 256C388.353 258.4 385.053 261.8 382.453 266.2C379.853 270.4 377.953 275.5 376.753 281.5C375.753 287.3 375.253 293.6 375.253 300.4Z" fill="white" fill-opacity="0.8"/>
<path d="M608.442 252.08H670.842C685.402 252.08 696.282 254.88 703.482 260.48C710.682 266.08 714.282 274.16 714.282 284.72C714.282 292.4 712.122 298.56 707.802 303.2C703.642 307.68 698.762 310.64 693.162 312.08V312.56C701.322 314 707.962 317.28 713.082 322.4C718.362 327.52 721.002 334.24 721.002 342.56C721.002 349.12 719.722 354.8 717.162 359.6C714.762 364.24 711.402 368.08 707.082 371.12C702.762 374.16 697.562 376.4 691.482 377.84C685.562 379.28 679.002 380 671.802 380H608.442V252.08ZM640.602 272.96V303.92H663.402C668.842 303.92 673.402 302.72 677.082 300.32C680.922 297.76 682.842 293.52 682.842 287.6C682.842 282.48 681.162 278.8 677.802 276.56C674.442 274.16 669.962 272.96 664.362 272.96H640.602ZM640.602 324.32V359.12H666.042C672.922 359.12 678.362 357.84 682.362 355.28C686.522 352.72 688.602 348.08 688.602 341.36C688.602 335.28 686.522 330.96 682.362 328.4C678.202 325.68 672.522 324.32 665.322 324.32H640.602Z" fill="white" fill-opacity="0.6"/>
<path d="M844.432 284.14H913.552V297.64H860.632V379H844.432V284.14Z" fill="white" fill-opacity="0.4"/>
<path d="M1017.68 395.2V372.16H1024.28C1025.64 369.76 1026.68 366.76 1027.4 363.16C1028.2 359.48 1028.8 354.92 1029.2 349.48C1029.44 346.12 1029.68 342.52 1029.92 338.68C1030.16 334.84 1030.36 331.24 1030.52 327.88C1030.76 323.96 1031 320.04 1031.24 316.12H1075.16V372.16H1083.56V395.2H1076.24V379H1025V395.2H1017.68ZM1037 349.72C1036.44 359.88 1035.04 367.36 1032.8 372.16H1066.88V322.96H1038.68C1038.52 324.72 1038.36 326.72 1038.2 328.96C1038.12 331.12 1038 333.4 1037.84 335.8C1037.68 338.12 1037.52 340.48 1037.36 342.88C1037.2 345.28 1037.08 347.56 1037 349.72Z" fill="white" fill-opacity="0.2"/>
<path d="M1199.83 361.24C1199.83 360.12 1199.71 358.88 1199.47 357.52C1199.27 356.16 1198.81 354.9 1198.09 353.74C1197.41 352.54 1196.45 351.54 1195.21 350.74C1193.97 349.94 1192.33 349.54 1190.29 349.54C1188.57 349.54 1187.05 349.84 1185.73 350.44C1184.41 351 1183.29 351.82 1182.37 352.9C1181.49 353.94 1180.79 355.2 1180.27 356.68C1179.75 358.12 1179.43 359.72 1179.31 361.48H1199.83V361.24ZM1202.41 371.5C1202.09 372.66 1201.59 373.74 1200.91 374.74C1200.23 375.74 1199.37 376.62 1198.33 377.38C1197.33 378.1 1196.15 378.68 1194.79 379.12C1193.47 379.56 1191.99 379.78 1190.35 379.78C1185.43 379.78 1181.83 378.38 1179.55 375.58C1177.27 372.74 1176.13 368.76 1176.13 363.64C1176.13 361.24 1176.43 359.02 1177.03 356.98C1177.63 354.9 1178.53 353.12 1179.73 351.64C1180.93 350.16 1182.41 349 1184.17 348.16C1185.93 347.32 1187.97 346.9 1190.29 346.9C1192.69 346.9 1194.69 347.34 1196.29 348.22C1197.93 349.06 1199.23 350.18 1200.19 351.58C1201.19 352.94 1201.89 354.5 1202.29 356.26C1202.73 357.98 1202.95 359.7 1202.95 361.42V363.94L1179.25 364C1179.33 368.24 1180.25 371.5 1182.01 373.78C1183.81 376.02 1186.63 377.14 1190.47 377.14C1191.99 377.14 1193.27 376.92 1194.31 376.48C1195.39 376.04 1196.27 375.52 1196.95 374.92C1197.67 374.32 1198.23 373.7 1198.63 373.06C1199.03 372.42 1199.31 371.9 1199.47 371.5H1202.41Z" fill="white" fill-opacity="0.15"/>
<g opacity="0.8">
<circle cx="1191.66" cy="360.232" r="66.9652" transform="rotate(-38.0027 1191.66 360.232)" stroke="#171717" stroke-width="8.06963"/>
<path d="M1223 419L1238.76 406.686L1297.21 481.489C1299.95 485.001 1299.33 490.073 1295.82 492.817L1292.78 495.194C1289.26 497.938 1284.19 497.315 1281.45 493.803L1223 419Z" fill="#171717"/>
</g>
</svg>
