<svg width="1205" height="845" viewBox="0 0 1205 845" fill="none" xmlns="http://www.w3.org/2000/svg">
<circle cx="411" cy="411" r="401" fill="#D9D9D9" stroke="#3E3E3E" stroke-width="20"/>
<rect x="80.7744" y="325.475" width="660.451" height="171.052" fill="black"/>
<path d="M180.808 599.036H181.288L184.822 592.555H188.961L184.613 600.165L189.233 608.549H184.717L181.288 602.193H180.808V608.549H176.794V592.555H180.808V599.036ZM200.139 608.904C199.233 608.904 198.41 608.765 197.672 608.486C196.947 608.207 196.327 607.817 195.811 607.315C195.309 606.8 194.919 606.172 194.64 605.434C194.361 604.695 194.222 603.866 194.222 602.946C194.222 601.998 194.361 601.155 194.64 600.416C194.919 599.678 195.316 599.057 195.832 598.556C196.348 598.04 196.968 597.65 197.693 597.385C198.431 597.12 199.254 596.988 200.159 596.988C201.024 596.988 201.818 597.12 202.543 597.385C203.268 597.65 203.895 598.04 204.424 598.556C204.954 599.057 205.365 599.678 205.658 600.416C205.951 601.155 206.097 601.998 206.097 602.946C206.097 603.866 205.951 604.695 205.658 605.434C205.365 606.159 204.954 606.779 204.424 607.294C203.909 607.81 203.282 608.207 202.543 608.486C201.818 608.765 201.017 608.904 200.139 608.904ZM200.159 599.664C199.825 599.664 199.546 599.754 199.323 599.935C199.1 600.117 198.919 600.361 198.78 600.667C198.654 600.96 198.564 601.308 198.508 601.712C198.452 602.103 198.424 602.514 198.424 602.946C198.424 603.42 198.452 603.859 198.508 604.263C198.564 604.653 198.661 604.995 198.801 605.287C198.94 605.58 199.121 605.81 199.344 605.977C199.567 606.145 199.839 606.228 200.159 606.228C200.494 606.228 200.773 606.138 200.996 605.956C201.219 605.775 201.393 605.538 201.518 605.246C201.658 604.939 201.755 604.591 201.811 604.2C201.867 603.796 201.895 603.378 201.895 602.946C201.895 602.486 201.867 602.054 201.811 601.65C201.755 601.246 201.658 600.897 201.518 600.604C201.379 600.312 201.198 600.082 200.975 599.915C200.766 599.747 200.494 599.664 200.159 599.664ZM216.208 601.462H219.219V597.259H223.212V608.549H219.219V604.305H216.208V608.549H212.215V597.259H216.208V601.462ZM229.874 597.259H240.661V600.103H237.316V608.549H233.219V600.103H229.874V597.259ZM251.233 603.594C251.233 604.416 251.372 605.071 251.651 605.559C251.929 606.033 252.362 606.27 252.947 606.27C254.146 606.27 254.745 605.169 254.745 602.967C254.745 601.782 254.585 600.932 254.264 600.416C253.957 599.901 253.518 599.643 252.947 599.643C252.501 599.643 252.104 599.88 251.755 600.354C251.407 600.813 251.233 601.482 251.233 602.361V603.594ZM247.239 597.259H251.128V599.057H251.212C251.309 598.806 251.449 598.563 251.63 598.326C251.825 598.075 252.055 597.852 252.32 597.657C252.598 597.461 252.919 597.308 253.281 597.197C253.658 597.071 254.069 597.009 254.515 597.009C255.156 597.009 255.741 597.127 256.271 597.364C256.815 597.587 257.275 597.942 257.651 598.43C258.027 598.904 258.32 599.51 258.529 600.249C258.738 600.988 258.842 601.873 258.842 602.904C258.842 603.81 258.738 604.632 258.529 605.371C258.32 606.096 258.013 606.716 257.609 607.232C257.205 607.733 256.71 608.124 256.125 608.402C255.539 608.681 254.87 608.821 254.118 608.821C253.741 608.821 253.407 608.786 253.114 608.716C252.835 608.66 252.585 608.584 252.362 608.486C252.152 608.389 251.964 608.277 251.797 608.152C251.63 608.012 251.476 607.866 251.337 607.713H251.233V612.479H247.239V597.259ZM270.355 608.904C269.449 608.904 268.626 608.765 267.888 608.486C267.163 608.207 266.543 607.817 266.027 607.315C265.525 606.8 265.135 606.172 264.856 605.434C264.577 604.695 264.438 603.866 264.438 602.946C264.438 601.998 264.577 601.155 264.856 600.416C265.135 599.678 265.532 599.057 266.048 598.556C266.564 598.04 267.184 597.65 267.909 597.385C268.647 597.12 269.47 596.988 270.375 596.988C271.24 596.988 272.034 597.12 272.759 597.385C273.484 597.65 274.111 598.04 274.64 598.556C275.17 599.057 275.581 599.678 275.874 600.416C276.167 601.155 276.313 601.998 276.313 602.946C276.313 603.866 276.167 604.695 275.874 605.434C275.581 606.159 275.17 606.779 274.64 607.294C274.125 607.81 273.497 608.207 272.759 608.486C272.034 608.765 271.233 608.904 270.355 608.904ZM270.375 599.664C270.041 599.664 269.762 599.754 269.539 599.935C269.316 600.117 269.135 600.361 268.996 600.667C268.87 600.96 268.78 601.308 268.724 601.712C268.668 602.103 268.64 602.514 268.64 602.946C268.64 603.42 268.668 603.859 268.724 604.263C268.78 604.653 268.877 604.995 269.017 605.287C269.156 605.58 269.337 605.81 269.56 605.977C269.783 606.145 270.055 606.228 270.375 606.228C270.71 606.228 270.989 606.138 271.212 605.956C271.435 605.775 271.609 605.538 271.734 605.246C271.874 604.939 271.971 604.591 272.027 604.2C272.083 603.796 272.111 603.378 272.111 602.946C272.111 602.486 272.083 602.054 272.027 601.65C271.971 601.246 271.874 600.897 271.734 600.604C271.595 600.312 271.414 600.082 271.191 599.915C270.982 599.747 270.71 599.664 270.375 599.664ZM287.156 602.758C287.1 603.733 286.989 604.598 286.821 605.35C286.668 606.089 286.431 606.716 286.111 607.232C285.79 607.733 285.379 608.117 284.877 608.382C284.375 608.632 283.755 608.758 283.016 608.758C282.849 608.758 282.696 608.751 282.557 608.737C282.417 608.723 282.292 608.702 282.18 608.674C282.055 608.646 281.95 608.612 281.867 608.57V605.287C281.894 605.301 281.929 605.315 281.971 605.329C282.055 605.357 282.152 605.371 282.264 605.371C282.738 605.371 283.072 605.162 283.267 604.744C283.476 604.326 283.609 603.615 283.665 602.611C283.692 602.165 283.713 601.636 283.727 601.023C283.755 600.395 283.783 599.803 283.811 599.245C283.839 598.59 283.867 597.928 283.895 597.259H293.323V608.549H289.33V600.103H287.302L287.156 602.758ZM304.501 600.625H306.675C307.414 600.625 308.062 600.723 308.619 600.918C309.191 601.099 309.665 601.364 310.041 601.712C310.417 602.047 310.696 602.458 310.877 602.946C311.072 603.42 311.17 603.942 311.17 604.514C311.17 605.113 311.072 605.664 310.877 606.166C310.696 606.653 310.417 607.078 310.041 607.441C309.665 607.789 309.191 608.061 308.619 608.256C308.062 608.451 307.414 608.549 306.675 608.549H300.508V597.259H304.501V600.625ZM304.501 603.197V605.977H305.818C306.306 605.977 306.654 605.831 306.863 605.538C307.072 605.232 307.177 604.89 307.177 604.514C307.177 604.124 307.072 603.81 306.863 603.573C306.654 603.322 306.306 603.197 305.818 603.197H304.501ZM321.532 601.462H324.543V597.259H328.536V608.549H324.543V604.305H321.532V608.549H317.539V597.259H321.532V601.462ZM340.571 608.904C339.665 608.904 338.842 608.765 338.104 608.486C337.379 608.207 336.759 607.817 336.243 607.315C335.741 606.8 335.351 606.172 335.072 605.434C334.793 604.695 334.654 603.866 334.654 602.946C334.654 601.998 334.793 601.155 335.072 600.416C335.351 599.678 335.748 599.057 336.264 598.556C336.779 598.04 337.4 597.65 338.124 597.385C338.863 597.12 339.685 596.988 340.591 596.988C341.456 596.988 342.25 597.12 342.975 597.385C343.699 597.65 344.327 598.04 344.856 598.556C345.386 599.057 345.797 599.678 346.09 600.416C346.382 601.155 346.529 601.998 346.529 602.946C346.529 603.866 346.382 604.695 346.09 605.434C345.797 606.159 345.386 606.779 344.856 607.294C344.341 607.81 343.713 608.207 342.975 608.486C342.25 608.765 341.449 608.904 340.571 608.904ZM340.591 599.664C340.257 599.664 339.978 599.754 339.755 599.935C339.532 600.117 339.351 600.361 339.212 600.667C339.086 600.96 338.996 601.308 338.94 601.712C338.884 602.103 338.856 602.514 338.856 602.946C338.856 603.42 338.884 603.859 338.94 604.263C338.996 604.653 339.093 604.995 339.233 605.287C339.372 605.58 339.553 605.81 339.776 605.977C339.999 606.145 340.271 606.228 340.591 606.228C340.926 606.228 341.205 606.138 341.428 605.956C341.651 605.775 341.825 605.538 341.95 605.246C342.09 604.939 342.187 604.591 342.243 604.2C342.299 603.796 342.327 603.378 342.327 602.946C342.327 602.486 342.299 602.054 342.243 601.65C342.187 601.246 342.09 600.897 341.95 600.604C341.811 600.312 341.63 600.082 341.407 599.915C341.198 599.747 340.926 599.664 340.591 599.664ZM354.508 600.374H361.783V603.949H354.508V600.374ZM374.131 608.549H370.034V592.555H381.365V608.549H377.267V595.712H374.131V608.549ZM391.665 603.594C391.665 604.416 391.804 605.071 392.083 605.559C392.361 606.033 392.793 606.27 393.379 606.27C394.577 606.27 395.177 605.169 395.177 602.967C395.177 601.782 395.016 600.932 394.696 600.416C394.389 599.901 393.95 599.643 393.379 599.643C392.933 599.643 392.536 599.88 392.187 600.354C391.839 600.813 391.665 601.482 391.665 602.361V603.594ZM387.671 597.259H391.56V599.057H391.644C391.741 598.806 391.881 598.563 392.062 598.326C392.257 598.075 392.487 597.852 392.752 597.657C393.03 597.461 393.351 597.308 393.713 597.197C394.09 597.071 394.501 597.009 394.947 597.009C395.588 597.009 396.173 597.127 396.703 597.364C397.247 597.587 397.706 597.942 398.083 598.43C398.459 598.904 398.752 599.51 398.961 600.249C399.17 600.988 399.274 601.873 399.274 602.904C399.274 603.81 399.17 604.632 398.961 605.371C398.752 606.096 398.445 606.716 398.041 607.232C397.637 607.733 397.142 608.124 396.557 608.402C395.971 608.681 395.302 608.821 394.55 608.821C394.173 608.821 393.839 608.786 393.546 608.716C393.267 608.66 393.016 608.584 392.793 608.486C392.584 608.389 392.396 608.277 392.229 608.152C392.062 608.012 391.908 607.866 391.769 607.713H391.665V612.479H387.671V597.259ZM410.786 608.904C409.881 608.904 409.058 608.765 408.32 608.486C407.595 608.207 406.975 607.817 406.459 607.315C405.957 606.8 405.567 606.172 405.288 605.434C405.009 604.695 404.87 603.866 404.87 602.946C404.87 601.998 405.009 601.155 405.288 600.416C405.567 599.678 405.964 599.057 406.48 598.556C406.995 598.04 407.616 597.65 408.34 597.385C409.079 597.12 409.901 596.988 410.807 596.988C411.672 596.988 412.466 597.12 413.191 597.385C413.915 597.65 414.543 598.04 415.072 598.556C415.602 599.057 416.013 599.678 416.306 600.416C416.598 601.155 416.745 601.998 416.745 602.946C416.745 603.866 416.598 604.695 416.306 605.434C416.013 606.159 415.602 606.779 415.072 607.294C414.557 607.81 413.929 608.207 413.191 608.486C412.466 608.765 411.665 608.904 410.786 608.904ZM410.807 599.664C410.473 599.664 410.194 599.754 409.971 599.935C409.748 600.117 409.567 600.361 409.428 600.667C409.302 600.96 409.212 601.308 409.156 601.712C409.1 602.103 409.072 602.514 409.072 602.946C409.072 603.42 409.1 603.859 409.156 604.263C409.212 604.653 409.309 604.995 409.448 605.287C409.588 605.58 409.769 605.81 409.992 605.977C410.215 606.145 410.487 606.228 410.807 606.228C411.142 606.228 411.421 606.138 411.644 605.956C411.867 605.775 412.041 605.538 412.166 605.246C412.306 604.939 412.403 604.591 412.459 604.2C412.515 603.796 412.543 603.378 412.543 602.946C412.543 602.486 412.515 602.054 412.459 601.65C412.403 601.246 412.306 600.897 412.166 600.604C412.027 600.312 411.846 600.082 411.623 599.915C411.414 599.747 411.142 599.664 410.807 599.664ZM422.947 597.259H433.776V608.549H429.783V600.103H426.94V608.549H422.947V597.259ZM443.887 597.259L445.476 602.528C445.574 602.848 445.658 603.162 445.727 603.469C445.811 603.761 445.874 604.026 445.915 604.263C445.971 604.528 446.013 604.779 446.041 605.016H446.145C446.187 604.779 446.236 604.528 446.292 604.263C446.347 604.026 446.403 603.761 446.459 603.469C446.529 603.176 446.619 602.869 446.731 602.549L448.361 597.259H452.187L448.027 608.758C447.79 609.413 447.532 609.984 447.253 610.472C446.989 610.974 446.647 611.385 446.229 611.706C445.825 612.04 445.33 612.291 444.745 612.458C444.159 612.626 443.441 612.709 442.591 612.709C442.02 612.709 441.581 612.688 441.274 612.646C440.968 612.619 440.8 612.605 440.772 612.605V609.573C440.828 609.573 440.947 609.58 441.128 609.594C441.323 609.608 441.525 609.615 441.734 609.615C442.403 609.615 442.919 609.573 443.281 609.49C443.657 609.406 443.88 609.162 443.95 608.758L443.971 608.632L439.832 597.259H443.887ZM465.205 601.587C465.163 600.946 465.023 600.458 464.786 600.124C464.563 599.789 464.187 599.622 463.658 599.622C463.267 599.622 462.954 599.719 462.717 599.915C462.48 600.11 462.292 600.361 462.152 600.667C462.027 600.974 461.936 601.322 461.88 601.712C461.839 602.103 461.818 602.486 461.818 602.862C461.818 603.197 461.832 603.552 461.86 603.929C461.887 604.305 461.964 604.66 462.09 604.995C462.215 605.315 462.396 605.587 462.633 605.81C462.884 606.019 463.218 606.124 463.637 606.124C464.25 606.124 464.682 605.936 464.933 605.559C465.184 605.183 465.309 604.709 465.309 604.138H469.26C469.26 604.932 469.114 605.629 468.821 606.228C468.543 606.814 468.145 607.301 467.63 607.692C467.128 608.068 466.536 608.354 465.853 608.549C465.17 608.744 464.431 608.842 463.637 608.842C462.633 608.842 461.755 608.702 461.002 608.423C460.264 608.145 459.65 607.754 459.163 607.253C458.675 606.737 458.312 606.11 458.076 605.371C457.839 604.632 457.72 603.803 457.72 602.883C457.72 601.908 457.859 601.05 458.138 600.312C458.417 599.573 458.807 598.96 459.309 598.472C459.825 597.97 460.445 597.601 461.17 597.364C461.894 597.113 462.71 596.988 463.616 596.988C464.452 596.988 465.212 597.092 465.895 597.301C466.591 597.496 467.184 597.796 467.672 598.2C468.173 598.59 468.557 599.071 468.821 599.643C469.1 600.214 469.233 600.862 469.219 601.587H465.205ZM479.664 601.462H480.501L483.093 597.259H487.274L483.783 602.716L487.337 608.549H483.009L480.438 604.305H479.664V608.549H475.671V597.259H479.664V601.462ZM497.072 601.462H500.083V597.259H504.076V608.549H500.083V604.305H497.072V608.549H493.079V597.259H497.072V601.462ZM516.11 608.904C515.205 608.904 514.382 608.765 513.643 608.486C512.919 608.207 512.299 607.817 511.783 607.315C511.281 606.8 510.891 606.172 510.612 605.434C510.333 604.695 510.194 603.866 510.194 602.946C510.194 601.998 510.333 601.155 510.612 600.416C510.891 599.678 511.288 599.057 511.804 598.556C512.319 598.04 512.94 597.65 513.664 597.385C514.403 597.12 515.225 596.988 516.131 596.988C516.995 596.988 517.79 597.12 518.515 597.385C519.239 597.65 519.867 598.04 520.396 598.556C520.926 599.057 521.337 599.678 521.63 600.416C521.922 601.155 522.069 601.998 522.069 602.946C522.069 603.866 521.922 604.695 521.63 605.434C521.337 606.159 520.926 606.779 520.396 607.294C519.881 607.81 519.253 608.207 518.515 608.486C517.79 608.765 516.989 608.904 516.11 608.904ZM516.131 599.664C515.797 599.664 515.518 599.754 515.295 599.935C515.072 600.117 514.891 600.361 514.752 600.667C514.626 600.96 514.535 601.308 514.48 601.712C514.424 602.103 514.396 602.514 514.396 602.946C514.396 603.42 514.424 603.859 514.48 604.263C514.535 604.653 514.633 604.995 514.772 605.287C514.912 605.58 515.093 605.81 515.316 605.977C515.539 606.145 515.811 606.228 516.131 606.228C516.466 606.228 516.745 606.138 516.968 605.956C517.191 605.775 517.365 605.538 517.49 605.246C517.63 604.939 517.727 604.591 517.783 604.2C517.839 603.796 517.867 603.378 517.867 602.946C517.867 602.486 517.839 602.054 517.783 601.65C517.727 601.246 517.63 600.897 517.49 600.604C517.351 600.312 517.17 600.082 516.947 599.915C516.738 599.747 516.466 599.664 516.131 599.664ZM535.232 597.259H539.226V608.549H535.316V602.026H535.107C535.051 602.249 534.961 602.528 534.835 602.862C534.724 603.141 534.57 603.503 534.375 603.949C534.194 604.381 533.95 604.904 533.644 605.517L532.138 608.549H528.145V597.259H532.055V603.782H532.264C532.319 603.559 532.41 603.28 532.535 602.946C532.647 602.667 532.793 602.312 532.975 601.88C533.156 601.448 533.4 600.925 533.706 600.312L535.232 597.259ZM532.703 592.075C532.703 593.022 533.037 593.496 533.706 593.496C534.361 593.496 534.689 593.022 534.689 592.075H537.281C537.281 592.744 537.184 593.322 536.989 593.81C536.807 594.284 536.556 594.674 536.236 594.981C535.915 595.287 535.532 595.517 535.086 595.671C534.654 595.81 534.187 595.88 533.685 595.88C533.198 595.88 532.731 595.81 532.285 595.671C531.853 595.517 531.476 595.287 531.156 594.981C530.835 594.674 530.577 594.284 530.382 593.81C530.201 593.322 530.11 592.744 530.11 592.075H532.703ZM547.602 600.374H554.877V603.949H547.602V600.374ZM567.225 608.549H563.128V592.555H574.459V608.549H570.361V595.712H567.225V608.549ZM584.319 597.259L585.908 602.528C586.006 602.848 586.089 603.162 586.159 603.469C586.243 603.761 586.305 604.026 586.347 604.263C586.403 604.528 586.445 604.779 586.473 605.016H586.577C586.619 604.779 586.668 604.528 586.724 604.263C586.779 604.026 586.835 603.761 586.891 603.469C586.961 603.176 587.051 602.869 587.163 602.549L588.793 597.259H592.619L588.459 608.758C588.222 609.413 587.964 609.984 587.685 610.472C587.42 610.974 587.079 611.385 586.661 611.706C586.257 612.04 585.762 612.291 585.177 612.458C584.591 612.626 583.873 612.709 583.023 612.709C582.452 612.709 582.013 612.688 581.706 612.646C581.399 612.619 581.232 612.605 581.204 612.605V609.573C581.26 609.573 581.379 609.58 581.56 609.594C581.755 609.608 581.957 609.615 582.166 609.615C582.835 609.615 583.351 609.573 583.713 609.49C584.089 609.406 584.312 609.162 584.382 608.758L584.403 608.632L580.264 597.259H584.319ZM602.396 601.462H605.407V597.259H609.4V608.549H605.407V604.305H602.396V608.549H598.403V597.259H602.396V601.462ZM620.096 601.462H620.933L623.525 597.259H627.706L624.215 602.716L627.769 608.549H623.441L620.87 604.305H620.096V608.549H616.103V597.259H620.096V601.462ZM633.615 597.259H644.403V600.103H641.058V608.549H636.96V600.103H633.615V597.259Z" fill="black"/>
<path d="M351.75 388.219H354.145L368.58 367.597H382.882L364.19 393.474L373.769 418.485H359.866L352.282 398.263H350.021L346.429 418.485H333.59L342.571 367.597H355.409L351.75 388.219ZM403.081 418.485H389.843L398.823 367.597H435.143L426.163 418.485H412.926L419.977 377.642H410.132L403.081 418.485ZM458.934 418.485H445.697L454.677 367.597H490.997L482.017 418.485H468.779L475.83 377.642H465.985L458.934 418.485Z" fill="white"/>
<path d="M255.242 458.403L258.065 442.41H262.539C263.473 442.41 264.267 442.508 264.922 442.703C265.591 442.898 266.135 443.177 266.553 443.539C266.971 443.887 267.271 444.305 267.452 444.793C267.647 445.267 267.744 445.783 267.744 446.34C267.744 447.33 267.473 448.145 266.929 448.786C266.385 449.428 265.612 449.853 264.608 450.062V450.166C265.417 450.333 266.065 450.682 266.553 451.212C267.054 451.741 267.305 452.466 267.305 453.386C267.305 454.25 267.152 454.996 266.845 455.623C266.539 456.25 266.114 456.773 265.57 457.191C265.027 457.595 264.385 457.902 263.647 458.111C262.908 458.306 262.114 458.403 261.263 458.403H255.242ZM262.079 448.995C262.385 448.995 262.685 448.961 262.978 448.891C263.284 448.807 263.549 448.675 263.772 448.494C264.009 448.313 264.197 448.076 264.337 447.783C264.476 447.49 264.546 447.128 264.546 446.696C264.546 446.069 264.372 445.602 264.023 445.295C263.689 444.974 263.145 444.814 262.392 444.814H261.075L260.323 448.995H262.079ZM260.992 455.978C261.396 455.978 261.779 455.943 262.141 455.874C262.504 455.79 262.824 455.651 263.103 455.456C263.382 455.246 263.598 454.975 263.751 454.64C263.919 454.306 264.002 453.888 264.002 453.386C264.002 452.633 263.807 452.104 263.417 451.797C263.027 451.49 262.476 451.337 261.765 451.337H259.905L259.089 455.978H260.992ZM277.208 452.487L274.406 447.198H278.065L279.486 450.208H279.528L282.016 447.198H285.424L280.887 452.55L284.044 458.403H280.323L278.587 454.912H278.546L275.64 458.403H272.253L277.208 452.487ZM296.183 458.696C295.375 458.696 294.636 458.578 293.967 458.341C293.312 458.104 292.748 457.769 292.274 457.337C291.814 456.905 291.458 456.382 291.208 455.769C290.957 455.142 290.831 454.445 290.831 453.678C290.831 452.745 290.964 451.874 291.228 451.065C291.493 450.243 291.884 449.532 292.399 448.933C292.915 448.319 293.556 447.839 294.323 447.49C295.089 447.142 295.974 446.968 296.978 446.968C297.786 446.968 298.518 447.086 299.173 447.323C299.842 447.546 300.406 447.88 300.866 448.326C301.34 448.759 301.703 449.288 301.953 449.915C302.204 450.529 302.33 451.225 302.33 452.006C302.33 452.94 302.197 453.811 301.933 454.619C301.682 455.428 301.298 456.138 300.783 456.752C300.267 457.351 299.626 457.825 298.859 458.173C298.093 458.522 297.201 458.696 296.183 458.696ZM296.183 456.396C296.741 456.396 297.222 456.194 297.626 455.79C297.821 455.595 297.995 455.344 298.148 455.037C298.316 454.717 298.455 454.368 298.567 453.992C298.678 453.602 298.762 453.198 298.817 452.78C298.887 452.361 298.922 451.95 298.922 451.546C298.922 450.821 298.755 450.264 298.42 449.874C298.1 449.469 297.619 449.267 296.978 449.267C296.42 449.267 295.939 449.469 295.535 449.874C295.326 450.083 295.138 450.34 294.971 450.647C294.817 450.954 294.685 451.295 294.573 451.671C294.462 452.048 294.378 452.445 294.323 452.863C294.267 453.281 294.239 453.699 294.239 454.118C294.239 454.842 294.399 455.407 294.72 455.811C295.054 456.201 295.542 456.396 296.183 456.396ZM306.295 461.079L307.298 455.957H308.239C308.545 455.623 308.817 455.163 309.054 454.577C309.305 453.978 309.542 453.26 309.765 452.424C309.877 452.006 309.995 451.546 310.12 451.044C310.246 450.543 310.364 450.055 310.476 449.581C310.587 449.093 310.685 448.64 310.769 448.222C310.866 447.804 310.943 447.462 310.999 447.198H320.051L318.441 455.957H319.842L318.859 461.079L315.953 461.079L316.476 458.403H309.744L309.201 461.079H306.295ZM312.692 452.654C312.497 453.421 312.295 454.083 312.086 454.64C311.877 455.198 311.654 455.637 311.417 455.957H315.096L316.267 449.644H313.424C313.312 450.145 313.187 450.661 313.047 451.191C312.922 451.72 312.803 452.208 312.692 452.654ZM345.166 447.198H355.326L353.34 458.403H350.016L351.542 449.644H348.072L346.525 458.403H343.201L345.166 447.198ZM366.399 458.696C365.591 458.696 364.852 458.578 364.183 458.341C363.528 458.104 362.964 457.769 362.49 457.337C362.03 456.905 361.674 456.382 361.424 455.769C361.173 455.142 361.047 454.445 361.047 453.678C361.047 452.745 361.18 451.874 361.444 451.065C361.709 450.243 362.099 449.532 362.615 448.933C363.131 448.319 363.772 447.839 364.539 447.49C365.305 447.142 366.19 446.968 367.194 446.968C368.002 446.968 368.734 447.086 369.389 447.323C370.058 447.546 370.622 447.88 371.082 448.326C371.556 448.759 371.918 449.288 372.169 449.915C372.42 450.529 372.546 451.225 372.546 452.006C372.546 452.94 372.413 453.811 372.148 454.619C371.898 455.428 371.514 456.138 370.999 456.752C370.483 457.351 369.842 457.825 369.075 458.173C368.309 458.522 367.417 458.696 366.399 458.696ZM366.399 456.396C366.957 456.396 367.438 456.194 367.842 455.79C368.037 455.595 368.211 455.344 368.364 455.037C368.532 454.717 368.671 454.368 368.783 453.992C368.894 453.602 368.978 453.198 369.033 452.78C369.103 452.361 369.138 451.95 369.138 451.546C369.138 450.821 368.971 450.264 368.636 449.874C368.316 449.469 367.835 449.267 367.194 449.267C366.636 449.267 366.155 449.469 365.751 449.874C365.542 450.083 365.354 450.34 365.187 450.647C365.033 450.954 364.901 451.295 364.789 451.671C364.678 452.048 364.594 452.445 364.539 452.863C364.483 453.281 364.455 453.699 364.455 454.118C364.455 454.842 364.615 455.407 364.936 455.811C365.27 456.201 365.758 456.396 366.399 456.396ZM397.828 447.198H407.988L406.002 458.403H402.678L404.204 449.644H400.734L399.187 458.403H395.862L397.828 447.198ZM417.326 453.407C417.173 454.285 417.242 455.01 417.535 455.581C417.842 456.152 418.35 456.438 419.061 456.438C419.661 456.438 420.148 456.278 420.525 455.957C420.915 455.623 421.222 455.205 421.445 454.703C421.668 454.201 421.821 453.658 421.904 453.072C421.988 452.473 422.03 451.908 422.03 451.379C422.03 450.724 421.863 450.201 421.528 449.811C421.208 449.421 420.755 449.225 420.169 449.225C419.514 449.225 418.95 449.49 418.476 450.02C418.016 450.536 417.702 451.26 417.535 452.194L417.326 453.407ZM415.779 462.334H412.455L415.131 447.198H418.35L418.079 448.786H418.162C418.594 448.117 419.075 447.65 419.605 447.386C420.148 447.121 420.776 446.988 421.486 446.988C422.086 446.988 422.629 447.093 423.117 447.302C423.619 447.497 424.037 447.783 424.371 448.159C424.72 448.536 424.985 448.988 425.166 449.518C425.361 450.048 425.459 450.64 425.459 451.295C425.459 452.215 425.361 453.114 425.166 453.992C424.971 454.87 424.643 455.658 424.183 456.354C423.737 457.051 423.145 457.616 422.406 458.048C421.668 458.466 420.755 458.675 419.667 458.675C418.915 458.675 418.288 458.522 417.786 458.215C417.298 457.909 416.95 457.574 416.741 457.212H416.657L415.779 462.334ZM436.615 458.696C435.807 458.696 435.068 458.578 434.399 458.341C433.744 458.104 433.18 457.769 432.706 457.337C432.246 456.905 431.89 456.382 431.639 455.769C431.389 455.142 431.263 454.445 431.263 453.678C431.263 452.745 431.396 451.874 431.66 451.065C431.925 450.243 432.315 449.532 432.831 448.933C433.347 448.319 433.988 447.839 434.755 447.49C435.521 447.142 436.406 446.968 437.41 446.968C438.218 446.968 438.95 447.086 439.605 447.323C440.274 447.546 440.838 447.88 441.298 448.326C441.772 448.759 442.134 449.288 442.385 449.915C442.636 450.529 442.762 451.225 442.762 452.006C442.762 452.94 442.629 453.811 442.364 454.619C442.114 455.428 441.73 456.138 441.215 456.752C440.699 457.351 440.058 457.825 439.291 458.173C438.525 458.522 437.633 458.696 436.615 458.696ZM436.615 456.396C437.173 456.396 437.654 456.194 438.058 455.79C438.253 455.595 438.427 455.344 438.58 455.037C438.748 454.717 438.887 454.368 438.999 453.992C439.11 453.602 439.194 453.198 439.249 452.78C439.319 452.361 439.354 451.95 439.354 451.546C439.354 450.821 439.187 450.264 438.852 449.874C438.532 449.469 438.051 449.267 437.41 449.267C436.852 449.267 436.371 449.469 435.967 449.874C435.758 450.083 435.57 450.34 435.403 450.647C435.249 450.954 435.117 451.295 435.005 451.671C434.894 452.048 434.81 452.445 434.755 452.863C434.699 453.281 434.671 453.699 434.671 454.118C434.671 454.842 434.831 455.407 435.152 455.811C435.486 456.201 435.974 456.396 436.615 456.396ZM450.49 447.198H460.65L458.664 458.403H455.34L456.866 449.644H453.396L451.849 458.403H448.524L450.49 447.198ZM466.894 447.198H470.281L471.221 452.508C471.291 452.884 471.34 453.239 471.368 453.574C471.396 453.908 471.424 454.194 471.451 454.431C471.479 454.724 471.493 454.989 471.493 455.226H471.681C471.737 454.989 471.814 454.738 471.911 454.473C471.995 454.236 472.099 453.964 472.225 453.658C472.364 453.337 472.532 452.989 472.727 452.612L475.486 447.198H478.978L472.267 459.47C472.03 459.902 471.765 460.306 471.472 460.682C471.18 461.058 470.838 461.379 470.448 461.644C470.072 461.923 469.633 462.139 469.131 462.292C468.643 462.459 468.072 462.543 467.416 462.543C466.761 462.543 466.26 462.515 465.911 462.459C465.563 462.417 465.263 462.369 465.012 462.313L465.451 459.846C465.646 459.874 465.911 459.902 466.246 459.929C466.594 459.971 466.88 459.992 467.103 459.992C467.549 459.992 467.932 459.888 468.253 459.679C468.573 459.47 468.859 459.114 469.11 458.612L469.214 458.403L466.894 447.198ZM491.87 451.212C491.925 450.64 491.807 450.173 491.514 449.811C491.235 449.448 490.775 449.267 490.134 449.267C489.563 449.267 489.096 449.455 488.734 449.832C488.385 450.194 488.113 450.633 487.918 451.149C487.723 451.651 487.584 452.18 487.5 452.738C487.43 453.281 487.396 453.741 487.396 454.118C487.396 454.773 487.542 455.309 487.835 455.727C488.127 456.145 488.587 456.354 489.214 456.354C489.883 456.354 490.385 456.166 490.72 455.79C491.068 455.4 491.319 454.884 491.472 454.243H494.943C494.817 454.968 494.58 455.609 494.232 456.166C493.897 456.724 493.479 457.191 492.978 457.567C492.476 457.943 491.911 458.222 491.284 458.403C490.671 458.598 490.037 458.696 489.382 458.696C487.612 458.696 486.267 458.264 485.347 457.4C484.441 456.522 483.988 455.26 483.988 453.616C483.988 452.975 484.085 452.271 484.281 451.504C484.476 450.724 484.81 449.999 485.284 449.33C485.772 448.647 486.42 448.083 487.228 447.637C488.037 447.177 489.061 446.947 490.302 446.947C491.152 446.947 491.897 447.072 492.539 447.323C493.18 447.56 493.709 447.88 494.127 448.285C494.559 448.675 494.873 449.128 495.068 449.644C495.277 450.159 495.361 450.682 495.319 451.212H491.87ZM506.35 453.992H505.284L504.511 458.403H501.207L503.193 447.198H506.497L505.723 451.546H506.81L510.364 447.198H513.96L509.235 452.884L511.953 458.403H508.525L506.35 453.992ZM526.183 453.511C525.472 453.539 524.915 453.574 524.511 453.616C524.106 453.644 523.751 453.692 523.444 453.762C523.082 453.846 522.796 454.006 522.587 454.243C522.378 454.48 522.274 454.793 522.274 455.184C522.274 455.546 522.399 455.839 522.65 456.062C522.901 456.285 523.242 456.396 523.674 456.396C524.399 456.396 524.957 456.159 525.347 455.685C525.737 455.212 526.009 454.529 526.162 453.637L526.183 453.511ZM526.162 457.024C525.424 458.069 524.267 458.591 522.692 458.591C522.19 458.591 521.716 458.529 521.27 458.403C520.824 458.278 520.434 458.083 520.099 457.818C519.765 457.553 519.5 457.219 519.305 456.814C519.11 456.396 519.012 455.895 519.012 455.309C519.012 454.375 519.291 453.616 519.848 453.03C520.406 452.445 521.124 452.062 522.002 451.881C522.322 451.825 522.608 451.776 522.859 451.734C523.11 451.692 523.389 451.658 523.695 451.63C524.016 451.602 524.392 451.581 524.824 451.567C525.256 451.539 525.807 451.511 526.476 451.483L526.539 451.149C526.65 450.549 526.566 450.083 526.288 449.748C526.009 449.4 525.577 449.225 524.991 449.225C524.49 449.225 524.086 449.351 523.779 449.602C523.472 449.839 523.305 450.173 523.277 450.605H520.058C520.113 450.034 520.274 449.525 520.538 449.079C520.803 448.619 521.152 448.236 521.584 447.929C522.03 447.609 522.545 447.365 523.131 447.198C523.73 447.03 524.378 446.947 525.075 446.947C525.87 446.947 526.58 447.051 527.208 447.26C527.849 447.455 528.371 447.762 528.775 448.18C529.18 448.598 529.451 449.128 529.591 449.769C529.744 450.41 529.744 451.177 529.591 452.069L529.026 455.267C528.943 455.713 529.11 455.936 529.528 455.936H530.093L529.654 458.403H527.918C527.403 458.403 526.991 458.285 526.685 458.048C526.378 457.797 526.225 457.47 526.225 457.065V457.024H526.162ZM537.779 447.198H541.584L541.939 450.898C541.967 451.316 541.988 451.706 542.002 452.069C542.016 452.417 542.023 452.731 542.023 453.009V453.867H542.169C542.253 453.602 542.35 453.309 542.462 452.989C542.559 452.71 542.678 452.396 542.817 452.048C542.957 451.699 543.117 451.323 543.298 450.919L545.012 447.198H548.964L546.978 458.403H543.904L545.263 450.668H545.117C545.033 450.933 544.936 451.212 544.824 451.504C544.727 451.769 544.615 452.069 544.49 452.403C544.364 452.738 544.225 453.1 544.072 453.49L542.734 456.48H540.455L540.162 453.469C540.134 453.065 540.12 452.689 540.12 452.34C540.12 451.992 540.12 451.699 540.12 451.462C540.12 451.184 540.127 450.926 540.141 450.689H539.974L538.615 458.403H535.793L537.779 447.198ZM559.974 441.929H563.821L561.291 452.905H558.594L559.974 441.929ZM557.11 458.403L557.779 454.64H561.542L560.873 458.403H557.11Z" fill="white"/>
<path d="M744.226 108.448L734.712 91.9702L725.199 108.448L317.55 814.516L308.037 830.994H327.063H1142.36H1161.39L1151.87 814.516L744.226 108.448Z" fill="#D9D9D9" stroke="#3E3E3E" stroke-width="21.9702"/>
<path d="M497.869 753.896V742.13H501.606C504.262 742.13 505.589 743.13 505.589 745.129C505.589 745.478 505.528 745.791 505.405 746.068C505.292 746.334 505.138 746.57 504.943 746.775C504.759 746.98 504.544 747.149 504.298 747.282C504.051 747.416 503.8 747.513 503.544 747.575V747.636C503.913 747.698 504.251 747.81 504.559 747.975C504.877 748.128 505.149 748.328 505.374 748.574C505.6 748.81 505.774 749.087 505.897 749.405C506.03 749.723 506.097 750.076 506.097 750.466C506.097 751.04 505.994 751.542 505.789 751.973C505.584 752.393 505.292 752.747 504.913 753.034C504.533 753.321 504.072 753.537 503.529 753.68C502.985 753.824 502.38 753.896 501.714 753.896H497.869ZM501.299 746.99C501.842 746.99 502.278 746.867 502.606 746.621C502.934 746.365 503.098 745.934 503.098 745.329C503.098 744.868 502.949 744.514 502.652 744.268C502.355 744.012 501.924 743.884 501.36 743.884H500.391V746.99H501.299ZM501.529 752.096C502.165 752.096 502.652 751.963 502.99 751.696C503.339 751.43 503.513 750.963 503.513 750.297C503.513 749.733 503.339 749.318 502.99 749.051C502.652 748.784 502.15 748.651 501.483 748.651H500.391V752.096H501.529ZM516.288 748.79C516.267 748.328 516.124 747.928 515.857 747.59C515.601 747.252 515.232 747.083 514.75 747.083C514.227 747.083 513.837 747.231 513.581 747.529C513.325 747.826 513.161 748.272 513.089 748.867H516.288V748.79ZM518.749 751.496C518.584 752.306 518.174 752.947 517.518 753.419C516.862 753.88 515.955 754.111 514.796 754.111C514.099 754.111 513.484 754.008 512.951 753.803C512.428 753.598 511.987 753.306 511.628 752.927C511.279 752.547 511.018 752.091 510.844 751.558C510.669 751.025 510.582 750.425 510.582 749.759C510.582 749.133 510.674 748.559 510.859 748.036C511.044 747.503 511.315 747.047 511.674 746.667C512.033 746.278 512.474 745.98 512.997 745.775C513.52 745.56 514.119 745.452 514.796 745.452C515.483 745.452 516.078 745.565 516.58 745.791C517.093 746.016 517.513 746.324 517.841 746.713C518.18 747.093 518.426 747.539 518.579 748.051C518.743 748.564 518.825 749.113 518.825 749.697V750.481H513.089C513.161 751.158 513.34 751.645 513.627 751.942C513.914 752.24 514.319 752.388 514.842 752.388C515.273 752.388 515.591 752.311 515.796 752.158C516.011 751.994 516.175 751.773 516.288 751.496H518.749ZM523.003 755.864V752.096H523.649C523.823 751.84 523.962 751.486 524.064 751.035C524.167 750.574 524.244 750.03 524.295 749.405C524.326 749.097 524.351 748.759 524.372 748.39C524.392 748.021 524.408 747.667 524.418 747.329C524.439 746.98 524.454 746.657 524.464 746.36C524.485 746.062 524.495 745.827 524.495 745.652H531.231V752.096H532.154V755.864H530.016V753.896H525.141V755.864H523.003ZM526.479 749.466C526.428 750.071 526.361 750.599 526.279 751.05C526.207 751.501 526.099 751.85 525.956 752.096H528.786V747.452H526.602C526.581 747.79 526.561 748.139 526.54 748.497C526.52 748.846 526.499 749.169 526.479 749.466ZM542.114 748.79C542.094 748.328 541.95 747.928 541.683 747.59C541.427 747.252 541.058 747.083 540.576 747.083C540.053 747.083 539.664 747.231 539.407 747.529C539.151 747.826 538.987 748.272 538.915 748.867H542.114V748.79ZM544.575 751.496C544.411 752.306 544.001 752.947 543.344 753.419C542.688 753.88 541.781 754.111 540.622 754.111C539.925 754.111 539.31 754.008 538.777 753.803C538.254 753.598 537.813 753.306 537.454 752.927C537.106 752.547 536.844 752.091 536.67 751.558C536.496 751.025 536.408 750.425 536.408 749.759C536.408 749.133 536.501 748.559 536.685 748.036C536.87 747.503 537.141 747.047 537.5 746.667C537.859 746.278 538.3 745.98 538.823 745.775C539.346 745.56 539.946 745.452 540.622 745.452C541.309 745.452 541.904 745.565 542.406 745.791C542.919 746.016 543.339 746.324 543.667 746.713C544.006 747.093 544.252 747.539 544.406 748.051C544.57 748.564 544.652 749.113 544.652 749.697V750.481H538.915C538.987 751.158 539.166 751.645 539.453 751.942C539.741 752.24 540.146 752.388 540.668 752.388C541.099 752.388 541.417 752.311 541.622 752.158C541.837 751.994 542.001 751.773 542.114 751.496H544.575ZM537.546 742.13H540.13V744.622H537.546V742.13ZM541.176 744.622V742.13H543.76V744.622H541.176ZM549.598 745.652H557.319V747.452H554.72V753.896H552.197V747.452H549.598V745.652ZM567.94 748.605C567.899 748.164 567.766 747.81 567.54 747.544C567.325 747.267 566.987 747.129 566.525 747.129C566.208 747.129 565.941 747.2 565.726 747.344C565.521 747.488 565.351 747.682 565.218 747.928C565.095 748.164 565.008 748.441 564.957 748.759C564.905 749.077 564.88 749.405 564.88 749.743C564.88 750.061 564.9 750.379 564.941 750.697C564.982 751.014 565.059 751.302 565.172 751.558C565.295 751.804 565.459 752.004 565.664 752.158C565.879 752.311 566.161 752.388 566.51 752.388C566.777 752.388 567.002 752.347 567.187 752.265C567.381 752.173 567.535 752.055 567.648 751.912C567.771 751.768 567.858 751.604 567.909 751.419C567.971 751.235 568.007 751.04 568.017 750.835H570.447C570.427 751.378 570.314 751.855 570.109 752.265C569.904 752.675 569.622 753.019 569.263 753.296C568.914 753.562 568.504 753.762 568.033 753.896C567.561 754.039 567.053 754.111 566.51 754.111C565.105 754.111 564.06 753.726 563.373 752.957C562.696 752.178 562.358 751.117 562.358 749.774C562.358 749.077 562.455 748.462 562.65 747.928C562.845 747.385 563.121 746.934 563.48 746.575C563.839 746.206 564.275 745.929 564.787 745.745C565.3 745.55 565.879 745.452 566.525 745.452C567.079 745.452 567.587 745.519 568.048 745.652C568.52 745.786 568.924 745.985 569.263 746.252C569.611 746.519 569.883 746.847 570.078 747.236C570.283 747.626 570.396 748.082 570.416 748.605H567.94ZM580.33 751.158H579.3L577.593 753.896H575.086L577.07 750.712C576.557 750.507 576.168 750.205 575.901 749.805C575.635 749.405 575.501 748.938 575.501 748.405C575.501 747.585 575.763 746.924 576.286 746.421C576.809 745.909 577.572 745.652 578.577 745.652H582.776V753.896H580.33V751.158ZM580.33 749.528V747.313H579.069C578.669 747.313 578.388 747.431 578.223 747.667C578.059 747.903 577.977 748.169 577.977 748.467C577.977 748.774 578.059 749.031 578.223 749.236C578.398 749.43 578.68 749.528 579.069 749.528H580.33ZM604.065 754.111C602.937 754.019 602.045 753.614 601.389 752.896C600.733 752.168 600.405 751.127 600.405 749.774C600.405 748.41 600.733 747.37 601.389 746.652C602.056 745.934 602.947 745.529 604.065 745.437V742.13H606.157V745.437C606.721 745.488 607.228 745.616 607.679 745.821C608.13 746.016 608.515 746.298 608.833 746.667C609.15 747.026 609.391 747.467 609.555 747.99C609.73 748.503 609.817 749.097 609.817 749.774C609.817 751.138 609.484 752.178 608.817 752.896C608.161 753.614 607.274 754.019 606.157 754.111V756.787H604.065V754.111ZM604.065 747.113C603.552 747.185 603.183 747.462 602.958 747.944C602.742 748.415 602.635 749.025 602.635 749.774C602.635 750.563 602.748 751.189 602.973 751.65C603.199 752.112 603.563 752.368 604.065 752.419V747.113ZM606.157 752.434C606.669 752.373 607.033 752.101 607.249 751.619C607.474 751.138 607.587 750.522 607.587 749.774C607.587 748.984 607.479 748.364 607.264 747.913C607.049 747.452 606.68 747.19 606.157 747.129V752.434ZM618.009 754.142C617.363 754.142 616.778 754.044 616.255 753.849C615.743 753.644 615.307 753.352 614.948 752.973C614.589 752.593 614.312 752.137 614.118 751.604C613.933 751.071 613.841 750.466 613.841 749.789C613.841 749.102 613.938 748.492 614.133 747.959C614.328 747.416 614.605 746.96 614.963 746.59C615.322 746.221 615.758 745.939 616.271 745.745C616.794 745.55 617.378 745.452 618.024 745.452C618.649 745.452 619.218 745.55 619.731 745.745C620.254 745.939 620.695 746.221 621.054 746.59C621.423 746.96 621.705 747.416 621.899 747.959C622.105 748.492 622.207 749.102 622.207 749.789C622.207 750.466 622.105 751.071 621.899 751.604C621.705 752.137 621.423 752.593 621.054 752.973C620.695 753.352 620.254 753.644 619.731 753.849C619.218 754.044 618.644 754.142 618.009 754.142ZM618.024 747.144C617.727 747.144 617.475 747.211 617.27 747.344C617.065 747.477 616.896 747.667 616.763 747.913C616.64 748.149 616.548 748.431 616.486 748.759C616.435 749.077 616.409 749.42 616.409 749.789C616.409 750.179 616.435 750.538 616.486 750.866C616.548 751.194 616.645 751.476 616.778 751.712C616.911 751.947 617.076 752.132 617.27 752.265C617.475 752.388 617.727 752.45 618.024 752.45C618.321 752.45 618.572 752.383 618.777 752.25C618.983 752.106 619.147 751.917 619.27 751.681C619.403 751.445 619.495 751.163 619.546 750.835C619.608 750.507 619.639 750.158 619.639 749.789C619.639 749.4 619.608 749.046 619.546 748.728C619.495 748.4 619.403 748.118 619.27 747.882C619.136 747.646 618.967 747.467 618.762 747.344C618.557 747.211 618.311 747.144 618.024 747.144ZM627.077 745.652H634.797V747.452H632.198V753.896H629.676V747.452H627.077V745.652ZM643.835 754.142C643.189 754.142 642.604 754.044 642.082 753.849C641.569 753.644 641.133 753.352 640.774 752.973C640.415 752.593 640.139 752.137 639.944 751.604C639.759 751.071 639.667 750.466 639.667 749.789C639.667 749.102 639.764 748.492 639.959 747.959C640.154 747.416 640.431 746.96 640.79 746.59C641.148 746.221 641.584 745.939 642.097 745.745C642.62 745.55 643.204 745.452 643.85 745.452C644.476 745.452 645.045 745.55 645.557 745.745C646.08 745.939 646.521 746.221 646.88 746.59C647.249 746.96 647.531 747.416 647.726 747.959C647.931 748.492 648.033 749.102 648.033 749.789C648.033 750.466 647.931 751.071 647.726 751.604C647.531 752.137 647.249 752.593 646.88 752.973C646.521 753.352 646.08 753.644 645.557 753.849C645.045 754.044 644.47 754.142 643.835 754.142ZM643.85 747.144C643.553 747.144 643.302 747.211 643.097 747.344C642.891 747.477 642.722 747.667 642.589 747.913C642.466 748.149 642.374 748.431 642.312 748.759C642.261 749.077 642.235 749.42 642.235 749.789C642.235 750.179 642.261 750.538 642.312 750.866C642.374 751.194 642.471 751.476 642.604 751.712C642.738 751.947 642.902 752.132 643.097 752.265C643.302 752.388 643.553 752.45 643.85 752.45C644.147 752.45 644.399 752.383 644.604 752.25C644.809 752.106 644.973 751.917 645.096 751.681C645.229 751.445 645.321 751.163 645.373 750.835C645.434 750.507 645.465 750.158 645.465 749.789C645.465 749.4 645.434 749.046 645.373 748.728C645.321 748.4 645.229 748.118 645.096 747.882C644.963 747.646 644.793 747.467 644.588 747.344C644.383 747.211 644.137 747.144 643.85 747.144ZM654.272 747.975H659.255V750.22H654.272V747.975ZM666.17 745.652H670.445C671.44 745.652 672.168 745.832 672.629 746.191C673.09 746.549 673.321 747.077 673.321 747.775C673.321 748.021 673.28 748.241 673.198 748.436C673.126 748.62 673.024 748.79 672.891 748.943C672.757 749.087 672.609 749.205 672.445 749.297C672.28 749.389 672.116 749.456 671.952 749.497V749.528C672.475 749.62 672.906 749.83 673.244 750.158C673.583 750.486 673.752 750.927 673.752 751.481C673.752 752.27 673.46 752.87 672.875 753.28C672.301 753.69 671.537 753.896 670.584 753.896H666.17V745.652ZM668.615 747.113V748.974H669.784C670.133 748.974 670.414 748.897 670.63 748.743C670.845 748.59 670.953 748.339 670.953 747.99C670.953 747.693 670.85 747.472 670.645 747.329C670.45 747.185 670.174 747.113 669.815 747.113H668.615ZM668.615 750.374V752.434H669.999C670.399 752.434 670.717 752.358 670.953 752.204C671.189 752.05 671.306 751.773 671.306 751.373C671.306 751.025 671.189 750.774 670.953 750.62C670.717 750.456 670.389 750.374 669.968 750.374H668.615ZM683.958 745.652H686.434V753.896H684.035V748.605H683.881C683.84 748.759 683.774 748.954 683.681 749.189C683.599 749.395 683.486 749.651 683.343 749.958C683.199 750.266 683.015 750.635 682.789 751.066L681.221 753.896H678.745V745.652H681.144V750.943H681.298C681.349 750.768 681.426 750.558 681.528 750.312C681.61 750.107 681.723 749.851 681.867 749.543C682.02 749.225 682.205 748.856 682.42 748.436L683.958 745.652ZM690.873 755.864V752.096H691.519C691.694 751.84 691.832 751.486 691.934 751.035C692.037 750.574 692.114 750.03 692.165 749.405C692.196 749.097 692.222 748.759 692.242 748.39C692.263 748.021 692.278 747.667 692.288 747.329C692.309 746.98 692.324 746.657 692.334 746.36C692.355 746.062 692.365 745.827 692.365 745.652H699.101V752.096H700.024V755.864H697.886V753.896H693.011V755.864H690.873ZM694.349 749.466C694.298 750.071 694.231 750.599 694.149 751.05C694.077 751.501 693.97 751.85 693.826 752.096H696.656V747.452H694.472C694.452 747.79 694.431 748.139 694.411 748.497C694.39 748.846 694.37 749.169 694.349 749.466ZM709.984 748.79C709.964 748.328 709.82 747.928 709.554 747.59C709.297 747.252 708.928 747.083 708.446 747.083C707.923 747.083 707.534 747.231 707.278 747.529C707.021 747.826 706.857 748.272 706.785 748.867H709.984V748.79ZM712.445 751.496C712.281 752.306 711.871 752.947 711.215 753.419C710.558 753.88 709.651 754.111 708.492 754.111C707.795 754.111 707.18 754.008 706.647 753.803C706.124 753.598 705.683 753.306 705.324 752.927C704.976 752.547 704.714 752.091 704.54 751.558C704.366 751.025 704.279 750.425 704.279 749.759C704.279 749.133 704.371 748.559 704.555 748.036C704.74 747.503 705.012 747.047 705.37 746.667C705.729 746.278 706.17 745.98 706.693 745.775C707.216 745.56 707.816 745.452 708.492 745.452C709.179 745.452 709.774 745.565 710.276 745.791C710.789 746.016 711.209 746.324 711.538 746.713C711.876 747.093 712.122 747.539 712.276 748.051C712.44 748.564 712.522 749.113 712.522 749.697V750.481H706.785C706.857 751.158 707.037 751.645 707.324 751.942C707.611 752.24 708.016 752.388 708.539 752.388C708.969 752.388 709.287 752.311 709.492 752.158C709.707 751.994 709.871 751.773 709.984 751.496H712.445ZM721.313 754.142C720.667 754.142 720.083 754.044 719.56 753.849C719.047 753.644 718.612 753.352 718.253 752.973C717.894 752.593 717.617 752.137 717.422 751.604C717.238 751.071 717.146 750.466 717.146 749.789C717.146 749.102 717.243 748.492 717.438 747.959C717.633 747.416 717.909 746.96 718.268 746.59C718.627 746.221 719.063 745.939 719.575 745.745C720.098 745.55 720.683 745.452 721.329 745.452C721.954 745.452 722.523 745.55 723.036 745.745C723.559 745.939 723.999 746.221 724.358 746.59C724.727 746.96 725.009 747.416 725.204 747.959C725.409 748.492 725.512 749.102 725.512 749.789C725.512 750.466 725.409 751.071 725.204 751.604C725.009 752.137 724.727 752.593 724.358 752.973C723.999 753.352 723.559 753.644 723.036 753.849C722.523 754.044 721.949 754.142 721.313 754.142ZM721.329 747.144C721.031 747.144 720.78 747.211 720.575 747.344C720.37 747.477 720.201 747.667 720.068 747.913C719.945 748.149 719.852 748.431 719.791 748.759C719.739 749.077 719.714 749.42 719.714 749.789C719.714 750.179 719.739 750.538 719.791 750.866C719.852 751.194 719.95 751.476 720.083 751.712C720.216 751.947 720.38 752.132 720.575 752.265C720.78 752.388 721.031 752.45 721.329 752.45C721.626 752.45 721.877 752.383 722.082 752.25C722.287 752.106 722.451 751.917 722.574 751.681C722.708 751.445 722.8 751.163 722.851 750.835C722.913 750.507 722.943 750.158 722.943 749.789C722.943 749.4 722.913 749.046 722.851 748.728C722.8 748.4 722.708 748.118 722.574 747.882C722.441 747.646 722.272 747.467 722.067 747.344C721.862 747.211 721.616 747.144 721.329 747.144ZM746.109 754.111C744.981 754.019 744.089 753.614 743.433 752.896C742.777 752.168 742.449 751.127 742.449 749.774C742.449 748.41 742.777 747.37 743.433 746.652C744.1 745.934 744.992 745.529 746.109 745.437V742.13H748.201V745.437C748.765 745.488 749.272 745.616 749.723 745.821C750.174 746.016 750.559 746.298 750.877 746.667C751.194 747.026 751.435 747.467 751.599 747.99C751.774 748.503 751.861 749.097 751.861 749.774C751.861 751.138 751.528 752.178 750.861 752.896C750.205 753.614 749.318 754.019 748.201 754.111V756.787H746.109V754.111ZM746.109 747.113C745.596 747.185 745.227 747.462 745.002 747.944C744.786 748.415 744.679 749.025 744.679 749.774C744.679 750.563 744.792 751.189 745.017 751.65C745.243 752.112 745.607 752.368 746.109 752.419V747.113ZM748.201 752.434C748.713 752.373 749.077 752.101 749.293 751.619C749.518 751.138 749.631 750.522 749.631 749.774C749.631 748.984 749.523 748.364 749.308 747.913C749.093 747.452 748.724 747.19 748.201 747.129V752.434ZM761.437 745.652H763.913V753.896H761.514V748.605H761.36C761.319 748.759 761.252 748.954 761.16 749.189C761.078 749.395 760.965 749.651 760.821 749.958C760.678 750.266 760.493 750.635 760.268 751.066L758.699 753.896H756.223V745.652H758.622V750.943H758.776C758.827 750.768 758.904 750.558 759.007 750.312C759.089 750.107 759.202 749.851 759.345 749.543C759.499 749.225 759.683 748.856 759.899 748.436L761.437 745.652ZM771.797 748.851H772.581L774.673 745.652H777.272L774.611 749.651L777.379 753.896H774.688L772.55 750.651H771.797V753.896H769.336V745.652H771.797V748.851ZM787.463 748.605C787.422 748.164 787.288 747.81 787.063 747.544C786.848 747.267 786.509 747.129 786.048 747.129C785.73 747.129 785.463 747.2 785.248 747.344C785.043 747.488 784.874 747.682 784.741 747.928C784.618 748.164 784.53 748.441 784.479 748.759C784.428 749.077 784.402 749.405 784.402 749.743C784.402 750.061 784.423 750.379 784.464 750.697C784.505 751.014 784.582 751.302 784.695 751.558C784.818 751.804 784.982 752.004 785.187 752.158C785.402 752.311 785.684 752.388 786.033 752.388C786.299 752.388 786.525 752.347 786.709 752.265C786.904 752.173 787.058 752.055 787.171 751.912C787.294 751.768 787.381 751.604 787.432 751.419C787.494 751.235 787.529 751.04 787.54 750.835H789.97C789.949 751.378 789.836 751.855 789.631 752.265C789.426 752.675 789.144 753.019 788.785 753.296C788.437 753.562 788.027 753.762 787.555 753.896C787.083 754.039 786.576 754.111 786.033 754.111C784.628 754.111 783.582 753.726 782.895 752.957C782.218 752.178 781.88 751.117 781.88 749.774C781.88 749.077 781.978 748.462 782.172 747.928C782.367 747.385 782.644 746.934 783.003 746.575C783.362 746.206 783.797 745.929 784.31 745.745C784.823 745.55 785.402 745.452 786.048 745.452C786.602 745.452 787.109 745.519 787.57 745.652C788.042 745.786 788.447 745.985 788.785 746.252C789.134 746.519 789.406 746.847 789.6 747.236C789.806 747.626 789.918 748.082 789.939 748.605H787.463ZM797.285 751.466C797.285 751.773 797.377 752.009 797.561 752.173C797.746 752.337 797.987 752.419 798.284 752.419C798.51 752.419 798.725 752.373 798.93 752.281C799.146 752.178 799.33 752.04 799.484 751.865C799.638 751.681 799.761 751.466 799.853 751.22C799.945 750.963 799.991 750.676 799.991 750.358V750.297C799.345 750.338 798.848 750.374 798.5 750.404C798.161 750.435 797.905 750.507 797.731 750.62C797.567 750.733 797.449 750.861 797.377 751.004C797.315 751.148 797.285 751.302 797.285 751.466ZM800.13 752.927C799.914 753.224 799.602 753.491 799.192 753.726C798.782 753.962 798.279 754.08 797.685 754.08C797.315 754.08 796.957 754.034 796.608 753.942C796.27 753.86 795.967 753.721 795.701 753.526C795.444 753.332 795.239 753.075 795.085 752.757C794.932 752.429 794.855 752.024 794.855 751.542C794.855 751.061 794.962 750.64 795.178 750.281C795.393 749.923 795.706 749.641 796.116 749.436C796.331 749.313 796.557 749.215 796.793 749.143C797.028 749.072 797.295 749.015 797.592 748.974C797.89 748.923 798.228 748.887 798.607 748.867C798.997 748.846 799.453 748.826 799.976 748.805V748.451C799.976 747.559 799.566 747.113 798.746 747.113C798.346 747.113 798.043 747.211 797.838 747.406C797.633 747.6 797.52 747.851 797.5 748.159H795.162C795.183 747.759 795.275 747.395 795.439 747.067C795.613 746.739 795.854 746.457 796.162 746.221C796.47 745.975 796.834 745.791 797.254 745.668C797.685 745.534 798.166 745.468 798.7 745.468C799.263 745.468 799.766 745.524 800.207 745.637C800.658 745.739 801.032 745.914 801.329 746.16C801.637 746.406 801.868 746.729 802.021 747.129C802.185 747.518 802.268 748 802.268 748.574V751.65C802.268 751.804 802.298 751.917 802.36 751.988C802.421 752.05 802.534 752.081 802.698 752.081H803.098V753.896H801.852C801.411 753.896 801.047 753.844 800.76 753.742C800.484 753.629 800.289 753.357 800.176 752.927H800.13ZM814.166 753.896H807.922V745.652H810.382V752.096H812.92V745.652H815.381V752.096H816.303V755.864H814.166V753.896ZM826.002 745.652H828.478V753.896H826.079V748.605H825.925C825.884 748.759 825.818 748.954 825.725 749.189C825.643 749.395 825.53 749.651 825.387 749.958C825.243 750.266 825.059 750.635 824.833 751.066L823.265 753.896H820.789V745.652H823.188V750.943H823.342C823.393 750.768 823.47 750.558 823.572 750.312C823.654 750.107 823.767 749.851 823.911 749.543C824.064 749.225 824.249 748.856 824.464 748.436L826.002 745.652ZM838.592 751.158H837.562L835.855 753.896H833.348L835.332 750.712C834.819 750.507 834.43 750.205 834.163 749.805C833.896 749.405 833.763 748.938 833.763 748.405C833.763 747.585 834.025 746.924 834.548 746.421C835.07 745.909 835.834 745.652 836.839 745.652H841.038V753.896H838.592V751.158ZM838.592 749.528V747.313H837.331C836.931 747.313 836.649 747.431 836.485 747.667C836.321 747.903 836.239 748.169 836.239 748.467C836.239 748.774 836.321 749.031 836.485 749.236C836.66 749.43 836.942 749.528 837.331 749.528H838.592ZM862.035 748.851H864.711V745.652H867.171V753.896H864.711V750.651H862.035V753.896H859.574V745.652H862.035V748.851ZM874.763 751.466C874.763 751.773 874.855 752.009 875.04 752.173C875.225 752.337 875.466 752.419 875.763 752.419C875.988 752.419 876.204 752.373 876.409 752.281C876.624 752.178 876.809 752.04 876.962 751.865C877.116 751.681 877.239 751.466 877.332 751.22C877.424 750.963 877.47 750.676 877.47 750.358V750.297C876.824 750.338 876.327 750.374 875.978 750.404C875.64 750.435 875.383 750.507 875.209 750.62C875.045 750.733 874.927 750.861 874.855 751.004C874.794 751.148 874.763 751.302 874.763 751.466ZM877.608 752.927C877.393 753.224 877.08 753.491 876.67 753.726C876.26 753.962 875.758 754.08 875.163 754.08C874.794 754.08 874.435 754.034 874.087 753.942C873.748 753.86 873.446 753.721 873.179 753.526C872.923 753.332 872.718 753.075 872.564 752.757C872.41 752.429 872.333 752.024 872.333 751.542C872.333 751.061 872.441 750.64 872.656 750.281C872.872 749.923 873.184 749.641 873.594 749.436C873.81 749.313 874.035 749.215 874.271 749.143C874.507 749.072 874.773 749.015 875.071 748.974C875.368 748.923 875.706 748.887 876.086 748.867C876.475 748.846 876.932 748.826 877.455 748.805V748.451C877.455 747.559 877.044 747.113 876.224 747.113C875.824 747.113 875.522 747.211 875.317 747.406C875.112 747.6 874.999 747.851 874.979 748.159H872.641C872.661 747.759 872.754 747.395 872.918 747.067C873.092 746.739 873.333 746.457 873.641 746.221C873.948 745.975 874.312 745.791 874.732 745.668C875.163 745.534 875.645 745.468 876.178 745.468C876.742 745.468 877.244 745.524 877.685 745.637C878.136 745.739 878.511 745.914 878.808 746.16C879.116 746.406 879.346 746.729 879.5 747.129C879.664 747.518 879.746 748 879.746 748.574V751.65C879.746 751.804 879.777 751.917 879.838 751.988C879.9 752.05 880.013 752.081 880.177 752.081H880.577V753.896H879.331C878.89 753.896 878.526 753.844 878.239 753.742C877.962 753.629 877.767 753.357 877.654 752.927H877.608ZM887.722 750.22C887.722 750.886 887.856 751.43 888.122 751.85C888.399 752.26 888.814 752.465 889.368 752.465C890.455 752.465 890.998 751.568 890.998 749.774C890.998 748.902 890.865 748.246 890.598 747.805C890.342 747.364 889.932 747.144 889.368 747.144C888.896 747.144 888.502 747.344 888.184 747.744C887.876 748.133 887.722 748.661 887.722 749.328V750.22ZM885.293 745.652H887.676V746.99H887.722C887.815 746.795 887.933 746.606 888.076 746.421C888.23 746.237 888.409 746.078 888.614 745.944C888.83 745.801 889.071 745.688 889.337 745.606C889.614 745.514 889.917 745.468 890.245 745.468C890.716 745.468 891.147 745.55 891.536 745.714C891.936 745.868 892.28 746.119 892.567 746.467C892.864 746.806 893.095 747.247 893.259 747.79C893.423 748.333 893.505 748.984 893.505 749.743C893.505 750.43 893.423 751.045 893.259 751.589C893.095 752.122 892.859 752.578 892.551 752.957C892.244 753.326 891.875 753.608 891.444 753.803C891.014 753.998 890.537 754.095 890.014 754.095C889.43 754.095 888.963 753.998 888.614 753.803C888.266 753.598 887.994 753.362 887.799 753.096H887.738V756.787H885.293V745.652ZM897.852 745.652H900.359L901.804 749.958C901.876 750.184 901.938 750.399 901.989 750.604C902.04 750.799 902.086 750.968 902.127 751.112C902.168 751.296 902.204 751.46 902.235 751.604H902.281C902.312 751.46 902.348 751.296 902.389 751.112C902.43 750.958 902.476 750.784 902.527 750.589C902.578 750.394 902.645 750.184 902.727 749.958L904.157 745.652H906.526L903.373 754.157C903.199 754.639 903.009 755.054 902.804 755.403C902.609 755.751 902.373 756.038 902.097 756.264C901.82 756.5 901.486 756.674 901.097 756.787C900.718 756.9 900.251 756.956 899.697 756.956C899.298 756.956 898.985 756.941 898.759 756.91C898.534 756.879 898.406 756.859 898.375 756.848V754.957C898.457 754.977 898.575 754.993 898.728 755.003C898.893 755.023 899.062 755.034 899.236 755.034C899.482 755.034 899.692 755.023 899.867 755.003C900.041 754.982 900.195 754.936 900.328 754.864C900.461 754.803 900.574 754.711 900.666 754.588C900.759 754.475 900.835 754.326 900.897 754.142L900.958 753.942L897.852 745.652ZM913.979 745.652H916.086V752.096H917.224V745.652H919.316V753.896H910.734V745.652H912.841V752.096H913.979V745.652ZM929.507 748.79C929.486 748.328 929.343 747.928 929.076 747.59C928.82 747.252 928.451 747.083 927.969 747.083C927.446 747.083 927.056 747.231 926.8 747.529C926.544 747.826 926.38 748.272 926.308 748.867H929.507V748.79ZM931.967 751.496C931.803 752.306 931.393 752.947 930.737 753.419C930.081 753.88 929.174 754.111 928.015 754.111C927.318 754.111 926.703 754.008 926.17 753.803C925.647 753.598 925.206 753.306 924.847 752.927C924.498 752.547 924.237 752.091 924.063 751.558C923.888 751.025 923.801 750.425 923.801 749.759C923.801 749.133 923.893 748.559 924.078 748.036C924.262 747.503 924.534 747.047 924.893 746.667C925.252 746.278 925.693 745.98 926.216 745.775C926.739 745.56 927.338 745.452 928.015 745.452C928.702 745.452 929.297 745.565 929.799 745.791C930.312 746.016 930.732 746.324 931.06 746.713C931.398 747.093 931.644 747.539 931.798 748.051C931.962 748.564 932.044 749.113 932.044 749.697V750.481H926.308C926.38 751.158 926.559 751.645 926.846 751.942C927.133 752.24 927.538 752.388 928.061 752.388C928.492 752.388 928.81 752.311 929.015 752.158C929.23 751.994 929.394 751.773 929.507 751.496H931.967ZM939.513 748.851H942.189V745.652H944.65V753.896H942.189V750.651H939.513V753.896H937.053V745.652H939.513V748.851ZM955.133 745.652H957.609V753.896H955.21V748.605H955.056C955.015 748.759 954.948 748.954 954.856 749.189C954.774 749.395 954.661 749.651 954.518 749.958C954.374 750.266 954.19 750.635 953.964 751.066L952.396 753.896H949.919V745.652H952.319V750.943H952.472C952.524 750.768 952.601 750.558 952.703 750.312C952.785 750.107 952.898 749.851 953.041 749.543C953.195 749.225 953.38 748.856 953.595 748.436L955.133 745.652ZM968.046 745.652H970.522V753.896H968.123V748.605H967.969C967.928 748.759 967.862 748.954 967.769 749.189C967.687 749.395 967.574 749.651 967.431 749.958C967.287 750.266 967.103 750.635 966.877 751.066L965.309 753.896H962.833V745.652H965.232V750.943H965.386C965.437 750.768 965.514 750.558 965.616 750.312C965.698 750.107 965.811 749.851 965.955 749.543C966.108 749.225 966.293 748.856 966.508 748.436L968.046 745.652ZM965.816 741.777C965.816 742.587 966.119 742.992 966.724 742.992C967 742.992 967.216 742.894 967.369 742.699C967.523 742.494 967.6 742.187 967.6 741.777H969.261C969.261 742.259 969.194 742.669 969.061 743.007C968.928 743.345 968.743 743.627 968.507 743.853C968.282 744.068 968.01 744.227 967.692 744.33C967.385 744.432 967.052 744.483 966.693 744.483C966.344 744.483 966.016 744.432 965.708 744.33C965.401 744.227 965.129 744.068 964.893 743.853C964.668 743.627 964.488 743.345 964.355 743.007C964.222 742.669 964.155 742.259 964.155 741.777H965.816Z" fill="black"/>
<path d="M589.114 568.136H582.556L587.005 542.925H604.998L600.549 568.136H593.991L597.484 547.901H592.607L589.114 568.136ZM611.874 560.029C611.874 558.886 611.962 557.601 612.138 556.173C612.336 554.745 612.621 553.339 612.995 551.955C613.368 550.571 613.83 549.274 614.379 548.066C614.95 546.836 615.609 545.847 616.356 545.1C617.191 544.265 618.114 543.639 619.124 543.221C620.157 542.782 621.431 542.562 622.947 542.562C624.375 542.562 625.595 542.771 626.605 543.189C627.616 543.606 628.44 544.188 629.077 544.935C629.736 545.682 630.219 546.583 630.527 547.638C630.835 548.692 630.988 549.846 630.988 551.098C630.988 552.262 630.889 553.558 630.692 554.987C630.516 556.415 630.241 557.832 629.868 559.238C629.494 560.644 629.033 561.962 628.484 563.192C627.934 564.401 627.286 565.378 626.539 566.125C625.704 566.96 624.771 567.597 623.738 568.037C622.706 568.454 621.431 568.663 619.915 568.663C618.487 568.663 617.268 568.454 616.257 568.037C615.247 567.619 614.412 567.037 613.753 566.29C613.116 565.521 612.643 564.61 612.336 563.555C612.028 562.5 611.874 561.325 611.874 560.029ZM620.179 563.819C620.552 563.819 620.893 563.709 621.201 563.489C621.508 563.269 621.805 562.863 622.09 562.27C622.222 562.028 622.365 561.622 622.519 561.05C622.695 560.479 622.87 559.831 623.046 559.106C623.222 558.359 623.398 557.568 623.573 556.733C623.749 555.876 623.903 555.03 624.035 554.196C624.167 553.339 624.276 552.537 624.364 551.79C624.452 551.043 624.496 550.395 624.496 549.846C624.496 548.989 624.342 548.374 624.035 548C623.727 547.605 623.277 547.407 622.684 547.407C622.31 547.407 621.97 547.528 621.662 547.769C621.354 547.989 621.058 548.384 620.772 548.956C620.64 549.197 620.487 549.604 620.311 550.175C620.157 550.746 619.992 551.405 619.816 552.152C619.641 552.877 619.465 553.668 619.289 554.525C619.113 555.36 618.96 556.206 618.828 557.063C618.696 557.898 618.586 558.689 618.498 559.436C618.41 560.183 618.366 560.831 618.366 561.38C618.366 562.237 618.52 562.863 618.828 563.258C619.135 563.632 619.586 563.819 620.179 563.819ZM657.802 559.238C657.561 560.644 657.187 561.929 656.682 563.094C656.199 564.258 655.561 565.258 654.77 566.093C653.98 566.905 653.024 567.543 651.903 568.004C650.783 568.443 649.465 568.663 647.949 568.663C644.939 568.663 642.775 567.916 641.457 566.422C640.16 564.906 639.512 562.775 639.512 560.029C639.512 558.908 639.6 557.645 639.776 556.239C639.974 554.811 640.259 553.405 640.633 552.021C641.006 550.636 641.468 549.34 642.017 548.132C642.566 546.902 643.214 545.913 643.961 545.166C644.379 544.748 644.807 544.386 645.246 544.078C645.708 543.749 646.213 543.474 646.762 543.254C647.312 543.035 647.927 542.87 648.608 542.76C649.289 542.628 650.058 542.562 650.915 542.562C652.628 542.562 654.034 542.859 655.133 543.452C656.253 544.045 657.11 544.803 657.704 545.726C658.319 546.649 658.703 547.659 658.857 548.758C659.033 549.857 659.033 550.911 658.857 551.922H652.661C652.837 550.472 652.738 549.406 652.365 548.725C651.991 548.022 651.387 547.67 650.552 547.67C649.586 547.67 648.861 548.077 648.377 548.89C648.114 549.307 647.839 550.021 647.553 551.032C647.268 552.021 647.004 553.119 646.762 554.327C646.543 555.514 646.356 556.711 646.202 557.92C646.048 559.128 645.971 560.15 645.971 560.984C645.971 561.709 646.114 562.325 646.4 562.83C646.685 563.313 647.268 563.555 648.146 563.555C649.069 563.555 649.75 563.225 650.19 562.566C650.651 561.907 651.003 560.798 651.244 559.238H657.802ZM687.022 547.967H681.321L677.795 568.136H671.302L674.829 547.967H669.127L670.017 542.925H687.912L687.022 547.967ZM694.887 560.029C694.887 558.886 694.975 557.601 695.151 556.173C695.348 554.745 695.634 553.339 696.007 551.955C696.381 550.571 696.842 549.274 697.392 548.066C697.963 546.836 698.622 545.847 699.369 545.1C700.204 544.265 701.126 543.639 702.137 543.221C703.17 542.782 704.444 542.562 705.96 542.562C707.388 542.562 708.607 542.771 709.618 543.189C710.629 543.606 711.453 544.188 712.09 544.935C712.749 545.682 713.232 546.583 713.54 547.638C713.847 548.692 714.001 549.846 714.001 551.098C714.001 552.262 713.902 553.558 713.704 554.987C713.529 556.415 713.254 557.832 712.881 559.238C712.507 560.644 712.046 561.962 711.496 563.192C710.947 564.401 710.299 565.378 709.552 566.125C708.717 566.96 707.783 567.597 706.751 568.037C705.718 568.454 704.444 568.663 702.928 568.663C701.5 568.663 700.281 568.454 699.27 568.037C698.259 567.619 697.425 567.037 696.765 566.29C696.128 565.521 695.656 564.61 695.348 563.555C695.041 562.5 694.887 561.325 694.887 560.029ZM703.192 563.819C703.565 563.819 703.906 563.709 704.213 563.489C704.521 563.269 704.817 562.863 705.103 562.27C705.235 562.028 705.378 561.622 705.532 561.05C705.707 560.479 705.883 559.831 706.059 559.106C706.235 558.359 706.41 557.568 706.586 556.733C706.762 555.876 706.916 555.03 707.047 554.196C707.179 553.339 707.289 552.537 707.377 551.79C707.465 551.043 707.509 550.395 707.509 549.846C707.509 548.989 707.355 548.374 707.047 548C706.74 547.605 706.289 547.407 705.696 547.407C705.323 547.407 704.982 547.528 704.675 547.769C704.367 547.989 704.071 548.384 703.785 548.956C703.653 549.197 703.499 549.604 703.324 550.175C703.17 550.746 703.005 551.405 702.829 552.152C702.653 552.877 702.478 553.668 702.302 554.525C702.126 555.36 701.972 556.206 701.841 557.063C701.709 557.898 701.599 558.689 701.511 559.436C701.423 560.183 701.379 560.831 701.379 561.38C701.379 562.237 701.533 562.863 701.841 563.258C702.148 563.632 702.598 563.819 703.192 563.819ZM729.347 560.259L727.963 568.136H721.47L725.919 542.925H733.598C734.718 542.925 735.773 543.09 736.762 543.419C737.772 543.727 738.651 544.199 739.398 544.836C740.145 545.473 740.738 546.286 741.178 547.275C741.617 548.242 741.837 549.384 741.837 550.702C741.837 552.284 741.573 553.679 741.046 554.888C740.54 556.074 739.826 557.074 738.904 557.887C737.981 558.678 736.882 559.271 735.608 559.666C734.356 560.062 732.972 560.259 731.456 560.259H729.347ZM731.423 555.085C732.038 555.085 732.598 555.009 733.104 554.855C733.631 554.701 734.081 554.459 734.455 554.13C734.828 553.8 735.125 553.372 735.345 552.844C735.564 552.317 735.674 551.68 735.674 550.933C735.674 549.988 735.399 549.252 734.85 548.725C734.323 548.198 733.587 547.934 732.642 547.934H731.522L730.269 555.085H731.423ZM750.229 560.029C750.229 558.886 750.317 557.601 750.492 556.173C750.69 554.745 750.976 553.339 751.349 551.955C751.723 550.571 752.184 549.274 752.733 548.066C753.305 546.836 753.964 545.847 754.711 545.1C755.546 544.265 756.468 543.639 757.479 543.221C758.512 542.782 759.786 542.562 761.302 542.562C762.73 542.562 763.949 542.771 764.96 543.189C765.97 543.606 766.794 544.188 767.431 544.935C768.091 545.682 768.574 546.583 768.882 547.638C769.189 548.692 769.343 549.846 769.343 551.098C769.343 552.262 769.244 553.558 769.046 554.987C768.871 556.415 768.596 557.832 768.222 559.238C767.849 560.644 767.388 561.962 766.838 563.192C766.289 564.401 765.641 565.378 764.894 566.125C764.059 566.96 763.125 567.597 762.093 568.037C761.06 568.454 759.786 568.663 758.27 568.663C756.842 568.663 755.622 568.454 754.612 568.037C753.601 567.619 752.766 567.037 752.107 566.29C751.47 565.521 750.998 564.61 750.69 563.555C750.383 562.5 750.229 561.325 750.229 560.029ZM758.534 563.819C758.907 563.819 759.248 563.709 759.555 563.489C759.863 563.269 760.159 562.863 760.445 562.27C760.577 562.028 760.72 561.622 760.873 561.05C761.049 560.479 761.225 559.831 761.401 559.106C761.576 558.359 761.752 557.568 761.928 556.733C762.104 555.876 762.257 555.03 762.389 554.196C762.521 553.339 762.631 552.537 762.719 551.79C762.807 551.043 762.851 550.395 762.851 549.846C762.851 548.989 762.697 548.374 762.389 548C762.082 547.605 761.631 547.407 761.038 547.407C760.665 547.407 760.324 547.528 760.017 547.769C759.709 547.989 759.412 548.384 759.127 548.956C758.995 549.197 758.841 549.604 758.665 550.175C758.512 550.746 758.347 551.405 758.171 552.152C757.995 552.877 757.819 553.668 757.644 554.525C757.468 555.36 757.314 556.206 757.182 557.063C757.051 557.898 756.941 558.689 756.853 559.436C756.765 560.183 756.721 560.831 756.721 561.38C756.721 562.237 756.875 562.863 757.182 563.258C757.49 563.632 757.94 563.819 758.534 563.819ZM782.744 568.136H776.252L780.701 542.925H787.193L785.381 553.108H790.291L792.103 542.925H798.596L794.147 568.136H787.654L789.434 558.084H784.524L782.744 568.136ZM810.415 568.136H803.923L808.372 542.925H814.864L813.051 553.108H817.962L819.774 542.925H826.267L821.818 568.136H815.325L817.105 558.084H812.195L810.415 568.136ZM843.425 568.136L846.193 552.647H845.863C845.71 553.108 845.545 553.558 845.369 553.998C845.215 554.437 845.029 554.899 844.809 555.382C844.611 555.865 844.369 556.382 844.084 556.931C843.798 557.48 843.469 558.084 843.095 558.743L837.756 568.136H831.33L835.812 542.925H842.074L839.239 558.513H839.602C839.756 558.029 839.909 557.568 840.063 557.129C840.239 556.667 840.437 556.184 840.656 555.679C840.876 555.151 841.14 554.58 841.447 553.965C841.777 553.328 842.172 552.592 842.634 551.757L847.544 542.925H854.168L849.686 568.136H843.425ZM863.648 542.925H870.074L870.404 548.461C870.447 549.384 870.458 550.285 870.437 551.164C870.415 552.043 870.382 552.833 870.338 553.537C870.272 554.371 870.195 555.173 870.107 555.942H870.437C870.568 555.239 870.755 554.492 870.997 553.701C871.194 553.02 871.436 552.262 871.722 551.427C872.007 550.571 872.348 549.692 872.743 548.791L875.281 542.925H881.51L877.061 568.136H871.722L874.754 550.867H874.391C874.193 551.68 873.996 552.493 873.798 553.306C873.622 554.009 873.424 554.756 873.205 555.547C873.007 556.338 872.809 557.052 872.612 557.689L871.359 561.578H867.174L867.273 556.931C867.295 556.272 867.328 555.591 867.372 554.888C867.416 554.163 867.46 553.504 867.503 552.91C867.569 552.207 867.635 551.526 867.701 550.867H867.372L864.34 568.136H859.199L863.648 542.925ZM530.872 629.136L535.321 603.925H543.164C544.482 603.925 545.636 604.09 546.624 604.419C547.613 604.727 548.426 605.155 549.063 605.704C549.7 606.232 550.173 606.869 550.48 607.616C550.81 608.341 550.975 609.121 550.975 609.956C550.975 611.713 550.524 613.086 549.623 614.075C548.745 615.064 547.536 615.745 545.998 616.118V616.283C547.404 616.635 548.437 617.25 549.096 618.129C549.777 618.985 550.118 620.084 550.118 621.424C550.118 622.786 549.876 623.951 549.393 624.917C548.931 625.884 548.272 626.686 547.415 627.323C546.58 627.938 545.57 628.4 544.383 628.707C543.219 628.993 541.934 629.136 540.528 629.136H530.872ZM541.549 614.207C542.472 614.207 543.23 613.932 543.823 613.383C544.416 612.834 544.713 612.01 544.713 610.911C544.713 609.989 544.46 609.308 543.955 608.868C543.472 608.407 542.692 608.176 541.615 608.176H540.956L539.902 614.207H541.549ZM540.165 624.885C540.627 624.885 541.066 624.83 541.483 624.72C541.923 624.588 542.307 624.39 542.637 624.127C542.966 623.841 543.23 623.467 543.428 623.006C543.625 622.523 543.724 621.93 543.724 621.226C543.724 619.359 542.659 618.425 540.528 618.425H539.144L537.99 624.885H540.165ZM563.321 629.136H556.829L566.188 615.822L561.575 603.925H568.1L570.473 610.846H570.538L575.02 603.925H581.348L572.779 616.481L577.558 629.136H570.934L568.33 621.655H568.264L563.321 629.136ZM587.499 621.029C587.499 619.886 587.587 618.601 587.762 617.173C587.96 615.745 588.246 614.339 588.619 612.955C588.993 611.571 589.454 610.274 590.003 609.066C590.575 607.836 591.234 606.847 591.981 606.1C592.816 605.265 593.738 604.639 594.749 604.221C595.782 603.782 597.056 603.562 598.572 603.562C600 603.562 601.219 603.771 602.23 604.189C603.241 604.606 604.064 605.188 604.702 605.935C605.361 606.682 605.844 607.583 606.152 608.638C606.459 609.692 606.613 610.846 606.613 612.098C606.613 613.262 606.514 614.558 606.316 615.987C606.141 617.415 605.866 618.832 605.492 620.238C605.119 621.644 604.658 622.962 604.108 624.192C603.559 625.401 602.911 626.378 602.164 627.125C601.329 627.96 600.395 628.597 599.363 629.037C598.33 629.454 597.056 629.663 595.54 629.663C594.112 629.663 592.893 629.454 591.882 629.037C590.871 628.619 590.036 628.037 589.377 627.29C588.74 626.521 588.268 625.61 587.96 624.555C587.653 623.5 587.499 622.325 587.499 621.029ZM595.804 624.819C596.177 624.819 596.518 624.709 596.825 624.489C597.133 624.269 597.429 623.863 597.715 623.27C597.847 623.028 597.99 622.622 598.143 622.05C598.319 621.479 598.495 620.831 598.671 620.106C598.846 619.359 599.022 618.568 599.198 617.733C599.374 616.876 599.528 616.03 599.659 615.196C599.791 614.339 599.901 613.537 599.989 612.79C600.077 612.043 600.121 611.395 600.121 610.846C600.121 609.989 599.967 609.374 599.659 609C599.352 608.605 598.901 608.407 598.308 608.407C597.935 608.407 597.594 608.528 597.287 608.769C596.979 608.989 596.682 609.384 596.397 609.956C596.265 610.197 596.111 610.604 595.935 611.175C595.782 611.746 595.617 612.405 595.441 613.152C595.265 613.877 595.09 614.668 594.914 615.525C594.738 616.36 594.584 617.206 594.452 618.063C594.321 618.898 594.211 619.689 594.123 620.436C594.035 621.183 593.991 621.831 593.991 622.38C593.991 623.237 594.145 623.863 594.452 624.258C594.76 624.632 595.21 624.819 595.804 624.819ZM610.655 633.42L612.303 624.159H613.687C614.258 623.456 614.763 622.545 615.203 621.424C615.664 620.282 616.103 618.854 616.521 617.14C616.653 616.657 616.785 616.096 616.916 615.459C617.048 614.8 617.191 614.119 617.345 613.416C617.499 612.713 617.641 611.988 617.773 611.241C617.927 610.494 618.07 609.769 618.202 609.066C618.509 607.418 618.828 605.704 619.157 603.925H635.404L631.845 624.159H634.218L632.57 633.42H626.638L627.462 629.136H617.444L616.62 633.42H610.655ZM622.387 617.601C621.992 619.227 621.618 620.556 621.266 621.589C620.915 622.6 620.519 623.456 620.08 624.159H625.485L628.088 608.901H624.2C624.068 609.626 623.914 610.384 623.738 611.175C623.584 611.944 623.431 612.713 623.277 613.482C623.123 614.251 622.969 614.987 622.815 615.69C622.662 616.393 622.519 617.03 622.387 617.601ZM669.226 629.136L673.675 603.925H681.519C682.837 603.925 683.99 604.09 684.979 604.419C685.968 604.727 686.781 605.155 687.418 605.704C688.055 606.232 688.527 606.869 688.835 607.616C689.164 608.341 689.329 609.121 689.329 609.956C689.329 611.713 688.879 613.086 687.978 614.075C687.099 615.064 685.891 615.745 684.353 616.118V616.283C685.759 616.635 686.792 617.25 687.451 618.129C688.132 618.985 688.472 620.084 688.472 621.424C688.472 622.786 688.231 623.951 687.747 624.917C687.286 625.884 686.627 626.686 685.77 627.323C684.935 627.938 683.924 628.4 682.738 628.707C681.574 628.993 680.288 629.136 678.882 629.136H669.226ZM679.904 614.207C680.827 614.207 681.585 613.932 682.178 613.383C682.771 612.834 683.068 612.01 683.068 610.911C683.068 609.989 682.815 609.308 682.31 608.868C681.826 608.407 681.046 608.176 679.97 608.176H679.311L678.256 614.207H679.904ZM678.52 624.885C678.981 624.885 679.42 624.83 679.838 624.72C680.277 624.588 680.662 624.39 680.991 624.127C681.321 623.841 681.585 623.467 681.782 623.006C681.98 622.523 682.079 621.93 682.079 621.226C682.079 619.359 681.013 618.425 678.882 618.425H677.498L676.345 624.885H678.52ZM698.182 621.029C698.182 619.886 698.27 618.601 698.446 617.173C698.644 615.745 698.929 614.339 699.303 612.955C699.676 611.571 700.138 610.274 700.687 609.066C701.258 607.836 701.917 606.847 702.664 606.1C703.499 605.265 704.422 604.639 705.433 604.221C706.465 603.782 707.74 603.562 709.255 603.562C710.684 603.562 711.903 603.771 712.914 604.189C713.924 604.606 714.748 605.188 715.385 605.935C716.044 606.682 716.528 607.583 716.835 608.638C717.143 609.692 717.297 610.846 717.297 612.098C717.297 613.262 717.198 614.558 717 615.987C716.824 617.415 716.55 618.832 716.176 620.238C715.803 621.644 715.341 622.962 714.792 624.192C714.243 625.401 713.595 626.378 712.848 627.125C712.013 627.96 711.079 628.597 710.046 629.037C709.014 629.454 707.74 629.663 706.224 629.663C704.796 629.663 703.576 629.454 702.566 629.037C701.555 628.619 700.72 628.037 700.061 627.29C699.424 626.521 698.951 625.61 698.644 624.555C698.336 623.5 698.182 622.325 698.182 621.029ZM706.487 624.819C706.861 624.819 707.201 624.709 707.509 624.489C707.816 624.269 708.113 623.863 708.399 623.27C708.53 623.028 708.673 622.622 708.827 622.05C709.003 621.479 709.179 620.831 709.354 620.106C709.53 619.359 709.706 618.568 709.882 617.733C710.057 616.876 710.211 616.03 710.343 615.196C710.475 614.339 710.585 613.537 710.673 612.79C710.76 612.043 710.804 611.395 710.804 610.846C710.804 609.989 710.651 609.374 710.343 609C710.035 608.605 709.585 608.407 708.992 608.407C708.618 608.407 708.278 608.528 707.97 608.769C707.663 608.989 707.366 609.384 707.08 609.956C706.949 610.197 706.795 610.604 706.619 611.175C706.465 611.746 706.3 612.405 706.125 613.152C705.949 613.877 705.773 614.668 705.597 615.525C705.422 616.36 705.268 617.206 705.136 618.063C705.004 618.898 704.894 619.689 704.807 620.436C704.719 621.183 704.675 621.831 704.675 622.38C704.675 623.237 704.828 623.863 705.136 624.258C705.444 624.632 705.894 624.819 706.487 624.819ZM744.111 620.238C743.869 621.644 743.495 622.929 742.99 624.094C742.507 625.258 741.87 626.258 741.079 627.093C740.288 627.905 739.332 628.543 738.212 629.004C737.091 629.443 735.773 629.663 734.257 629.663C731.247 629.663 729.083 628.916 727.765 627.422C726.469 625.906 725.82 623.775 725.82 621.029C725.82 619.908 725.908 618.645 726.084 617.239C726.282 615.811 726.567 614.405 726.941 613.021C727.314 611.636 727.776 610.34 728.325 609.132C728.874 607.902 729.522 606.913 730.269 606.166C730.687 605.748 731.115 605.386 731.555 605.078C732.016 604.749 732.521 604.474 733.071 604.254C733.62 604.035 734.235 603.87 734.916 603.76C735.597 603.628 736.366 603.562 737.223 603.562C738.937 603.562 740.343 603.859 741.441 604.452C742.562 605.045 743.419 605.803 744.012 606.726C744.627 607.649 745.011 608.659 745.165 609.758C745.341 610.857 745.341 611.911 745.165 612.922H738.97C739.145 611.472 739.047 610.406 738.673 609.725C738.3 609.022 737.695 608.67 736.86 608.67C735.894 608.67 735.169 609.077 734.685 609.89C734.422 610.307 734.147 611.021 733.862 612.032C733.576 613.021 733.312 614.119 733.071 615.327C732.851 616.514 732.664 617.711 732.51 618.92C732.357 620.128 732.28 621.15 732.28 621.984C732.28 622.709 732.422 623.325 732.708 623.83C732.994 624.313 733.576 624.555 734.455 624.555C735.377 624.555 736.059 624.225 736.498 623.566C736.959 622.907 737.311 621.798 737.553 620.238H744.111ZM758.435 629.136H751.877L756.325 603.925H774.319L769.87 629.136H763.312L766.805 608.901H761.928L758.435 629.136ZM787.984 621.259L786.6 629.136H780.108L784.557 603.925H792.235C793.356 603.925 794.41 604.09 795.399 604.419C796.41 604.727 797.288 605.199 798.035 605.836C798.782 606.473 799.376 607.286 799.815 608.275C800.254 609.242 800.474 610.384 800.474 611.702C800.474 613.284 800.21 614.679 799.683 615.888C799.178 617.074 798.464 618.074 797.541 618.887C796.618 619.678 795.52 620.271 794.246 620.666C792.993 621.062 791.609 621.259 790.093 621.259H787.984ZM790.06 616.085C790.675 616.085 791.236 616.009 791.741 615.855C792.268 615.701 792.719 615.459 793.092 615.13C793.466 614.8 793.762 614.372 793.982 613.844C794.202 613.317 794.311 612.68 794.311 611.933C794.311 610.988 794.037 610.252 793.488 609.725C792.96 609.198 792.224 608.934 791.28 608.934H790.159L788.907 616.085H790.06ZM812.821 603.925H828.738L827.848 608.934H818.39L817.5 614.009H826.596L825.739 618.985H816.611L815.721 624.159H825.607L824.718 629.136H808.372L812.821 603.925ZM841.942 624.489L845.6 603.925H851.004L847.346 624.489H848.698L852.356 603.925H857.76L854.069 624.489H855.552L853.937 633.42H848.994L849.785 629.136H834.296L838.811 603.925H844.249L840.591 624.489H841.942ZM868.163 603.925H884.08L883.19 608.934H873.732L872.842 614.009H881.938L881.081 618.985H871.952L871.063 624.159H880.949L880.059 629.136H863.714L868.163 603.925ZM878.708 596.807H884.41L883.454 602.244H877.753L878.708 596.807ZM870.601 596.807H876.303L875.347 602.244H869.646L870.601 596.807ZM896.723 629.136H890.231L894.68 603.925H901.172L899.36 614.108H904.27L906.083 603.925H912.575L908.126 629.136H901.634L903.413 619.084H898.503L896.723 629.136ZM927.789 603.167H935.105L930.985 620.073H925.877L927.789 603.167ZM923.537 629.136L924.691 622.512H931.348L930.194 629.136H923.537Z" fill="black"/>
</svg>
