<svg width="1316" height="785" viewBox="0 0 1316 785" fill="none" xmlns="http://www.w3.org/2000/svg">
<rect x="5" y="320.83" width="1228" height="478" transform="rotate(-15 5 320.83)" fill="#B4B4B4"/>
<path opacity="0.7" d="M147.988 735.151C146.847 735.457 145.855 735.611 145.012 735.615C144.168 735.619 143.458 735.498 142.881 735.253C142.294 735.01 141.827 734.657 141.48 734.194C141.124 733.734 140.862 733.193 140.695 732.571C140.523 731.928 140.477 731.318 140.555 730.742C140.624 730.168 140.853 729.634 141.243 729.14C141.623 728.65 142.18 728.2 142.916 727.792C143.651 727.384 144.589 727.027 145.729 726.722C146.87 726.416 147.862 726.261 148.705 726.258C149.536 726.246 150.244 726.362 150.832 726.605C151.416 726.837 151.888 727.188 152.248 727.659C152.594 728.122 152.852 728.669 153.021 729.302C153.196 729.955 153.25 730.568 153.181 731.142C153.102 731.719 152.868 732.254 152.478 732.748C152.088 733.241 151.53 733.691 150.806 734.096C150.068 734.494 149.128 734.845 147.988 735.151ZM151.851 729.599C151.726 729.132 151.525 728.758 151.25 728.476C150.972 728.184 150.606 727.982 150.154 727.87C149.691 727.76 149.13 727.738 148.47 727.804C147.809 727.87 147.033 728.022 146.142 728.261C145.229 728.506 144.472 728.77 143.87 729.053C143.255 729.329 142.781 729.634 142.448 729.968C142.113 730.291 141.903 730.647 141.818 731.037C141.731 731.416 141.747 731.828 141.866 732.274C141.988 732.73 142.187 733.099 142.463 733.381C142.738 733.663 143.109 733.864 143.574 733.983C144.027 734.095 144.584 734.124 145.247 734.068C145.908 734.003 146.684 733.85 147.575 733.611C148.457 733.375 149.199 733.121 149.804 732.847C150.396 732.567 150.865 732.263 151.211 731.937C151.554 731.601 151.779 731.24 151.888 730.856C151.985 730.474 151.973 730.055 151.851 729.599ZM142.886 725.256L140.927 717.946L142.094 717.633L142.886 720.588L149.915 718.705L150.29 720.105L143.261 721.988L144.052 724.943L142.886 725.256ZM140.108 714.888L138.374 708.418L146.57 706.222L146.945 707.621L139.916 709.505L140.899 713.175L147.929 711.292L148.304 712.691L140.108 714.888ZM141.556 702.687C141.96 702.579 142.325 702.425 142.65 702.227C142.974 702.029 143.239 701.792 143.442 701.515C143.643 701.228 143.78 700.908 143.852 700.555C143.914 700.205 143.889 699.823 143.778 699.408C143.57 698.63 143.134 698.125 142.471 697.891C141.798 697.66 140.923 697.689 139.844 697.978C139.409 698.095 139.016 698.245 138.665 698.428C138.311 698.6 138.023 698.811 137.8 699.059C137.568 699.311 137.414 699.607 137.339 699.95C137.264 700.292 137.286 700.686 137.406 701.132C137.508 701.516 137.674 701.844 137.902 702.116C138.118 702.38 138.379 702.588 138.686 702.739C138.983 702.893 139.307 702.984 139.659 703.012C140.001 703.043 140.343 703.012 140.685 702.92L141.556 702.687ZM137.517 705.219L137.155 703.866L138.523 703.5L138.515 703.469C138.01 703.326 137.546 703.067 137.123 702.691C136.687 702.308 136.382 701.79 136.207 701.137C136.084 700.68 136.04 700.226 136.074 699.772C136.108 699.318 136.248 698.886 136.494 698.476C136.729 698.068 137.091 697.699 137.58 697.368C138.059 697.04 138.687 696.771 139.465 696.563C140.212 696.363 140.89 696.281 141.5 696.318C142.099 696.357 142.625 696.494 143.077 696.729C143.526 696.953 143.902 697.258 144.205 697.643C144.495 698.021 144.704 698.449 144.832 698.925C144.915 699.237 144.955 699.548 144.949 699.861C144.952 700.16 144.921 700.441 144.858 700.702C144.782 700.956 144.683 701.188 144.561 701.398C144.44 701.609 144.297 701.78 144.132 701.913L144.141 701.944L148.262 700.84L148.637 702.24L137.517 705.219ZM140.385 692.405C140.82 692.289 141.116 692.065 141.272 691.734C141.417 691.406 141.427 691.009 141.302 690.542C141.233 690.283 141.114 690.026 140.946 689.771C140.777 689.516 140.559 689.303 140.29 689.13C140.012 688.96 139.682 688.849 139.301 688.795C138.906 688.734 138.455 688.772 137.947 688.908L137.761 688.958C138.041 689.838 138.298 690.547 138.531 691.085C138.764 691.623 139.015 692 139.284 692.217C139.593 692.456 139.96 692.519 140.385 692.405ZM140.183 688.292C140.765 688.392 141.256 688.627 141.655 688.998C142.055 689.369 142.338 689.865 142.504 690.487C142.727 691.317 142.689 692.027 142.392 692.618C142.092 693.198 141.574 693.587 140.837 693.784C140.381 693.906 139.956 693.915 139.561 693.81C139.166 693.704 138.808 693.467 138.486 693.097C138.142 692.723 137.834 692.216 137.563 691.578C137.278 690.932 136.997 690.151 136.719 689.237L136.299 689.349C135.604 689.536 135.147 689.819 134.926 690.201C134.706 690.582 134.675 691.068 134.834 691.659C134.923 691.991 135.044 692.258 135.199 692.461C135.34 692.657 135.496 692.804 135.667 692.903C135.838 693.001 136.015 693.059 136.197 693.077C136.38 693.095 136.55 693.088 136.709 693.057L137.071 694.41C136.723 694.481 136.381 694.489 136.044 694.435C135.705 694.37 135.386 694.239 135.089 694.041C134.791 693.843 134.529 693.569 134.302 693.218C134.064 692.871 133.879 692.448 133.745 691.951C133.617 691.474 133.559 691.028 133.57 690.614C133.582 690.2 133.676 689.825 133.852 689.488C134.018 689.155 134.274 688.864 134.619 688.616C134.95 688.361 135.38 688.162 135.909 688.02L139.548 687.045C139.797 686.978 139.952 686.893 140.013 686.787C140.071 686.672 140.066 686.49 140 686.241L139.925 685.961L141.06 685.657L141.177 686.092C141.341 686.704 141.342 687.165 141.18 687.475C141.009 687.787 140.668 688.029 140.158 688.199L140.183 688.292ZM132.036 684.763L131.094 681.248C130.872 680.419 130.881 679.728 131.122 679.174C131.349 678.613 131.785 678.246 132.427 678.074C132.925 677.941 133.361 677.952 133.736 678.107C134.108 678.252 134.406 678.511 134.628 678.885L134.659 678.876C134.606 678.346 134.702 677.876 134.948 677.465C135.191 677.045 135.566 676.766 136.074 676.63C136.541 676.505 136.953 676.489 137.312 676.582C137.657 676.667 137.962 676.83 138.226 677.071C138.488 677.3 138.706 677.598 138.881 677.962C139.057 678.326 139.203 678.726 139.32 679.161L140.232 682.567L132.036 684.763ZM132.789 683.095L135.029 682.495L134.491 680.488C134.444 680.312 134.377 680.147 134.291 679.992C134.203 679.827 134.095 679.694 133.968 679.595C133.839 679.485 133.692 679.413 133.527 679.38C133.35 679.338 133.152 679.347 132.934 679.405C132.55 679.508 132.313 679.7 132.221 679.98C132.119 680.263 132.118 680.591 132.218 680.964L132.789 683.095ZM136.164 682.19L138.746 681.499L138.187 679.415C138.048 678.896 137.844 678.506 137.574 678.245C137.291 677.977 136.906 677.908 136.418 678.038C135.941 678.166 135.653 678.416 135.552 678.787C135.452 679.159 135.476 679.624 135.626 680.184L136.164 682.19ZM128.066 669.947L127.674 668.485L135.871 666.289L136.241 667.673L129.772 669.407L129.813 669.562C129.98 669.562 130.185 669.58 130.427 669.615C130.636 669.648 130.907 669.703 131.239 669.781C131.557 669.851 131.946 669.952 132.404 670.085L137.287 671.577L137.679 673.039L129.483 675.235L129.112 673.851L135.582 672.117L135.54 671.962C135.311 671.934 135.051 671.898 134.761 671.854C134.516 671.809 134.227 671.747 133.895 671.669C133.553 671.594 133.176 671.495 132.765 671.372L128.066 669.947ZM126.892 665.567L124.934 658.257L126.1 657.945L126.892 660.9L133.922 659.016L134.297 660.416L127.267 662.299L128.059 665.254L126.892 665.567ZM125.909 648.834C125.57 648.936 125.266 649.067 124.998 649.228C124.73 649.389 124.511 649.586 124.34 649.821C124.167 650.045 124.059 650.307 124.018 650.608C123.963 650.9 123.986 651.238 124.089 651.622C124.278 652.327 124.654 652.815 125.215 653.087C125.774 653.348 126.438 653.421 127.207 653.303L126.003 648.809L125.909 648.834ZM128.347 646.797C129.104 646.761 129.775 646.981 130.358 647.458C130.942 647.935 131.356 648.63 131.6 649.543C131.775 650.196 131.824 650.794 131.747 651.337C131.657 651.872 131.464 652.352 131.166 652.776C130.869 653.2 130.482 653.56 130.005 653.854C129.528 654.148 128.984 654.378 128.372 654.541C127.771 654.703 127.183 654.771 126.61 654.747C126.037 654.723 125.51 654.603 125.03 654.387C124.55 654.171 124.137 653.854 123.792 653.435C123.436 653.019 123.176 652.505 123.012 651.894C122.843 651.261 122.807 650.693 122.905 650.189C123.001 649.674 123.196 649.222 123.492 648.831C123.777 648.444 124.141 648.124 124.585 647.872C125.026 647.609 125.505 647.409 126.024 647.27L126.739 647.078L128.335 653.034C128.755 652.9 129.127 652.733 129.451 652.535C129.763 652.33 130.017 652.095 130.213 651.831C130.406 651.557 130.53 651.252 130.584 650.915C130.638 650.578 130.61 650.202 130.499 649.788C130.402 649.425 130.28 649.135 130.133 648.919C129.975 648.705 129.815 648.543 129.652 648.431C129.486 648.309 129.32 648.231 129.156 648.197C128.991 648.164 128.841 648.143 128.706 648.134L128.347 646.797ZM125.656 642.04C126.265 641.91 126.806 641.832 127.277 641.806C127.745 641.769 128.153 641.799 128.501 641.894C128.835 641.983 129.114 642.152 129.337 642.404C129.557 642.645 129.724 642.978 129.838 643.403C129.897 643.621 129.924 643.786 129.921 643.898C129.927 643.963 129.925 644.019 129.916 644.066L128.64 644.407C128.65 644.36 128.652 644.304 128.645 644.239C128.649 644.127 128.623 643.968 128.567 643.76C128.478 643.428 128.238 643.237 127.847 643.186C127.445 643.139 126.838 643.196 126.026 643.358C125.574 643.456 125.069 643.564 124.512 643.68C123.951 643.786 123.424 643.894 122.931 644.003C122.353 644.125 121.781 644.251 121.215 644.38L119.728 638.828L127.924 636.631L128.299 638.031L121.269 639.915L122.044 642.808L125.656 642.04ZM121.06 632.726L120.48 630.564C120.233 629.641 120.293 628.869 120.66 628.249C121.014 627.621 121.585 627.201 122.373 626.99C123.192 626.77 123.928 626.84 124.579 627.199C125.218 627.55 125.661 628.187 125.908 629.11L126.863 632.671L118.666 634.867L118.291 633.468L121.06 632.726ZM122.226 632.413L125.321 631.584L124.788 629.593C124.71 629.303 124.603 629.07 124.467 628.896C124.319 628.713 124.155 628.579 123.976 628.494C123.785 628.401 123.589 628.353 123.388 628.351C123.174 628.342 122.964 628.365 122.757 628.421C122.321 628.537 121.998 628.763 121.788 629.097C121.574 629.421 121.543 629.863 121.693 630.422L122.226 632.413ZM113.452 615.406L111.718 608.937L119.914 606.74L120.29 608.14L113.26 610.024L114.243 613.694L121.273 611.811L121.648 613.21L113.452 615.406ZM118.318 599.973C118.654 601.228 118.531 602.283 117.949 603.139C117.365 603.985 116.393 604.589 115.035 604.953C113.677 605.317 112.537 605.273 111.615 604.82C110.681 604.359 110.048 603.511 109.717 602.278C109.381 601.023 109.505 599.973 110.09 599.127C110.662 598.274 111.626 597.665 112.985 597.302C114.353 596.935 115.505 596.982 116.44 597.443C117.361 597.896 117.987 598.739 118.318 599.973ZM110.806 601.986C111.026 602.805 111.472 603.33 112.145 603.561C112.808 603.794 113.642 603.776 114.647 603.507C115.653 603.237 116.391 602.84 116.861 602.314C117.329 601.777 117.451 601.094 117.229 600.265C117.001 599.415 116.554 598.884 115.886 598.674C115.216 598.454 114.378 598.478 113.372 598.748C112.367 599.017 111.635 599.419 111.178 599.953C110.711 600.489 110.587 601.167 110.806 601.986ZM116.754 594.947L112.143 594.099L108.517 596.988L108.125 595.526L110.021 594.018C110.214 593.866 110.413 593.718 110.619 593.574C110.812 593.422 111.006 593.276 111.201 593.135L110.918 592.077L107.45 593.006L107.075 591.607L110.543 590.677L110.26 589.62C110.009 589.598 109.763 589.569 109.52 589.534C109.267 589.502 109.014 589.47 108.761 589.438L106.4 589.087L106.016 587.656L110.48 588.327L114.146 585.211L114.542 586.689L112.655 588.294C112.447 588.472 112.243 588.644 112.043 588.809C111.839 588.963 111.633 589.124 111.422 589.292L111.709 590.365L115.271 589.41L115.646 590.81L112.084 591.764L112.368 592.822C112.671 592.874 112.967 592.923 113.257 592.967C113.547 593.012 113.831 593.058 114.111 593.105L116.371 593.516L116.754 594.947ZM107.25 579.197C106.911 579.299 106.607 579.43 106.339 579.591C106.071 579.752 105.852 579.95 105.681 580.184C105.508 580.408 105.4 580.671 105.358 580.971C105.303 581.263 105.327 581.601 105.43 581.985C105.619 582.69 105.994 583.178 106.556 583.45C107.115 583.712 107.779 583.784 108.548 583.667L107.343 579.172L107.25 579.197ZM109.688 577.16C110.445 577.124 111.116 577.344 111.699 577.822C112.282 578.299 112.696 578.993 112.941 579.906C113.116 580.559 113.165 581.157 113.088 581.7C112.998 582.235 112.805 582.715 112.507 583.139C112.21 583.563 111.822 583.923 111.346 584.217C110.869 584.512 110.325 584.741 109.713 584.905C109.112 585.066 108.524 585.134 107.951 585.11C107.378 585.086 106.851 584.966 106.371 584.75C105.891 584.534 105.478 584.217 105.133 583.798C104.777 583.382 104.517 582.869 104.353 582.257C104.183 581.624 104.148 581.056 104.246 580.552C104.342 580.037 104.537 579.585 104.833 579.195C105.118 578.807 105.482 578.487 105.926 578.235C106.366 577.972 106.846 577.772 107.364 577.633L108.08 577.441L109.676 583.398C110.095 583.263 110.468 583.097 110.792 582.899C111.104 582.693 111.358 582.458 111.554 582.194C111.747 581.92 111.871 581.615 111.925 581.278C111.979 580.941 111.951 580.566 111.84 580.151C111.742 579.788 111.62 579.498 111.474 579.282C111.316 579.069 111.156 578.906 110.993 578.794C110.827 578.672 110.661 578.594 110.497 578.56C110.332 578.527 110.182 578.506 110.047 578.498L109.688 577.16ZM106.997 572.403C107.606 572.273 108.147 572.195 108.617 572.169C109.085 572.132 109.493 572.162 109.841 572.258C110.176 572.346 110.455 572.515 110.678 572.767C110.898 573.008 111.065 573.341 111.179 573.766C111.237 573.984 111.265 574.149 111.262 574.261C111.268 574.326 111.266 574.382 111.257 574.429L109.981 574.77C109.991 574.723 109.993 574.667 109.986 574.602C109.99 574.49 109.963 574.331 109.908 574.123C109.819 573.792 109.579 573.6 109.187 573.55C108.786 573.502 108.179 573.559 107.366 573.721C106.915 573.82 106.41 573.927 105.853 574.043C105.292 574.149 104.765 574.257 104.272 574.367C103.694 574.488 103.122 574.614 102.556 574.743L101.068 569.191L109.265 566.995L109.64 568.394L102.61 570.278L103.385 573.171L106.997 572.403ZM105.732 563.08C106.167 562.963 106.463 562.739 106.619 562.409C106.764 562.081 106.775 561.684 106.65 561.217C106.58 560.958 106.461 560.701 106.293 560.446C106.125 560.191 105.906 559.977 105.638 559.805C105.359 559.635 105.029 559.523 104.648 559.47C104.254 559.409 103.803 559.446 103.295 559.582L103.108 559.632C103.388 560.513 103.645 561.222 103.878 561.76C104.111 562.297 104.362 562.674 104.631 562.891C104.94 563.131 105.307 563.194 105.732 563.08ZM105.53 558.967C106.112 559.066 106.603 559.301 107.003 559.672C107.402 560.043 107.685 560.539 107.852 561.162C108.074 561.991 108.036 562.701 107.739 563.292C107.439 563.873 106.921 564.261 106.185 564.459C105.729 564.581 105.303 564.589 104.908 564.484C104.513 564.379 104.155 564.141 103.834 563.772C103.489 563.397 103.181 562.891 102.91 562.252C102.626 561.606 102.344 560.826 102.066 559.911L101.646 560.024C100.951 560.21 100.494 560.494 100.274 560.875C100.054 561.256 100.023 561.742 100.181 562.333C100.27 562.665 100.392 562.933 100.546 563.136C100.687 563.331 100.844 563.478 101.014 563.577C101.185 563.676 101.362 563.734 101.545 563.752C101.727 563.769 101.898 563.763 102.056 563.731L102.419 565.084C102.071 565.155 101.729 565.164 101.392 565.109C101.052 565.045 100.734 564.914 100.436 564.715C100.139 564.517 99.8761 564.243 99.6489 563.893C99.4113 563.545 99.2259 563.123 99.0925 562.625C98.9647 562.148 98.9065 561.703 98.9177 561.288C98.929 560.874 99.0229 560.499 99.1995 560.163C99.3657 559.829 99.6212 559.539 99.966 559.291C100.298 559.035 100.728 558.836 101.257 558.695L104.896 557.72C105.145 557.653 105.299 557.567 105.36 557.462C105.418 557.346 105.414 557.164 105.347 556.915L105.272 556.635L106.407 556.331L106.524 556.767C106.688 557.378 106.689 557.839 106.528 558.149C106.356 558.462 106.015 558.703 105.505 558.873L105.53 558.967ZM101.665 552.507C102.275 552.377 102.815 552.299 103.286 552.273C103.754 552.236 104.162 552.266 104.51 552.361C104.845 552.449 105.124 552.619 105.347 552.871C105.567 553.112 105.734 553.445 105.848 553.87C105.906 554.088 105.934 554.253 105.93 554.365C105.937 554.43 105.935 554.486 105.925 554.533L104.65 554.874C104.66 554.827 104.661 554.771 104.655 554.706C104.658 554.594 104.632 554.435 104.577 554.227C104.488 553.895 104.248 553.704 103.856 553.653C103.454 553.606 102.847 553.663 102.035 553.825C101.584 553.923 101.079 554.031 100.521 554.147C99.9607 554.253 99.434 554.361 98.9411 554.47C98.3625 554.592 97.7905 554.718 97.225 554.847L95.7373 549.295L103.933 547.098L104.309 548.498L97.2788 550.382L98.0539 553.275L101.665 552.507ZM99.6588 530.336C99.9949 531.591 99.8721 532.646 99.2902 533.502C98.7056 534.348 97.7341 534.953 96.3759 535.317C95.0176 535.68 93.8777 535.636 92.9562 535.183C92.0215 534.722 91.3888 533.875 91.0582 532.641C90.7221 531.386 90.8463 530.336 91.431 529.49C92.0025 528.637 92.9673 528.029 94.3256 527.665C95.6942 527.298 96.8458 527.345 97.7805 527.806C98.7021 528.259 99.3282 529.102 99.6588 530.336ZM92.1469 532.349C92.3664 533.168 92.8127 533.693 93.4857 533.924C94.1484 534.158 94.9826 534.14 95.9883 533.87C96.994 533.601 97.732 533.203 98.2023 532.677C98.6697 532.14 98.7923 531.457 98.5701 530.628C98.3423 529.778 97.8946 529.248 97.2271 529.038C96.5569 528.817 95.7189 528.842 94.7131 529.111C93.7074 529.381 92.976 529.782 92.5189 530.316C92.0514 530.852 91.9274 531.53 92.1469 532.349ZM90.4676 519.736C90.2893 519.817 90.1207 519.935 89.9619 520.089C89.8003 520.232 89.6705 520.411 89.5725 520.626C89.4615 520.834 89.3926 521.075 89.366 521.348C89.3366 521.612 89.3635 521.899 89.4469 522.21C89.6608 523.009 90.1081 523.517 90.7887 523.734C91.4562 523.944 92.2669 523.922 93.2208 523.666C93.7185 523.533 94.1546 523.377 94.5291 523.199C94.9009 523.01 95.2031 522.79 95.4358 522.539C95.6658 522.277 95.8196 521.981 95.8974 521.649C95.9647 521.319 95.9401 520.937 95.8234 520.502C95.7261 520.139 95.5872 519.848 95.4064 519.63C95.2126 519.404 95.0053 519.232 94.7846 519.113C94.5611 518.984 94.3397 518.904 94.1205 518.874C93.8881 518.837 93.6796 518.826 93.495 518.842L93.1158 517.427C93.5887 517.367 94.0292 517.393 94.4373 517.506C94.8426 517.608 95.2113 517.782 95.5435 518.026C95.8757 518.271 96.1582 518.578 96.3909 518.949C96.6341 519.318 96.8181 519.735 96.9432 520.202C97.2765 521.446 97.1547 522.484 96.5777 523.317C95.9978 524.139 95.0302 524.737 93.6747 525.111C93.0215 525.286 92.4083 525.362 91.8351 525.337C91.2487 525.306 90.7258 525.179 90.2664 524.958C89.7939 524.729 89.3952 524.402 89.0704 523.978C88.7353 523.557 88.4857 523.04 88.3218 522.428C88.2107 522.014 88.1556 521.601 88.1565 521.189C88.147 520.78 88.2108 520.397 88.348 520.038C88.4824 519.668 88.6929 519.334 88.9795 519.035C89.2557 518.739 89.6225 518.49 90.08 518.29L90.4676 519.736ZM86.9086 516.345L84.9499 509.036L86.1164 508.723L86.9082 511.678L93.9379 509.794L94.3129 511.194L87.2832 513.078L88.075 516.033L86.9086 516.345ZM89.7384 503.391C90.1739 503.274 90.4695 503.051 90.6254 502.72C90.7709 502.392 90.7812 501.995 90.6561 501.528C90.5867 501.269 90.4678 501.012 90.2995 500.757C90.1311 500.502 89.9127 500.288 89.6443 500.116C89.3654 499.946 89.0354 499.834 88.6544 499.781C88.2602 499.72 87.8091 499.757 87.301 499.894L87.1144 499.944C87.3948 500.824 87.6515 501.533 87.8845 502.071C88.1174 502.609 88.3685 502.986 88.6378 503.203C88.9464 503.442 89.3133 503.505 89.7384 503.391ZM89.5364 499.278C90.1187 499.377 90.6096 499.613 91.009 499.983C91.4084 500.354 91.6915 500.851 91.8582 501.473C92.0804 502.302 92.0429 503.013 91.7456 503.603C91.4455 504.184 90.9274 504.573 90.1912 504.77C89.735 504.892 89.3094 504.901 88.9145 504.795C88.5196 504.69 88.1615 504.453 87.8402 504.083C87.4954 503.709 87.1875 503.202 86.9163 502.564C86.6321 501.918 86.3508 501.137 86.0724 500.223L85.6525 500.335C84.9578 500.521 84.5004 500.805 84.2803 501.186C84.0602 501.568 84.0293 502.054 84.1877 502.645C84.2766 502.977 84.3982 503.244 84.5527 503.447C84.6939 503.643 84.85 503.79 85.0209 503.888C85.1918 503.987 85.3686 504.045 85.5511 504.063C85.7337 504.081 85.9041 504.074 86.0624 504.043L86.425 505.396C86.0773 505.467 85.735 505.475 85.3982 505.421C85.0587 505.356 84.7401 505.225 84.4425 505.027C84.145 504.829 83.8826 504.555 83.6554 504.204C83.4178 503.857 83.2323 503.434 83.099 502.936C82.9712 502.459 82.9129 502.014 82.9242 501.6C82.9354 501.186 83.0294 500.81 83.206 500.474C83.3722 500.141 83.6277 499.85 83.9724 499.602C84.304 499.346 84.7342 499.148 85.263 499.006L88.9023 498.031C89.1511 497.964 89.3059 497.878 89.3666 497.773C89.4245 497.658 89.4202 497.475 89.3535 497.227L89.2785 496.947L90.4138 496.642L90.5305 497.078C90.6944 497.69 90.6957 498.151 90.5342 498.46C90.3624 498.773 90.0215 499.015 89.5114 499.185L89.5364 499.278ZM81.5774 496.449L79.6188 489.139L80.7852 488.827L81.577 491.782L88.6067 489.898L88.9817 491.298L81.952 493.181L82.7438 496.136L81.5774 496.449ZM81.0759 483.504L80.4966 481.342C80.2494 480.419 80.3093 479.648 80.6764 479.027C81.0303 478.399 81.6013 477.979 82.3893 477.768C83.2084 477.548 83.9438 477.618 84.5956 477.977C85.2342 478.328 85.6772 478.965 85.9244 479.888L86.8787 483.449L78.6826 485.646L78.3075 484.246L81.0759 483.504ZM82.2423 483.191L85.3372 482.362L84.8038 480.371C84.726 480.081 84.6193 479.849 84.4836 479.674C84.3347 479.491 84.171 479.358 83.9925 479.272C83.8009 479.179 83.6048 479.131 83.4043 479.13C83.1906 479.12 82.9801 479.143 82.7727 479.199C82.3372 479.315 82.0143 479.541 81.8038 479.875C81.5905 480.199 81.5589 480.641 81.7089 481.201L82.2423 483.191ZM77.1396 469.996C76.9613 470.077 76.7928 470.194 76.6339 470.348C76.4723 470.491 76.3425 470.671 76.2446 470.886C76.1335 471.093 76.0647 471.334 76.038 471.608C76.0086 471.871 76.0356 472.159 76.1189 472.47C76.3328 473.268 76.7801 473.776 77.4608 473.994C78.1283 474.204 78.9389 474.181 79.8928 473.925C80.3905 473.792 80.8266 473.636 81.2012 473.458C81.5729 473.27 81.8752 473.05 82.1079 472.798C82.3378 472.537 82.4917 472.24 82.5694 471.908C82.6368 471.579 82.6121 471.197 82.4954 470.761C82.3982 470.398 82.2592 470.108 82.0785 469.889C81.8846 469.663 81.6773 469.491 81.4566 469.372C81.2331 469.243 81.0118 469.164 80.7925 469.134C80.5602 469.096 80.3517 469.085 80.1671 469.101L79.7879 467.686C80.2607 467.626 80.7012 467.652 81.1093 467.765C81.5146 467.868 81.8834 468.041 82.2156 468.286C82.5477 468.53 82.8302 468.838 83.063 469.209C83.3061 469.577 83.4902 469.994 83.6152 470.461C83.9486 471.705 83.8268 472.744 83.2497 473.576C82.6699 474.398 81.7022 474.996 80.3468 475.371C79.6936 475.546 79.0803 475.621 78.5071 475.597C77.9207 475.565 77.3978 475.439 76.9385 475.217C76.4659 474.988 76.0673 474.662 75.7425 474.237C75.4073 473.816 75.1578 473.299 74.9939 472.688C74.8827 472.273 74.8276 471.86 74.8285 471.449C74.819 471.04 74.8829 470.656 75.02 470.297C75.1544 469.928 75.3649 469.593 75.6515 469.294C75.9277 468.998 76.2946 468.75 76.7521 468.549L77.1396 469.996ZM77.4205 459.908L77.9622 461.93L81.41 463.04L81.8268 464.595L78.0251 463.347C77.9802 463.926 77.7944 464.414 77.4678 464.813C77.1413 465.212 76.7084 465.483 76.1692 465.628C75.3812 465.839 74.6783 465.766 74.0604 465.409C73.4294 465.045 72.9902 464.401 72.743 463.479L71.7887 459.917L79.9848 457.721L80.3599 459.121L77.4205 459.908ZM76.254 460.221L73.3302 461.004L73.8636 462.995C73.9414 463.285 74.0495 463.523 74.188 463.708C74.3238 463.883 74.4823 464.018 74.6635 464.114C74.8317 464.202 75.0174 464.253 75.2207 464.265C75.4108 464.27 75.5992 464.247 75.7858 464.197C76.2006 464.086 76.5094 463.87 76.7123 463.549C76.9124 463.217 76.9375 462.771 76.7874 462.212L76.254 460.221ZM73.7449 443.702C74.1803 443.586 74.476 443.362 74.6319 443.031C74.7774 442.703 74.7876 442.306 74.6626 441.84C74.5932 441.58 74.4743 441.323 74.3059 441.068C74.1376 440.813 73.9192 440.6 73.6507 440.427C73.3719 440.257 73.0419 440.146 72.6609 440.092C72.2667 440.031 71.8155 440.069 71.3075 440.205L71.1209 440.255C71.4013 441.135 71.6579 441.845 71.8909 442.382C72.1239 442.92 72.375 443.297 72.6442 443.514C72.9529 443.753 73.3198 443.816 73.7449 443.702ZM73.5429 439.589C74.1252 439.689 74.6161 439.924 75.0155 440.295C75.4149 440.666 75.6979 441.162 75.8646 441.784C76.0869 442.614 76.0493 443.324 75.752 443.915C75.452 444.495 74.9338 444.884 74.1977 445.081C73.7415 445.203 73.3159 445.212 72.921 445.107C72.526 445.001 72.1679 444.764 71.8467 444.394C71.5019 444.02 71.1939 443.514 70.9228 442.875C70.6385 442.229 70.3572 441.449 70.0789 440.534L69.6589 440.647C68.9643 440.833 68.5069 441.116 68.2867 441.498C68.0666 441.879 68.0358 442.365 68.1941 442.956C68.283 443.288 68.4047 443.555 68.5591 443.758C68.7004 443.954 68.8565 444.101 69.0274 444.2C69.1983 444.298 69.375 444.357 69.5576 444.374C69.7402 444.392 69.9106 444.385 70.0689 444.354L70.4315 445.707C70.0837 445.778 69.7415 445.786 69.4047 445.732C69.0651 445.668 68.7466 445.536 68.449 445.338C68.1514 445.14 67.8891 444.866 67.6618 444.516C67.4243 444.168 67.2388 443.745 67.1054 443.248C66.9776 442.771 66.9194 442.325 66.9306 441.911C66.9419 441.497 67.0358 441.122 67.2124 440.785C67.3787 440.452 67.6342 440.161 67.9789 439.913C68.3105 439.658 68.7407 439.459 69.2694 439.317L72.9087 438.342C73.1576 438.276 73.3123 438.19 73.3731 438.084C73.431 437.969 73.4266 437.787 73.36 437.538L73.285 437.258L74.4203 436.954L74.537 437.389C74.7009 438.001 74.7021 438.462 74.5407 438.772C74.3689 439.085 74.028 439.326 73.5179 439.496L73.5429 439.589ZM68.5728 434.042L67.5727 430.31L64.1045 431.239L63.7294 429.839L71.9256 427.643L72.3006 429.043L68.7391 429.997L69.7392 433.73L73.3008 432.776L73.6758 434.175L65.4797 436.372L65.1046 434.972L68.5728 434.042ZM70.3373 420.907C70.6734 422.162 70.5506 423.217 69.9687 424.073C69.3841 424.919 68.4126 425.523 67.0544 425.887C65.6961 426.251 64.5562 426.207 63.6347 425.753C62.7 425.293 62.0674 424.445 61.7368 423.212C61.4006 421.957 61.5248 420.907 62.1095 420.061C62.681 419.208 63.6458 418.599 65.0041 418.235C66.3727 417.869 67.5244 417.916 68.4591 418.377C69.3806 418.83 70.0067 419.673 70.3373 420.907ZM62.8254 422.92C63.0449 423.739 63.4912 424.264 64.1642 424.495C64.8269 424.728 65.6611 424.71 66.6668 424.441C67.6726 424.171 68.4105 423.774 68.8808 423.248C69.3483 422.711 69.4709 422.028 69.2486 421.199C69.0208 420.349 68.5731 419.818 67.9056 419.608C67.2354 419.388 66.3974 419.412 65.3916 419.682C64.3859 419.951 63.6545 420.353 63.1974 420.887C62.7299 421.423 62.606 422.101 62.8254 422.92ZM63.2416 414.146L62.2415 410.414L58.7733 411.343L58.3982 409.943L66.5944 407.747L66.9694 409.147L63.4079 410.101L64.4081 413.834L67.9696 412.879L68.3446 414.279L60.1485 416.475L59.7734 415.076L63.2416 414.146ZM56.0952 401.348L55.7035 399.886L63.8996 397.69L64.2705 399.074L57.8007 400.808L57.8423 400.963C58.009 400.963 58.2137 400.981 58.4564 401.016C58.6653 401.048 58.9357 401.104 59.2677 401.182C59.5865 401.252 59.9749 401.353 60.4328 401.486L65.3165 402.978L65.7082 404.44L57.5121 406.636L57.1412 405.252L63.611 403.518L63.5693 403.363C63.3397 403.335 63.0801 403.299 62.7903 403.255C62.5448 403.209 62.256 403.148 61.924 403.07C61.5817 402.995 61.2051 402.896 60.7942 402.773L56.0952 401.348ZM54.9423 397.046L54.4506 395.21L57.6051 393.048C57.8214 392.901 58.0442 392.758 58.2736 392.619C58.4898 392.472 58.6947 392.345 58.8882 392.238C59.11 392.112 59.3228 391.994 59.5266 391.883L59.4891 391.743C59.2575 391.75 59.0141 391.754 58.759 391.756C58.5377 391.759 58.2981 391.757 58.0402 391.748C57.7691 391.732 57.5033 391.714 57.2426 391.695L53.4338 391.416L52.942 389.58L61.1382 387.384L61.4882 388.691L54.7851 390.487L54.8185 390.611C54.9927 390.598 55.1787 390.587 55.3764 390.578C55.5534 390.575 55.7657 390.58 56.0132 390.591C56.258 390.592 56.5277 390.603 56.8223 390.624L60.4714 390.93L60.8048 392.174L57.786 394.283C57.5442 394.459 57.3228 394.608 57.1217 394.728C56.9207 394.849 56.7427 394.952 56.588 395.038C56.4125 395.129 56.2459 395.213 56.0884 395.288L56.1217 395.413L62.8093 393.621L63.1385 394.849L54.9423 397.046ZM55.2449 384.302L54.2447 380.569L50.7765 381.499L50.4015 380.099L58.5976 377.903L58.9727 379.302L55.4111 380.257L56.4113 383.989L59.9728 383.035L60.3479 384.435L52.1517 386.631L51.7767 385.231L55.2449 384.302ZM55.807 367.488L56.1779 368.872L47.9817 371.068L47.6109 369.684L55.807 367.488ZM52.0086 375.023L51.7336 373.997C51.4974 373.116 51.5671 372.38 51.9425 371.791C52.3048 371.194 52.8799 370.789 53.6679 370.578C54.487 370.359 55.2183 370.413 55.8617 370.741C56.492 371.061 56.9252 371.661 57.1614 372.543L57.8073 374.953L49.6111 377.149L49.2403 375.765L52.0086 375.023ZM53.175 374.711L56.27 373.882L56.0366 373.011C55.9672 372.751 55.8673 372.545 55.7372 372.391C55.5938 372.229 55.4343 372.111 55.2586 372.036C55.0697 371.953 54.875 371.911 54.6745 371.909C54.4636 371.91 54.2545 371.938 54.0471 371.994C53.6117 372.11 53.2845 372.32 53.0657 372.623C52.8469 372.926 52.8055 373.332 52.9417 373.84L53.175 374.711ZM46.9455 367.201L46.4538 365.366L49.6083 363.204C49.8246 363.057 50.0474 362.914 50.2768 362.775C50.493 362.628 50.6979 362.501 50.8914 362.393C51.1132 362.267 51.326 362.149 51.5299 362.039L51.4923 361.899C51.2607 361.906 51.0173 361.91 50.7622 361.911C50.5409 361.915 50.3014 361.913 50.0434 361.904C49.7724 361.888 49.5065 361.87 49.2458 361.851L45.437 361.571L44.9453 359.736L53.1414 357.54L53.4915 358.846L46.7883 360.642L46.8217 360.767C46.9959 360.754 47.1819 360.743 47.3796 360.734C47.5566 360.731 47.7689 360.735 48.0165 360.747C48.2612 360.748 48.5309 360.759 48.8255 360.78L52.4746 361.086L52.808 362.33L49.7893 364.439C49.5475 364.615 49.326 364.763 49.125 364.884C48.9239 365.004 48.746 365.108 48.5912 365.193C48.4157 365.285 48.2491 365.368 48.0916 365.444L48.1249 365.568L54.8125 363.776L55.1417 365.005L46.9455 367.201ZM49.6711 352.925L49.1127 350.841L51.1968 350.282L51.7552 352.366L49.6711 352.925Z" fill="black"/>
<g filter="url(#filter0_d_98_264)">
<path d="M667.632 417.627L1192.45 0.582794L4.60028 318.867L667.632 417.627Z" fill="#3E3E3E"/>
</g>
<rect x="627.939" y="350.616" width="43" height="115" transform="rotate(-15 627.939 350.616)" fill="black"/>
<path d="M526.018 588.986C525.66 587.988 525.253 587.293 524.798 586.898C524.339 586.49 523.728 586.388 522.963 586.593C522.438 586.733 522.046 586.968 521.784 587.296C521.519 587.61 521.359 588.032 521.304 588.563C521.245 589.08 521.277 589.709 521.4 590.451C521.533 591.174 521.729 592.018 521.987 592.981C522.237 593.916 522.486 594.73 522.732 595.423C522.989 596.099 523.272 596.645 523.582 597.063C523.891 597.482 524.248 597.766 524.653 597.915C525.057 598.065 525.543 598.064 526.109 597.912C526.832 597.719 527.283 597.332 527.461 596.753C527.64 596.173 527.626 595.327 527.419 594.213L530.883 593.285C531.097 594.199 531.167 595.054 531.091 595.848C531.03 596.639 530.826 597.354 530.481 597.993C530.136 598.632 529.653 599.18 529.031 599.635C528.423 600.086 527.673 600.431 526.78 600.67C525.604 600.986 524.57 601.065 523.678 600.909C522.797 600.736 522.02 600.359 521.349 599.78C520.691 599.197 520.127 598.422 519.655 597.455C519.184 596.488 518.775 595.36 518.43 594.071C518.073 592.739 517.851 591.516 517.765 590.4C517.693 589.28 517.799 588.288 518.083 587.422C518.363 586.542 518.835 585.808 519.497 585.221C520.17 584.616 521.081 584.159 522.228 583.852C523.163 583.601 524.016 583.524 524.786 583.622C525.556 583.719 526.243 583.96 526.847 584.345C527.462 584.712 527.984 585.217 528.415 585.861C528.856 586.487 529.204 587.221 529.461 588.063L526.018 588.986ZM535.891 585.657L546.559 582.798L547.225 585.285L543.634 586.247L546.019 595.151L542.534 596.085L540.149 587.181L536.557 588.143L535.891 585.657ZM558.719 586.305C558.966 587.226 559.351 587.927 559.875 588.409C560.409 588.873 561.059 589.003 561.824 588.798C563.326 588.396 563.744 586.955 563.08 584.476C562.757 583.271 562.33 582.414 561.799 581.904C561.281 581.389 560.633 581.237 559.854 581.445C559.202 581.62 558.731 582.042 558.44 582.713C558.159 583.365 558.142 584.151 558.389 585.072L558.719 586.305ZM553.67 580.893L556.964 580.01L557.459 581.859L557.523 581.842C557.579 581.539 557.671 581.233 557.801 580.925C557.945 580.613 558.134 580.327 558.368 580.067C558.613 579.789 558.904 579.544 559.242 579.332C559.59 579.102 559.991 578.926 560.445 578.804C561.096 578.63 561.722 578.584 562.321 578.666C562.93 578.731 563.498 578.951 564.023 579.326C564.56 579.683 565.042 580.207 565.469 580.897C565.897 581.587 566.252 582.457 566.533 583.505C566.787 584.454 566.901 585.335 566.876 586.146C566.847 586.944 566.69 587.661 566.405 588.299C566.117 588.923 565.711 589.449 565.188 589.878C564.665 590.307 564.043 590.618 563.32 590.811C562.513 591.028 561.832 591.066 561.278 590.926C560.721 590.771 560.258 590.546 559.89 590.25L559.805 590.273L561.171 595.373L557.793 596.278L553.67 580.893ZM580.033 586.402C579.14 586.641 578.296 586.723 577.502 586.647C576.718 586.553 576.007 586.311 575.371 585.92C574.735 585.528 574.183 585 573.717 584.336C573.264 583.668 572.913 582.866 572.662 581.931C572.408 580.982 572.317 580.103 572.388 579.294C572.456 578.471 572.67 577.738 573.029 577.095C573.388 576.452 573.886 575.901 574.522 575.442C575.173 574.98 575.944 574.629 576.837 574.389C577.701 574.158 578.523 574.082 579.304 574.161C580.098 574.237 580.812 574.463 581.444 574.84C582.091 575.214 582.649 575.74 583.12 576.418C583.601 577.079 583.968 577.884 584.222 578.833C584.473 579.768 584.555 580.642 584.469 581.455C584.398 582.264 584.177 582.998 583.807 583.659C583.452 584.316 582.951 584.883 582.304 585.36C581.668 585.819 580.911 586.166 580.033 586.402ZM577.463 576.727C577.052 576.837 576.73 577.022 576.496 577.282C576.262 577.542 576.098 577.867 576.005 578.256C575.922 578.628 575.899 579.052 575.936 579.528C575.983 579.986 576.074 580.47 576.211 580.98C576.355 581.518 576.524 582.005 576.716 582.439C576.922 582.87 577.161 583.223 577.433 583.5C577.704 583.776 577.999 583.97 578.318 584.082C578.647 584.176 579.017 584.168 579.427 584.058C579.838 583.948 580.161 583.763 580.395 583.503C580.625 583.229 580.781 582.906 580.864 582.535C580.961 582.159 580.984 581.736 580.933 581.263C580.897 580.787 580.81 580.294 580.674 579.784C580.529 579.246 580.356 578.768 580.153 578.352C579.961 577.918 579.729 577.562 579.458 577.286C579.186 577.009 578.886 576.824 578.557 576.73C578.224 576.622 577.86 576.621 577.463 576.727ZM590.631 570.989L599.535 568.604L600.201 571.09L594.676 572.57L597.062 581.474L593.683 582.38L590.631 570.989ZM615.718 576.84C614.826 577.079 613.982 577.161 613.187 577.085C612.403 576.991 611.693 576.749 611.057 576.358C610.42 575.966 609.869 575.438 609.402 574.774C608.95 574.106 608.598 573.304 608.348 572.369C608.094 571.42 608.002 570.541 608.074 569.732C608.142 568.909 608.356 568.176 608.715 567.533C609.074 566.89 609.572 566.339 610.208 565.88C610.858 565.418 611.63 565.067 612.522 564.827C613.386 564.596 614.209 564.52 614.989 564.599C615.784 564.675 616.497 564.901 617.13 565.278C617.777 565.652 618.335 566.178 618.806 566.856C619.286 567.517 619.654 568.322 619.908 569.271C620.159 570.206 620.241 571.08 620.155 571.893C620.083 572.702 619.863 573.436 619.493 574.097C619.138 574.754 618.637 575.321 617.99 575.798C617.354 576.257 616.597 576.604 615.718 576.84ZM613.149 567.165C612.738 567.275 612.415 567.46 612.181 567.72C611.947 567.98 611.784 568.305 611.691 568.694C611.608 569.066 611.585 569.49 611.621 569.966C611.668 570.424 611.76 570.908 611.897 571.418C612.041 571.956 612.209 572.443 612.402 572.877C612.608 573.308 612.847 573.661 613.118 573.938C613.39 574.214 613.685 574.408 614.003 574.52C614.332 574.614 614.702 574.606 615.113 574.496C615.524 574.386 615.846 574.201 616.08 573.941C616.311 573.667 616.467 573.344 616.55 572.973C616.647 572.597 616.67 572.174 616.619 571.701C616.583 571.225 616.496 570.732 616.359 570.222C616.215 569.684 616.042 569.207 615.839 568.79C615.647 568.356 615.415 568 615.143 567.724C614.872 567.447 614.572 567.262 614.243 567.168C613.91 567.06 613.545 567.059 613.149 567.165ZM647.83 560.4L648.914 560.11L650.62 554.915L654.211 553.953L652.015 560.463L657.412 565.304L653.693 566.3L649.538 562.608L648.496 562.887L649.698 567.37L646.298 568.281L643.246 556.891L646.646 555.98L647.83 560.4ZM669.247 562.497C668.354 562.736 667.511 562.818 666.716 562.742C665.932 562.649 665.221 562.406 664.585 562.015C663.949 561.623 663.397 561.096 662.931 560.431C662.478 559.763 662.127 558.961 661.876 558.026C661.622 557.077 661.531 556.198 661.603 555.389C661.671 554.566 661.884 553.833 662.243 553.19C662.603 552.547 663.1 551.996 663.736 551.537C664.387 551.075 665.158 550.724 666.051 550.485C666.915 550.253 667.737 550.177 668.518 550.256C669.312 550.332 670.026 550.558 670.659 550.935C671.305 551.309 671.864 551.835 672.334 552.513C672.815 553.174 673.182 553.979 673.437 554.928C673.687 555.863 673.769 556.737 673.684 557.55C673.612 558.359 673.391 559.093 673.022 559.754C672.666 560.411 672.165 560.978 671.519 561.455C670.882 561.914 670.125 562.261 669.247 562.497ZM666.677 552.822C666.266 552.932 665.944 553.117 665.71 553.377C665.476 553.637 665.312 553.962 665.219 554.352C665.137 554.723 665.114 555.147 665.15 555.623C665.197 556.081 665.289 556.565 665.425 557.075C665.569 557.613 665.738 558.1 665.93 558.534C666.137 558.965 666.376 559.318 666.647 559.595C666.918 559.871 667.213 560.065 667.532 560.177C667.861 560.272 668.231 560.264 668.642 560.153C669.052 560.043 669.375 559.858 669.609 559.598C669.839 559.324 669.995 559.001 670.078 558.63C670.175 558.255 670.198 557.831 670.148 557.358C670.111 556.882 670.024 556.389 669.888 555.879C669.744 555.341 669.57 554.864 669.367 554.447C669.175 554.013 668.943 553.657 668.672 553.381C668.4 553.104 668.1 552.919 667.771 552.825C667.439 552.717 667.074 552.716 666.677 552.822ZM683.303 550.895L687.001 549.905L685.816 545.484L689.217 544.573L692.269 555.964L688.868 556.875L687.667 552.391L683.969 553.382L685.171 557.865L681.771 558.776L678.719 547.386L682.119 546.475L683.303 550.895ZM703.497 553.274C701.905 553.564 700.522 553.334 699.35 552.586C698.174 551.823 697.335 550.506 696.834 548.636C696.329 546.752 696.397 545.193 697.038 543.958C697.693 542.72 698.776 541.83 700.286 541.289L699.062 536.72L701.952 535.945L703.176 540.514C703.974 540.376 704.723 540.365 705.422 540.482C706.117 540.584 706.753 540.831 707.329 541.223C707.901 541.602 708.397 542.122 708.817 542.783C709.248 543.427 709.589 544.217 709.839 545.152C710.344 547.036 710.269 548.597 709.614 549.836C708.973 551.07 707.897 551.958 706.387 552.499L707.378 556.197L704.488 556.971L703.497 553.274ZM700.906 543.605C700.225 543.894 699.817 544.413 699.684 545.162C699.561 545.894 699.638 546.777 699.915 547.811C700.208 548.902 700.595 549.724 701.077 550.278C701.56 550.832 702.158 551.051 702.871 550.936L700.906 543.605ZM705.767 550.183C706.452 549.908 706.855 549.398 706.974 548.653C707.107 547.903 707.035 547.011 706.758 545.977C706.466 544.886 706.087 544.069 705.623 543.526C705.154 542.968 704.547 542.743 703.802 542.852L705.767 550.183ZM721.545 535.911L724.966 534.994L728.018 546.385L724.703 547.273L722.744 539.963L722.532 540.02C722.532 540.247 722.512 540.541 722.472 540.901C722.434 541.215 722.373 541.611 722.289 542.089C722.204 542.567 722.086 543.145 721.934 543.824L720.814 548.315L717.393 549.232L714.341 537.841L717.656 536.953L719.615 544.263L719.827 544.206C719.833 543.947 719.862 543.628 719.912 543.25C719.95 542.936 720.011 542.54 720.095 542.062C720.19 541.566 720.308 540.987 720.45 540.327L721.545 535.911ZM734.881 547.461L733.486 542.255L734.378 542.016C734.524 541.597 734.584 541.057 734.559 540.396C734.53 539.72 734.435 538.941 734.274 538.058C734.203 537.621 734.113 537.144 734.005 536.627C733.896 536.109 733.787 535.615 733.676 535.143C733.575 534.654 733.476 534.202 733.381 533.787C733.299 533.369 733.226 533.039 733.161 532.799L742.469 530.305L744.855 539.208L746.13 538.867L747.525 544.073L744.571 544.865L743.842 542.145L737.106 543.95L737.834 546.67L734.881 547.461ZM737.315 537.334C737.468 538.189 737.571 538.943 737.625 539.597C737.693 540.247 737.673 540.768 737.566 541.161L741.476 540.114L739.756 533.696L736.739 534.505C736.836 534.98 736.936 535.469 737.041 535.973C737.142 536.462 737.233 536.916 737.315 537.334ZM758.668 530.61C758.469 529.98 758.123 529.481 757.629 529.112C757.15 528.74 756.577 528.642 755.911 528.821C755.189 529.014 754.705 529.364 754.461 529.87C754.217 530.376 754.156 531.053 754.277 531.901L758.697 530.716L758.668 530.61ZM763.07 533.439C763.144 534.619 762.814 535.656 762.082 536.551C761.346 537.432 760.178 538.086 758.577 538.515C757.614 538.773 756.726 538.859 755.913 538.773C755.115 538.684 754.397 538.443 753.761 538.052C753.139 537.657 752.609 537.123 752.17 536.451C751.732 535.779 751.39 534.982 751.143 534.061C750.911 533.197 750.826 532.37 750.888 531.579C750.945 530.774 751.152 530.043 751.507 529.386C751.859 528.715 752.358 528.141 753.005 527.664C753.647 527.173 754.436 526.802 755.371 526.551C756.32 526.297 757.184 526.233 757.962 526.358C758.753 526.48 759.448 526.749 760.046 527.166C760.654 527.565 761.159 528.09 761.561 528.742C761.978 529.389 762.294 530.117 762.51 530.925L762.801 532.008L754.874 534.132C755.224 535.041 755.652 535.647 756.159 535.952C756.666 536.256 757.281 536.312 758.003 536.118C758.598 535.959 759.009 535.735 759.235 535.446C759.472 535.14 759.617 534.775 759.67 534.35L763.07 533.439ZM772.517 526.99L776.215 526L775.031 521.58L778.431 520.669L781.483 532.059L778.083 532.97L776.881 528.486L773.184 529.477L774.385 533.961L770.985 534.872L767.933 523.481L771.333 522.57L772.517 526.99ZM797.456 527.779L788.828 530.091L785.776 518.7L789.176 517.789L791.562 526.693L795.068 525.754L792.682 516.85L796.082 515.939L798.468 524.843L799.743 524.501L801.138 529.707L798.184 530.499L797.456 527.779ZM810.759 512.006L814.18 511.09L817.232 522.48L813.917 523.368L811.958 516.058L811.746 516.115C811.746 516.342 811.726 516.636 811.686 516.996C811.649 517.31 811.588 517.706 811.503 518.184C811.419 518.662 811.3 519.241 811.148 519.919L810.028 524.41L806.607 525.327L803.555 513.937L806.87 513.048L808.829 520.358L809.041 520.301C809.048 520.042 809.076 519.723 809.127 519.345C809.164 519.031 809.225 518.635 809.309 518.157C809.404 517.661 809.523 517.083 809.664 516.422L810.759 512.006ZM826.759 516.328C826.873 516.753 827.088 517.045 827.403 517.203C827.719 517.362 828.082 517.386 828.493 517.276C828.805 517.192 829.085 517.049 829.335 516.845C829.594 516.624 829.798 516.364 829.946 516.067C830.09 515.755 830.18 515.412 830.217 515.038C830.249 514.649 830.207 514.235 830.089 513.796L830.066 513.711C829.189 514.007 828.515 514.241 828.045 514.412C827.589 514.58 827.261 514.774 827.062 514.995C826.877 515.211 826.762 515.432 826.716 515.657C826.684 515.878 826.698 516.102 826.759 516.328ZM831.231 517.294C831.044 517.784 830.71 518.268 830.231 518.746C829.752 519.224 829.101 519.573 828.279 519.793C827.769 519.93 827.257 519.999 826.741 520C826.243 520.012 825.774 519.933 825.333 519.762C824.907 519.588 824.529 519.31 824.198 518.928C823.864 518.531 823.608 518 823.43 517.334C823.251 516.668 823.245 516.048 823.409 515.472C823.574 514.897 823.902 514.391 824.392 513.956C824.644 513.706 824.92 513.488 825.219 513.302C825.518 513.115 825.866 512.939 826.262 512.772C826.653 512.591 827.108 512.416 827.624 512.247C828.155 512.075 828.778 511.878 829.493 511.656L829.362 511.167C829.031 509.934 828.3 509.47 827.166 509.774C826.614 509.922 826.232 510.168 826.021 510.513C825.81 510.858 825.747 511.247 825.832 511.68L822.602 512.545C822.482 511.985 822.475 511.448 822.58 510.934C822.7 510.416 822.928 509.937 823.266 509.498C823.6 509.044 824.035 508.654 824.57 508.328C825.115 507.985 825.757 507.714 826.493 507.517C827.272 507.308 827.988 507.2 828.638 507.193C829.3 507.167 829.881 507.27 830.383 507.5C830.899 507.726 831.338 508.086 831.698 508.582C832.069 509.06 832.361 509.695 832.574 510.488L833.712 514.739C833.769 514.951 833.854 515.096 833.965 515.172C834.073 515.234 834.24 515.235 834.467 515.174L835.019 515.026L835.691 517.534L833.97 517.995C833.361 518.158 832.839 518.222 832.404 518.187C831.98 518.133 831.61 517.83 831.295 517.277L831.231 517.294ZM845.041 509.107C845.235 510.057 845.351 510.914 845.388 511.678C845.437 512.425 845.376 513.078 845.208 513.64C845.036 514.187 844.743 514.653 844.33 515.037C843.927 515.403 843.378 515.679 842.684 515.865C842.514 515.91 842.363 515.943 842.232 515.963C842.101 515.983 841.982 515.992 841.875 515.991C841.754 515.993 841.647 515.991 841.555 515.985L840.792 513.138C840.842 513.155 840.897 513.163 840.957 513.162C841.078 513.16 841.217 513.138 841.373 513.096C841.84 512.971 842.112 512.655 842.189 512.148C842.28 511.638 842.215 510.858 841.995 509.809C841.89 509.305 841.763 508.717 841.613 508.044C841.477 507.366 841.344 506.726 841.213 506.124C841.055 505.422 840.893 504.706 840.728 503.976L849.696 501.573L852.748 512.963L849.348 513.874L846.962 504.97L844.306 505.682C844.429 506.256 844.556 506.845 844.688 507.448C844.819 508.05 844.937 508.603 845.041 509.107ZM862.066 502.039L864.51 501.385C865.941 501.001 867.121 501.072 868.052 501.597C868.978 502.108 869.595 502.937 869.903 504.085C870.062 504.68 870.116 505.25 870.065 505.795C870.01 506.326 869.846 506.818 869.572 507.271C869.295 507.71 868.907 508.102 868.407 508.449C867.922 508.791 867.325 509.057 866.617 509.247L860.773 510.813L857.721 499.423L861.121 498.512L862.066 502.039ZM862.681 504.334L863.558 507.607L865.322 507.134C865.917 506.975 866.289 506.693 866.439 506.288C866.599 505.866 866.62 505.435 866.503 504.996C866.381 504.542 866.153 504.201 865.818 503.972C865.484 503.743 865.026 503.706 864.445 503.862L862.681 504.334ZM879.574 498.305L883.272 497.314L882.088 492.894L885.488 491.983L888.54 503.373L885.14 504.284L883.938 499.8L880.241 500.791L881.442 505.275L878.042 506.186L874.99 494.796L878.39 493.885L879.574 498.305ZM901.204 500.344C900.311 500.583 899.468 500.665 898.673 500.589C897.889 500.496 897.178 500.253 896.542 499.862C895.906 499.471 895.354 498.943 894.888 498.278C894.435 497.61 894.084 496.808 893.833 495.873C893.579 494.924 893.488 494.045 893.56 493.236C893.627 492.413 893.841 491.68 894.2 491.038C894.559 490.395 895.057 489.844 895.693 489.385C896.344 488.922 897.115 488.571 898.008 488.332C898.872 488.1 899.694 488.024 900.475 488.104C901.269 488.179 901.983 488.406 902.615 488.783C903.262 489.156 903.821 489.682 904.291 490.361C904.772 491.022 905.139 491.827 905.394 492.776C905.644 493.711 905.726 494.585 905.64 495.397C905.569 496.206 905.348 496.941 904.978 497.602C904.623 498.259 904.122 498.826 903.475 499.303C902.839 499.762 902.082 500.109 901.204 500.344ZM898.634 490.669C898.223 490.78 897.901 490.965 897.667 491.225C897.433 491.485 897.269 491.81 897.176 492.199C897.094 492.57 897.07 492.994 897.107 493.47C897.154 493.928 897.246 494.412 897.382 494.922C897.526 495.461 897.695 495.947 897.887 496.381C898.093 496.812 898.332 497.166 898.604 497.442C898.875 497.719 899.17 497.913 899.489 498.025C899.818 498.119 900.188 498.111 900.599 498.001C901.009 497.891 901.332 497.706 901.566 497.446C901.796 497.171 901.952 496.848 902.035 496.477C902.132 496.102 902.155 495.678 902.104 495.206C902.068 494.73 901.981 494.237 901.845 493.727C901.7 493.188 901.527 492.711 901.324 492.295C901.132 491.86 900.9 491.505 900.629 491.228C900.357 490.952 900.057 490.766 899.728 490.672C899.395 490.564 899.031 490.563 898.634 490.669ZM912.535 478.996L916.445 477.948L918.839 489.264L916.098 489.999L912.535 478.996ZM917.064 495.73L916.039 491.905L919.864 490.88L920.889 494.705L917.064 495.73Z" fill="black"/>
<path d="M538.429 556.809L536.633 557.29L535.281 541.813L544.747 539.276L546.118 554.749L544.322 555.23L543.089 541.356L537.197 542.935L538.429 556.809ZM558.04 551.823C557.319 552.017 556.662 552.089 556.069 552.041C555.49 551.989 554.971 551.831 554.514 551.567C554.07 551.3 553.692 550.946 553.38 550.505C553.078 550.047 552.846 549.516 552.684 548.91C552.463 548.086 552.35 547.254 552.346 546.413C552.338 545.559 552.47 544.765 552.742 544.029C553.015 543.293 553.436 542.649 554.005 542.096C554.571 541.53 555.318 541.123 556.245 540.875C556.967 540.682 557.617 540.611 558.197 540.663C558.79 540.711 559.315 540.867 559.772 541.131C560.229 541.395 560.609 541.756 560.911 542.213C561.222 542.654 561.459 543.177 561.621 543.783C561.846 544.62 561.955 545.467 561.95 546.324C561.955 547.165 561.821 547.953 561.549 548.689C561.289 549.421 560.868 550.065 560.286 550.621C559.716 551.174 558.968 551.575 558.04 551.823ZM557.736 550.456C558.406 550.276 558.911 549.947 559.252 549.469C559.607 548.988 559.848 548.447 559.977 547.847C560.106 547.246 560.146 546.621 560.096 545.972C560.046 545.323 559.954 544.747 559.819 544.245C559.612 543.472 559.242 542.888 558.708 542.493C558.171 542.084 557.451 542.001 556.55 542.243C555.88 542.422 555.368 542.753 555.014 543.234C554.673 543.712 554.438 544.251 554.309 544.852C554.18 545.452 554.14 546.077 554.19 546.726C554.253 547.372 554.351 547.946 554.486 548.448C554.589 548.835 554.731 549.183 554.911 549.494C555.087 549.792 555.311 550.035 555.583 550.225C555.851 550.402 556.165 550.518 556.525 550.573C556.882 550.615 557.285 550.576 557.736 550.456ZM575.921 539.144C575.859 538.912 575.758 538.69 575.619 538.479C575.492 538.265 575.314 538.091 575.086 537.959C574.867 537.811 574.593 537.719 574.266 537.682C573.952 537.642 573.582 537.679 573.157 537.793C572.462 537.979 571.927 538.302 571.553 538.761C571.192 539.217 570.943 539.732 570.808 540.307C570.668 540.868 570.618 541.455 570.658 542.065C570.706 542.66 570.793 543.189 570.917 543.652C571.162 544.567 571.557 545.241 572.101 545.675C572.645 546.109 573.368 546.205 574.27 545.963C575.029 545.76 575.588 545.396 575.944 544.873C576.31 544.333 576.46 543.734 576.394 543.075L578.172 542.599C578.235 543.092 578.209 543.589 578.095 544.089C577.977 544.576 577.77 545.039 577.473 545.478C577.173 545.903 576.778 546.285 576.289 546.623C575.8 546.961 575.221 547.22 574.551 547.399C573.83 547.593 573.177 547.657 572.594 547.592C572.007 547.515 571.49 547.336 571.042 547.056C570.591 546.763 570.206 546.383 569.888 545.916C569.579 545.433 569.34 544.875 569.171 544.244C568.964 543.472 568.855 542.679 568.845 541.868C568.847 541.053 568.98 540.286 569.243 539.566C569.505 538.847 569.928 538.209 570.511 537.653C571.09 537.084 571.862 536.67 572.828 536.411C573.485 536.235 574.081 536.165 574.615 536.201C575.149 536.238 575.617 536.361 576.018 536.571C576.432 536.777 576.772 537.066 577.037 537.436C577.299 537.794 577.487 538.213 577.601 538.693L575.921 539.144ZM588.14 538.872C588.15 539.683 588.128 540.4 588.074 541.022C588.029 541.628 587.92 542.147 587.746 542.58C587.585 543.01 587.349 543.363 587.036 543.64C586.733 543.9 586.331 544.098 585.828 544.233C585.584 544.298 585.392 544.329 585.253 544.325C585.172 544.333 585.102 544.331 585.044 544.319L584.948 542.646C584.981 542.665 585.024 542.674 585.079 542.673C585.189 542.672 585.302 542.655 585.418 542.624C585.65 542.562 585.829 542.459 585.956 542.314C586.093 542.153 586.196 541.946 586.266 541.693C586.346 541.423 586.397 541.099 586.419 540.72C586.439 540.328 586.447 539.871 586.445 539.347C586.438 538.755 586.427 538.095 586.412 537.368C586.396 536.64 586.378 535.955 586.358 535.312C586.335 534.559 586.321 533.81 586.315 533.066L593.134 531.239L593.873 541.953L592.115 542.424L591.475 533.237L588.056 534.153L588.14 538.872ZM608.508 531.613C608.417 530.602 608.099 529.88 607.555 529.446C607.007 528.999 606.308 528.889 605.458 529.117C604.93 529.259 604.495 529.465 604.154 529.736C603.812 530.007 603.538 530.322 603.33 530.681C603.136 531.037 602.998 531.426 602.918 531.847C602.851 532.266 602.827 532.693 602.848 533.129L608.508 531.613ZM610.442 534.656C610.422 535.614 610.11 536.457 609.504 537.185C608.911 537.91 608.036 538.427 606.876 538.738C606.117 538.941 605.437 539.006 604.837 538.932C604.238 538.858 603.714 538.681 603.266 538.401C602.818 538.12 602.442 537.745 602.136 537.275C601.844 536.801 601.616 536.262 601.454 535.656C601.247 534.883 601.143 534.083 601.142 533.255C601.141 532.427 601.278 531.652 601.554 530.929C601.826 530.194 602.254 529.548 602.836 528.991C603.428 528.419 604.201 528.005 605.154 527.749C605.965 527.532 606.689 527.503 607.326 527.664C607.959 527.812 608.497 528.096 608.941 528.515C609.385 528.935 609.727 529.464 609.967 530.104C610.204 530.73 610.33 531.407 610.346 532.135L610.363 532.586L603.041 534.548C603.056 534.654 603.077 534.759 603.105 534.862C603.129 534.952 603.155 535.049 603.182 535.152C603.69 537.045 604.832 537.753 606.609 537.277C607.253 537.105 607.745 536.828 608.085 536.447C608.434 536.05 608.621 535.613 608.645 535.137L610.442 534.656ZM633.837 520.333L641.681 518.231L642.612 528.893L640.854 529.364L640.06 520.218L635.733 521.378L636.527 530.524L634.769 530.995L633.837 520.333ZM651.902 521.476C651.942 521.935 652.038 522.371 652.191 522.786C652.34 523.188 652.556 523.53 652.839 523.813C653.118 524.084 653.459 524.275 653.862 524.388C654.278 524.497 654.763 524.478 655.317 524.33C655.948 524.16 656.438 523.85 656.786 523.398C657.143 522.929 657.388 522.401 657.521 521.813C657.663 521.209 657.71 520.589 657.664 519.953C657.631 519.313 657.543 518.729 657.402 518.201C657.181 517.377 656.81 516.765 656.289 516.367C655.765 515.955 655.09 515.86 654.266 516.08C653.738 516.222 653.307 516.441 652.972 516.738C652.637 517.034 652.376 517.374 652.189 517.755C652.001 518.137 651.875 518.543 651.811 518.974C651.76 519.402 651.754 519.818 651.794 520.221L651.902 521.476ZM652.697 530.084L650.958 530.55L649.691 516.085L651.372 515.634L651.536 517.33L651.575 517.319C651.677 517.03 651.801 516.748 651.949 516.474C652.106 516.183 652.297 515.918 652.522 515.678C652.745 515.425 653.017 515.207 653.341 515.024C653.661 514.828 654.034 514.673 654.459 514.559C655.592 514.255 656.581 514.39 657.425 514.965C658.269 515.539 658.864 516.47 659.209 517.758C659.426 518.57 659.531 519.398 659.522 520.242C659.51 521.073 659.368 521.857 659.096 522.592C658.82 523.315 658.41 523.949 657.867 524.495C657.332 525.025 656.653 525.4 655.829 525.621C655.378 525.742 654.973 525.802 654.614 525.802C654.268 525.798 653.952 525.751 653.666 525.662C653.379 525.573 653.119 525.45 652.883 525.292C652.66 525.131 652.454 524.952 652.263 524.754L652.224 524.765L652.697 530.084ZM671.586 521.399C670.864 521.592 670.207 521.665 669.615 521.617C669.035 521.565 668.516 521.407 668.059 521.143C667.615 520.876 667.237 520.521 666.926 520.08C666.624 519.623 666.391 519.091 666.229 518.486C666.008 517.662 665.896 516.829 665.891 515.988C665.883 515.135 666.016 514.34 666.288 513.605C666.56 512.869 666.981 512.225 667.551 511.672C668.117 511.106 668.864 510.699 669.791 510.45C670.512 510.257 671.163 510.186 671.742 510.238C672.335 510.286 672.86 510.443 673.317 510.707C673.774 510.97 674.154 511.331 674.456 511.789C674.768 512.23 675.004 512.753 675.167 513.358C675.391 514.195 675.501 515.043 675.496 515.9C675.5 516.741 675.366 517.529 675.094 518.264C674.835 518.996 674.414 519.641 673.831 520.197C673.261 520.75 672.513 521.151 671.586 521.399ZM671.281 520.031C671.951 519.852 672.456 519.523 672.798 519.045C673.152 518.564 673.393 518.023 673.522 517.422C673.651 516.822 673.691 516.197 673.641 515.548C673.592 514.898 673.499 514.323 673.365 513.82C673.158 513.048 672.787 512.464 672.253 512.068C671.716 511.66 670.997 511.577 670.095 511.818C669.426 511.998 668.914 512.328 668.559 512.81C668.218 513.288 667.983 513.827 667.854 514.427C667.725 515.028 667.686 515.653 667.735 516.302C667.798 516.948 667.896 517.522 668.031 518.024C668.135 518.41 668.276 518.759 668.456 519.07C668.633 519.367 668.857 519.611 669.128 519.801C669.396 519.977 669.71 520.093 670.07 520.149C670.427 520.191 670.831 520.152 671.281 520.031ZM682.384 507.325L684.142 506.854L684.395 509.809C684.455 510.497 684.658 511.022 685.004 511.385C685.359 511.731 685.91 511.805 686.657 511.604C687.211 511.456 687.687 511.273 688.084 511.057C688.478 510.827 688.732 510.669 688.847 510.583L688.431 505.704L690.189 505.233L691.12 515.896L689.362 516.367L688.984 512.099C688.895 512.178 688.679 512.326 688.337 512.542C687.991 512.745 687.509 512.929 686.891 513.095C686.221 513.274 685.629 513.329 685.113 513.261C684.611 513.188 684.179 513.021 683.819 512.758C683.468 512.48 683.192 512.119 682.991 511.676C682.802 511.229 682.682 510.73 682.631 510.178L682.384 507.325ZM698.064 503.123L707.124 500.696L707.242 502.217L703.571 503.2L704.23 512.383L702.472 512.854L701.813 503.671L698.181 504.645L698.064 503.123ZM722.053 501.188C721.962 500.178 721.644 499.455 721.1 499.021C720.552 498.574 719.853 498.465 719.003 498.693C718.475 498.834 718.041 499.04 717.699 499.311C717.358 499.582 717.083 499.897 716.876 500.257C716.681 500.612 716.544 501.001 716.464 501.423C716.396 501.841 716.373 502.269 716.393 502.705L722.053 501.188ZM723.987 504.232C723.967 505.189 723.655 506.032 723.049 506.76C722.457 507.485 721.581 508.003 720.422 508.313C719.662 508.517 718.982 508.582 718.383 508.508C717.783 508.434 717.259 508.257 716.812 507.976C716.364 507.696 715.987 507.321 715.682 506.85C715.389 506.377 715.162 505.837 714.999 505.232C714.792 504.459 714.688 503.659 714.687 502.831C714.686 502.003 714.824 501.228 715.099 500.505C715.372 499.769 715.799 499.123 716.382 498.567C716.974 497.994 717.746 497.58 718.699 497.325C719.51 497.107 720.234 497.079 720.871 497.24C721.504 497.388 722.043 497.671 722.486 498.091C722.93 498.51 723.272 499.04 723.512 499.679C723.749 500.306 723.876 500.983 723.891 501.711L723.908 502.161L716.587 504.123C716.601 504.23 716.623 504.334 716.65 504.438C716.674 504.528 716.7 504.624 716.728 504.727C717.235 506.621 718.377 507.329 720.155 506.853C720.799 506.68 721.29 506.404 721.63 506.023C721.979 505.625 722.166 505.189 722.19 504.713L723.987 504.232ZM733.224 498.319L737.764 497.103L737.363 492.593L739.121 492.122L740.053 502.784L738.295 503.255L737.882 498.624L733.342 499.841L733.755 504.472L731.997 504.943L731.065 494.28L732.823 493.809L733.224 498.319ZM753.661 488.226L755.439 487.75L756.389 498.407L754.709 498.857L753.982 490.583L753.828 490.625C753.771 490.875 753.694 491.157 753.6 491.473C753.52 491.742 753.412 492.061 753.276 492.429C753.153 492.793 752.996 493.187 752.806 493.611L749.956 500.131L748.179 500.607L747.228 489.95L748.909 489.499L749.64 497.793L749.814 497.746C749.871 497.496 749.948 497.213 750.043 496.898C750.122 496.628 750.228 496.303 750.361 495.922C750.506 495.538 750.677 495.12 750.873 494.667L753.661 488.226ZM770.067 490.829L767.981 491.388L765.887 495.862L763.878 496.4L766.239 491.378C765.661 491.284 765.177 491.048 764.786 490.67C764.395 490.292 764.123 489.819 763.971 489.252C763.84 488.763 763.808 488.282 763.874 487.808C763.95 487.319 764.133 486.869 764.424 486.46C764.711 486.038 765.114 485.661 765.632 485.329C766.147 484.984 766.785 484.71 767.545 484.506L771.196 483.528L772.127 494.19L770.408 494.651L770.067 490.829ZM769.949 489.307L769.614 485.504L767.875 485.97C767.373 486.105 766.963 486.277 766.646 486.486C766.339 486.679 766.102 486.901 765.935 487.153C765.777 487.388 765.686 487.64 765.661 487.909C765.637 488.178 765.661 488.448 765.733 488.718C765.861 489.195 766.138 489.535 766.565 489.738C766.992 489.941 767.541 489.952 768.21 489.773L769.949 489.307ZM803.011 478.295C802.949 478.063 802.849 477.841 802.709 477.63C802.583 477.416 802.405 477.243 802.177 477.111C801.957 476.962 801.684 476.87 801.357 476.833C801.042 476.793 800.673 476.83 800.248 476.944C799.552 477.13 799.018 477.453 798.644 477.912C798.283 478.368 798.034 478.883 797.898 479.458C797.759 480.02 797.709 480.606 797.748 481.217C797.797 481.811 797.884 482.34 798.008 482.803C798.253 483.718 798.648 484.392 799.192 484.826C799.736 485.26 800.459 485.356 801.36 485.115C802.12 484.911 802.678 484.547 803.035 484.024C803.401 483.484 803.551 482.885 803.485 482.226L805.262 481.75C805.326 482.244 805.3 482.741 805.186 483.241C805.068 483.728 804.86 484.19 804.564 484.629C804.264 485.054 803.869 485.436 803.38 485.774C802.891 486.112 802.311 486.371 801.642 486.551C800.92 486.744 800.268 486.808 799.685 486.744C799.098 486.666 798.581 486.487 798.133 486.207C797.682 485.914 797.297 485.534 796.979 485.067C796.67 484.584 796.431 484.027 796.262 483.396C796.055 482.623 795.946 481.831 795.935 481.019C795.938 480.204 796.071 479.437 796.333 478.718C796.596 477.998 797.019 477.361 797.601 476.804C798.18 476.235 798.953 475.821 799.919 475.562C800.576 475.386 801.171 475.316 801.705 475.353C802.24 475.389 802.708 475.512 803.109 475.722C803.523 475.928 803.863 476.217 804.128 476.588C804.389 476.946 804.577 477.364 804.692 477.844L803.011 478.295ZM817.458 475.749L818.81 475.387C818.883 475.091 818.954 474.789 819.023 474.481C819.092 474.172 819.177 473.846 819.278 473.501L820.186 470.401L821.983 469.919L820.248 475.809L823.127 480.524L821.35 481.001L819.803 478.475C819.468 477.944 819.182 477.42 818.947 476.903L817.576 477.27L817.988 481.901L816.211 482.378L815.798 477.747L814.465 478.104C814.396 478.412 814.317 478.709 814.228 478.996C814.139 479.282 814.05 479.568 813.961 479.854L812.849 483.278L810.976 483.78L812.996 477.566L810.431 473.015L812.15 472.554L813.506 474.986C813.642 475.239 813.781 475.499 813.921 475.765C814.062 476.031 814.197 476.305 814.328 476.588L815.68 476.225L815.28 471.715L817.057 471.239L817.458 475.749ZM835.599 470.764C835.507 469.753 835.189 469.031 834.645 468.597C834.098 468.15 833.399 468.041 832.549 468.268C832.021 468.41 831.586 468.616 831.244 468.887C830.903 469.158 830.629 469.473 830.421 469.832C830.227 470.188 830.089 470.577 830.009 470.999C829.942 471.417 829.918 471.844 829.938 472.281L835.599 470.764ZM837.532 473.807C837.513 474.765 837.2 475.608 836.595 476.336C836.002 477.061 835.126 477.578 833.967 477.889C833.207 478.093 832.528 478.157 831.928 478.083C831.328 478.009 830.805 477.832 830.357 477.552C829.909 477.272 829.532 476.896 829.227 476.426C828.934 475.952 828.707 475.413 828.545 474.807C828.338 474.035 828.234 473.234 828.233 472.406C828.232 471.578 828.369 470.803 828.645 470.08C828.917 469.345 829.344 468.699 829.927 468.143C830.519 467.57 831.291 467.156 832.244 466.9C833.056 466.683 833.78 466.655 834.416 466.815C835.05 466.963 835.588 467.247 836.032 467.666C836.475 468.086 836.817 468.615 837.058 469.255C837.295 469.882 837.421 470.559 837.436 471.286L837.454 471.737L830.132 473.699C830.147 473.805 830.168 473.91 830.196 474.013C830.22 474.103 830.246 474.2 830.273 474.303C830.78 476.196 831.923 476.905 833.7 476.428C834.344 476.256 834.836 475.979 835.175 475.598C835.525 475.201 835.711 474.764 835.736 474.289L837.532 473.807ZM844.592 463.861L846.349 463.39L846.603 466.345C846.663 467.033 846.866 467.559 847.212 467.921C847.567 468.268 848.118 468.341 848.865 468.141C849.419 467.993 849.894 467.81 850.292 467.593C850.686 467.363 850.94 467.205 851.055 467.119L850.638 462.241L852.396 461.77L853.328 472.432L851.57 472.903L851.192 468.636C851.103 468.715 850.887 468.862 850.545 469.078C850.199 469.281 849.717 469.466 849.098 469.631C848.429 469.811 847.836 469.866 847.321 469.797C846.818 469.725 846.387 469.557 846.027 469.295C845.676 469.016 845.4 468.655 845.198 468.212C845.01 467.766 844.89 467.267 844.838 466.715L844.592 463.861ZM863.569 462.462L866.1 461.784C866.602 461.649 867.067 461.607 867.495 461.658C867.935 461.706 868.322 461.837 868.656 462.051C868.999 462.249 869.285 462.518 869.514 462.857C869.755 463.192 869.935 463.579 870.052 464.017C870.18 464.493 870.206 464.976 870.13 465.466C870.067 465.952 869.902 466.418 869.634 466.862C869.376 467.29 869.017 467.676 868.557 468.02C868.11 468.361 867.565 468.617 866.921 468.79L862.42 469.996L861.488 459.334L863.246 458.863L863.569 462.462ZM863.687 463.983L864.041 468.009L866.591 467.325C866.938 467.232 867.238 467.09 867.491 466.898C867.743 466.706 867.946 466.486 868.101 466.238C868.251 465.976 868.344 465.703 868.378 465.418C868.421 465.116 868.403 464.818 868.324 464.521C868.189 464.019 867.941 463.658 867.578 463.437C867.225 463.201 866.765 463.158 866.198 463.31L863.687 463.983ZM880.497 462.378L883.086 461.684L883.316 464.397L880.727 465.091L880.497 462.378Z" fill="black"/>
<rect x="1067.1" y="169.791" width="143" height="143" transform="rotate(-15 1067.1 169.791)" fill="black"/>
<path d="M1111.51 231.108L1109.53 235.881L1112.11 239.375L1110.37 239.841L1107.64 236.224L1109.67 231.6L1111.51 231.108ZM1115.58 230.016L1113.61 234.789L1116.18 238.282L1114.42 238.753L1111.69 235.137L1113.73 230.513L1115.58 230.016ZM1118.67 222.955L1121.15 222.293L1123.55 229.413C1123.66 229.715 1123.74 230.01 1123.81 230.297C1123.88 230.58 1123.94 230.833 1123.99 231.055C1124.05 231.316 1124.1 231.558 1124.14 231.78L1124.3 231.739C1124.29 231.506 1124.29 231.251 1124.3 230.972C1124.31 230.736 1124.32 230.464 1124.33 230.157C1124.34 229.849 1124.38 229.522 1124.44 229.175L1125.53 221.118L1128.14 220.419L1129.49 235.897L1127.81 236.347L1126.63 222.977L1126.44 223.029C1126.43 223.32 1126.42 223.621 1126.39 223.932C1126.37 224.214 1126.34 224.524 1126.31 224.865C1126.27 225.192 1126.23 225.527 1126.18 225.871L1125.2 233.257L1123.52 233.707L1121.3 227.137C1121.2 226.847 1121.11 226.555 1121.03 226.258C1120.94 225.949 1120.88 225.671 1120.82 225.423C1120.76 225.136 1120.71 224.854 1120.66 224.576L1120.47 224.628L1121.65 237.998L1120.02 238.433L1118.67 222.955ZM1137.55 234.006C1136.83 234.2 1136.17 234.272 1135.58 234.224C1135 234.172 1134.48 234.014 1134.02 233.75C1133.58 233.483 1133.2 233.129 1132.89 232.688C1132.59 232.23 1132.35 231.699 1132.19 231.094C1131.97 230.269 1131.86 229.437 1131.85 228.596C1131.85 227.742 1131.98 226.948 1132.25 226.212C1132.52 225.477 1132.94 224.832 1133.51 224.279C1134.08 223.714 1134.83 223.306 1135.75 223.058C1136.48 222.865 1137.13 222.794 1137.71 222.846C1138.3 222.894 1138.82 223.05 1139.28 223.314C1139.74 223.578 1140.12 223.939 1140.42 224.396C1140.73 224.837 1140.97 225.36 1141.13 225.966C1141.35 226.803 1141.46 227.65 1141.46 228.507C1141.46 229.348 1141.33 230.136 1141.06 230.872C1140.8 231.604 1140.38 232.248 1139.79 232.804C1139.22 233.357 1138.48 233.758 1137.55 234.006ZM1137.24 232.639C1137.91 232.459 1138.42 232.13 1138.76 231.653C1139.12 231.171 1139.36 230.63 1139.49 230.03C1139.61 229.429 1139.65 228.804 1139.6 228.155C1139.55 227.506 1139.46 226.93 1139.33 226.428C1139.12 225.655 1138.75 225.071 1138.22 224.676C1137.68 224.267 1136.96 224.184 1136.06 224.426C1135.39 224.605 1134.88 224.936 1134.52 225.417C1134.18 225.895 1133.95 226.434 1133.82 227.035C1133.69 227.635 1133.65 228.26 1133.7 228.909C1133.76 229.555 1133.86 230.129 1133.99 230.631C1134.1 231.018 1134.24 231.366 1134.42 231.677C1134.6 231.975 1134.82 232.219 1135.09 232.408C1135.36 232.585 1135.67 232.701 1136.03 232.756C1136.39 232.799 1136.79 232.759 1137.24 232.639ZM1151.57 222.362C1151.5 222.13 1151.4 221.909 1151.26 221.697C1151.14 221.483 1150.96 221.31 1150.73 221.178C1150.51 221.029 1150.24 220.937 1149.91 220.9C1149.6 220.86 1149.23 220.897 1148.8 221.011C1148.11 221.198 1147.57 221.52 1147.2 221.979C1146.84 222.435 1146.59 222.95 1146.45 223.525C1146.31 224.087 1146.26 224.673 1146.3 225.284C1146.35 225.878 1146.44 226.407 1146.56 226.871C1146.81 227.785 1147.2 228.459 1147.75 228.893C1148.29 229.327 1149.01 229.423 1149.91 229.182C1150.67 228.978 1151.23 228.614 1151.59 228.091C1151.96 227.551 1152.11 226.952 1152.04 226.293L1153.82 225.817C1153.88 226.311 1153.85 226.808 1153.74 227.308C1153.62 227.795 1153.41 228.258 1153.12 228.696C1152.82 229.121 1152.42 229.503 1151.93 229.841C1151.45 230.18 1150.87 230.438 1150.2 230.618C1149.47 230.811 1148.82 230.875 1148.24 230.811C1147.65 230.733 1147.14 230.554 1146.69 230.274C1146.24 229.981 1145.85 229.601 1145.53 229.134C1145.22 228.651 1144.99 228.094 1144.82 227.463C1144.61 226.69 1144.5 225.898 1144.49 225.086C1144.49 224.271 1144.62 223.504 1144.89 222.785C1145.15 222.066 1145.57 221.428 1146.16 220.871C1146.73 220.302 1147.51 219.888 1148.47 219.629C1149.13 219.453 1149.73 219.383 1150.26 219.42C1150.79 219.456 1151.26 219.579 1151.66 219.789C1152.08 219.995 1152.42 220.284 1152.68 220.655C1152.94 221.013 1153.13 221.432 1153.25 221.912L1151.57 222.362ZM1160.76 222.777L1159.25 223.18L1159.67 227.811L1157.91 228.282L1156.96 217.625L1158.71 217.154L1159.12 221.664L1160.64 221.255L1163.35 215.912L1165.36 215.374L1162.12 221.749L1166.39 226.01L1164.49 226.517L1160.76 222.777ZM1169.43 214.283L1174.1 213.03C1175.01 212.789 1175.75 212.825 1176.33 213.139C1176.91 213.439 1177.29 213.931 1177.47 214.614C1177.63 215.206 1177.58 215.784 1177.33 216.348C1177.08 216.912 1176.67 217.354 1176.09 217.674L1176.1 217.712C1176.72 217.699 1177.22 217.834 1177.6 218.119C1177.99 218.387 1178.25 218.773 1178.39 219.275C1178.52 219.79 1178.54 220.283 1178.43 220.754C1178.33 221.208 1178.13 221.629 1177.82 222.016C1177.51 222.403 1177.1 222.746 1176.6 223.045C1176.1 223.332 1175.51 223.565 1174.84 223.744L1170.34 224.951L1169.43 214.283ZM1171.27 215.281L1171.51 218.197L1174.24 217.467C1174.88 217.295 1175.34 217.02 1175.61 216.644C1175.89 216.251 1175.96 215.797 1175.83 215.282C1175.75 214.985 1175.57 214.751 1175.29 214.578C1175 214.404 1174.64 214.378 1174.19 214.499L1171.27 215.281ZM1171.64 219.675L1171.94 223.032L1174.76 222.276C1175.49 222.079 1176.03 221.763 1176.37 221.327C1176.72 220.888 1176.82 220.365 1176.65 219.76C1176.55 219.387 1176.31 219.113 1175.94 218.938C1175.57 218.76 1175.07 218.757 1174.42 218.929L1171.64 219.675ZM1188.32 214.874C1187.39 215.123 1186.65 215.355 1186.1 215.571C1185.55 215.775 1185.07 216.006 1184.67 216.265C1184.26 216.527 1183.98 216.831 1183.82 217.177C1183.68 217.519 1183.66 217.896 1183.77 218.308C1183.93 218.887 1184.19 219.266 1184.55 219.445C1184.92 219.61 1185.39 219.615 1185.97 219.46C1186.38 219.349 1186.74 219.17 1187.04 218.922C1187.36 218.671 1187.62 218.374 1187.82 218.031C1188.03 217.685 1188.18 217.299 1188.28 216.874C1188.37 216.449 1188.4 215.998 1188.37 215.524L1188.32 214.874ZM1188.73 218.244C1188.54 218.858 1188.23 219.412 1187.78 219.904C1187.33 220.384 1186.73 220.726 1185.97 220.93C1185.01 221.185 1184.18 221.152 1183.48 220.831C1182.77 220.51 1182.29 219.879 1182.04 218.939C1181.8 218.05 1181.89 217.268 1182.3 216.591C1182.71 215.915 1183.35 215.372 1184.2 214.963C1184.5 214.829 1184.78 214.704 1185.05 214.59C1185.33 214.475 1185.61 214.363 1185.92 214.255C1186.22 214.146 1186.55 214.044 1186.91 213.947C1187.28 213.834 1187.7 213.714 1188.18 213.586L1188.15 213.16C1188.07 212.31 1187.82 211.708 1187.4 211.353C1186.97 210.985 1186.31 210.919 1185.44 211.153C1184.83 211.315 1184.35 211.597 1183.99 211.998C1183.64 212.395 1183.51 212.905 1183.61 213.527L1181.93 213.978C1181.83 213.52 1181.83 213.078 1181.93 212.653C1182.03 212.212 1182.22 211.807 1182.51 211.44C1182.8 211.073 1183.17 210.747 1183.62 210.461C1184.08 210.172 1184.61 209.946 1185.22 209.784C1185.91 209.598 1186.53 209.542 1187.08 209.617C1187.63 209.675 1188.1 209.845 1188.5 210.127C1188.89 210.395 1189.19 210.762 1189.41 211.227C1189.63 211.692 1189.77 212.235 1189.83 212.855L1190.2 217.268C1190.22 217.582 1190.3 217.781 1190.45 217.866C1190.59 217.951 1190.78 217.964 1190.99 217.905L1191.48 217.776L1191.62 219.248L1190.99 219.419C1189.81 219.733 1189.09 219.362 1188.8 218.306L1188.78 218.228L1188.73 218.244ZM1194.84 217.207L1196.62 212.485L1193.85 209.044L1195.61 208.573L1198.53 212.138L1196.69 216.71L1194.84 217.207ZM1198.91 216.114L1200.69 211.393L1197.93 207.951L1199.67 207.486L1202.59 211.051L1200.75 215.623L1198.91 216.114Z" fill="white"/>
<path d="M1131.43 251.27C1131.3 250.858 1131.25 250.468 1131.27 250.1C1131.3 249.723 1131.4 249.383 1131.55 249.079C1131.72 248.774 1131.94 248.513 1132.23 248.297C1132.52 248.075 1132.86 247.91 1133.25 247.805C1133.68 247.691 1134.06 247.658 1134.4 247.704C1134.75 247.744 1135.04 247.84 1135.3 247.995C1135.56 248.142 1135.77 248.335 1135.93 248.576C1136.1 248.807 1136.22 249.056 1136.29 249.321C1136.36 249.579 1136.4 249.831 1136.4 250.076C1136.4 250.314 1136.37 250.569 1136.29 250.843C1136.23 251.114 1136.12 251.409 1135.97 251.726C1135.82 252.042 1135.62 252.402 1135.38 252.806L1134.46 254.322C1134.33 254.533 1134.22 254.708 1134.14 254.846C1134.06 254.975 1133.99 255.082 1133.93 255.166C1133.88 255.266 1133.83 255.34 1133.8 255.387L1133.8 255.409L1137.75 254.35L1137.98 255.211L1132.74 256.615L1132.54 255.862L1134.55 252.439C1134.72 252.148 1134.87 251.882 1135 251.64C1135.12 251.391 1135.22 251.158 1135.28 250.941C1135.35 250.721 1135.39 250.507 1135.4 250.298C1135.41 250.087 1135.39 249.867 1135.33 249.637C1135.27 249.436 1135.19 249.259 1135.07 249.106C1134.95 248.946 1134.81 248.823 1134.65 248.735C1134.48 248.641 1134.3 248.582 1134.1 248.558C1133.9 248.534 1133.7 248.551 1133.48 248.609C1132.94 248.753 1132.58 249.036 1132.38 249.457C1132.19 249.871 1132.18 250.392 1132.36 251.019L1131.43 251.27ZM1139.86 252.448C1140.05 252.905 1140.32 253.225 1140.66 253.41C1141.01 253.594 1141.44 253.614 1141.94 253.47C1142.17 253.41 1142.37 253.316 1142.57 253.186C1142.76 253.05 1142.92 252.881 1143.03 252.681C1143.16 252.479 1143.24 252.246 1143.27 251.983C1143.31 251.719 1143.28 251.419 1143.19 251.081C1143.11 250.773 1142.99 250.516 1142.84 250.312C1142.69 250.098 1142.51 249.933 1142.31 249.818C1142.12 249.693 1141.9 249.62 1141.67 249.599C1141.44 249.569 1141.2 249.585 1140.97 249.649C1140.61 249.745 1140.32 249.891 1140.1 250.088C1139.88 250.277 1139.73 250.506 1139.64 250.776L1138.77 251.01L1137.87 246.696L1142.24 245.525L1142.46 246.375L1138.94 247.318L1139.49 249.882L1139.51 249.876C1139.61 249.672 1139.77 249.468 1140 249.262C1140.23 249.055 1140.54 248.898 1140.93 248.793C1141.25 248.706 1141.58 248.673 1141.91 248.692C1142.24 248.71 1142.56 248.799 1142.85 248.96C1143.14 249.112 1143.4 249.337 1143.64 249.636C1143.87 249.935 1144.05 250.321 1144.18 250.795C1144.29 251.211 1144.33 251.605 1144.29 251.977C1144.25 252.348 1144.14 252.684 1143.97 252.985C1143.8 253.285 1143.55 253.546 1143.25 253.767C1142.94 253.986 1142.58 254.153 1142.16 254.266C1141.7 254.389 1141.29 254.43 1140.93 254.387C1140.58 254.342 1140.27 254.244 1140.01 254.092C1139.74 253.932 1139.52 253.73 1139.34 253.487C1139.17 253.241 1139.03 252.978 1138.92 252.699L1139.86 252.448ZM1147.94 250.997L1149.39 250.611L1149.77 252.053L1148.33 252.439L1147.94 250.997ZM1153.63 251.019L1153.41 250.211L1155.37 249.687L1154.02 244.618L1152.06 245.143L1151.85 244.389L1152.58 244.196C1153.06 244.065 1153.39 243.855 1153.55 243.566C1153.63 243.414 1153.68 243.252 1153.68 243.08C1153.7 242.907 1153.67 242.695 1153.61 242.444L1154.41 242.227L1156.34 249.427L1158.33 248.894L1158.55 249.701L1153.63 251.019ZM1159.03 245.326C1158.66 243.913 1158.61 242.809 1158.91 242.015C1159.2 241.221 1159.78 240.708 1160.64 240.478C1161.5 240.247 1162.26 240.401 1162.92 240.939C1163.58 241.478 1164.1 242.454 1164.48 243.867C1164.86 245.28 1164.9 246.384 1164.61 247.178C1164.31 247.972 1163.73 248.487 1162.85 248.721C1161.98 248.956 1161.21 248.802 1160.57 248.26C1159.92 247.717 1159.41 246.74 1159.03 245.326ZM1162.63 247.914C1163.18 247.768 1163.53 247.379 1163.67 246.748C1163.82 246.117 1163.74 245.256 1163.45 244.165C1163.15 243.053 1162.79 242.26 1162.35 241.784C1161.92 241.309 1161.42 241.146 1160.86 241.296C1160.32 241.442 1159.97 241.822 1159.83 242.437C1159.69 243.052 1159.77 243.93 1160.07 245.071C1160.66 247.266 1161.51 248.214 1162.63 247.914ZM1168.59 245.464L1170.04 245.077L1170.42 246.519L1168.98 246.906L1168.59 245.464ZM1172.73 240.203C1172.6 239.791 1172.55 239.401 1172.58 239.033C1172.61 238.656 1172.7 238.316 1172.86 238.012C1173.02 237.707 1173.25 237.446 1173.54 237.231C1173.82 237.008 1174.16 236.843 1174.56 236.738C1174.98 236.624 1175.36 236.591 1175.71 236.637C1176.05 236.677 1176.35 236.773 1176.6 236.928C1176.86 237.075 1177.07 237.268 1177.23 237.509C1177.4 237.74 1177.52 237.989 1177.59 238.254C1177.66 238.512 1177.7 238.764 1177.7 239.009C1177.71 239.247 1177.67 239.502 1177.6 239.776C1177.53 240.047 1177.42 240.342 1177.27 240.659C1177.12 240.975 1176.93 241.335 1176.68 241.74L1175.76 243.255C1175.63 243.466 1175.53 243.641 1175.44 243.779C1175.36 243.908 1175.29 244.015 1175.24 244.099C1175.18 244.199 1175.13 244.273 1175.1 244.32L1175.11 244.342L1179.06 243.283L1179.29 244.144L1174.05 245.549L1173.84 244.795L1175.86 241.372C1176.02 241.081 1176.17 240.815 1176.3 240.573C1176.43 240.324 1176.52 240.091 1176.59 239.874C1176.66 239.654 1176.7 239.44 1176.7 239.231C1176.71 239.02 1176.69 238.8 1176.63 238.57C1176.57 238.369 1176.49 238.192 1176.37 238.04C1176.25 237.879 1176.11 237.756 1175.95 237.668C1175.78 237.574 1175.6 237.515 1175.4 237.491C1175.21 237.467 1175 237.484 1174.78 237.542C1174.25 237.686 1173.88 237.969 1173.68 238.39C1173.49 238.804 1173.48 239.325 1173.67 239.953L1172.73 240.203ZM1179.69 239.793C1179.31 238.379 1179.26 237.276 1179.56 236.482C1179.85 235.687 1180.43 235.175 1181.29 234.944C1182.15 234.714 1182.91 234.867 1183.57 235.406C1184.23 235.944 1184.75 236.92 1185.13 238.334C1185.51 239.747 1185.55 240.851 1185.26 241.645C1184.96 242.439 1184.38 242.953 1183.5 243.188C1182.63 243.422 1181.87 243.268 1181.22 242.726C1180.58 242.184 1180.06 241.206 1179.69 239.793ZM1183.29 242.381C1183.83 242.235 1184.18 241.846 1184.32 241.215C1184.47 240.583 1184.4 239.723 1184.1 238.632C1183.81 237.52 1183.44 236.726 1183 236.251C1182.57 235.775 1182.07 235.612 1181.51 235.762C1180.97 235.908 1180.62 236.289 1180.48 236.904C1180.34 237.519 1180.42 238.397 1180.72 239.537C1181.31 241.733 1182.17 242.681 1183.29 242.381ZM1186.5 236.514C1186.37 236.102 1186.32 235.712 1186.34 235.344C1186.37 234.967 1186.47 234.627 1186.62 234.323C1186.79 234.018 1187.01 233.757 1187.3 233.542C1187.59 233.319 1187.93 233.154 1188.32 233.049C1188.75 232.935 1189.13 232.902 1189.47 232.948C1189.82 232.988 1190.11 233.084 1190.37 233.239C1190.63 233.386 1190.83 233.579 1191 233.82C1191.17 234.051 1191.29 234.3 1191.36 234.565C1191.43 234.823 1191.47 235.075 1191.47 235.32C1191.47 235.558 1191.44 235.813 1191.36 236.087C1191.3 236.358 1191.19 236.653 1191.04 236.97C1190.89 237.286 1190.69 237.646 1190.45 238.051L1189.53 239.566C1189.4 239.777 1189.29 239.952 1189.21 240.09C1189.13 240.22 1189.06 240.326 1189 240.41C1188.95 240.51 1188.9 240.584 1188.87 240.631L1188.87 240.653L1192.82 239.594L1193.05 240.455L1187.81 241.86L1187.61 241.106L1189.62 237.683C1189.79 237.392 1189.94 237.126 1190.07 236.884C1190.19 236.635 1190.29 236.402 1190.35 236.185C1190.42 235.965 1190.46 235.751 1190.47 235.542C1190.48 235.331 1190.46 235.111 1190.4 234.881C1190.34 234.68 1190.26 234.504 1190.14 234.351C1190.02 234.19 1189.88 234.067 1189.72 233.979C1189.55 233.885 1189.37 233.826 1189.17 233.802C1188.97 233.778 1188.77 233.795 1188.55 233.853C1188.01 233.997 1187.65 234.28 1187.45 234.701C1187.26 235.115 1187.25 235.636 1187.43 236.264L1186.5 236.514ZM1195.66 235.869L1195.43 235.019L1196.12 234.835C1196.59 234.71 1196.91 234.485 1197.08 234.162C1197.26 233.831 1197.29 233.454 1197.17 233.03C1197.06 232.607 1196.83 232.31 1196.5 232.139C1196.16 231.961 1195.77 231.93 1195.34 232.045C1194.85 232.178 1194.49 232.413 1194.26 232.75C1194.03 233.08 1193.99 233.519 1194.12 234.068L1193.18 234.319C1193.11 234.009 1193.08 233.697 1193.1 233.383C1193.13 233.06 1193.23 232.758 1193.38 232.478C1193.54 232.198 1193.75 231.951 1194.04 231.737C1194.32 231.515 1194.68 231.345 1195.12 231.227C1195.5 231.125 1195.86 231.088 1196.19 231.115C1196.52 231.134 1196.81 231.21 1197.07 231.34C1197.32 231.464 1197.54 231.641 1197.72 231.87C1197.9 232.09 1198.03 232.348 1198.11 232.642C1198.24 233.123 1198.22 233.546 1198.06 233.913C1197.89 234.28 1197.6 234.611 1197.19 234.906L1197.2 234.927C1197.43 234.92 1197.65 234.944 1197.87 235C1198.1 235.046 1198.31 235.133 1198.5 235.259C1198.69 235.377 1198.86 235.539 1199.01 235.745C1199.15 235.945 1199.27 236.195 1199.35 236.496C1199.43 236.805 1199.45 237.115 1199.4 237.428C1199.35 237.733 1199.24 238.021 1199.07 238.29C1198.89 238.56 1198.65 238.801 1198.35 239.013C1198.05 239.225 1197.68 239.389 1197.25 239.505C1196.8 239.624 1196.4 239.662 1196.04 239.619C1195.69 239.577 1195.37 239.477 1195.1 239.319C1194.83 239.152 1194.6 238.941 1194.41 238.685C1194.22 238.419 1194.08 238.127 1193.98 237.808L1194.9 237.56C1195.11 238.083 1195.4 238.434 1195.8 238.613C1196.19 238.785 1196.63 238.805 1197.12 238.674C1197.35 238.613 1197.55 238.519 1197.73 238.394C1197.92 238.268 1198.06 238.121 1198.18 237.951C1198.3 237.774 1198.37 237.581 1198.41 237.372C1198.44 237.155 1198.43 236.928 1198.36 236.691C1198.24 236.247 1198.01 235.932 1197.67 235.746C1197.33 235.561 1196.89 235.541 1196.35 235.685L1195.66 235.869Z" fill="white"/>
<path d="M1102.03 219.293L1101.03 219.562L1098.82 211.329L1103.99 209.945L1106.19 218.177L1105.19 218.446L1103.21 211.063L1100.05 211.911L1102.03 219.293ZM1111.14 213.195C1111.07 212.961 1110.98 212.75 1110.87 212.565C1110.76 212.379 1110.62 212.228 1110.46 212.11C1110.3 211.99 1110.12 211.915 1109.91 211.886C1109.71 211.848 1109.48 211.865 1109.21 211.936C1108.72 212.067 1108.39 212.327 1108.2 212.715C1108.02 213.102 1107.97 213.561 1108.05 214.093L1111.16 213.26L1111.14 213.195ZM1112.55 214.882C1112.58 215.406 1112.42 215.87 1112.09 216.274C1111.76 216.678 1111.28 216.964 1110.65 217.133C1110.2 217.254 1109.78 217.288 1109.41 217.235C1109.04 217.173 1108.71 217.039 1108.41 216.833C1108.12 216.627 1107.87 216.359 1107.67 216.029C1107.46 215.7 1107.3 215.323 1107.19 214.9C1107.08 214.484 1107.03 214.077 1107.05 213.68C1107.07 213.284 1107.15 212.919 1107.3 212.587C1107.45 212.255 1107.67 211.969 1107.96 211.73C1108.24 211.484 1108.6 211.304 1109.02 211.191C1109.46 211.073 1109.85 211.049 1110.2 211.117C1110.56 211.183 1110.87 211.318 1111.14 211.523C1111.41 211.72 1111.63 211.972 1111.81 212.279C1111.99 212.584 1112.13 212.916 1112.22 213.275L1112.36 213.77L1108.23 214.874C1108.33 215.164 1108.44 215.422 1108.58 215.647C1108.72 215.862 1108.88 216.038 1109.07 216.173C1109.26 216.307 1109.47 216.393 1109.7 216.43C1109.93 216.468 1110.19 216.448 1110.48 216.371C1110.73 216.304 1110.93 216.22 1111.08 216.118C1111.23 216.009 1111.34 215.898 1111.42 215.785C1111.5 215.67 1111.56 215.556 1111.58 215.442C1111.6 215.328 1111.62 215.224 1111.62 215.13L1112.55 214.882ZM1115.18 212.955C1115.25 213.235 1115.36 213.488 1115.5 213.712C1115.63 213.937 1115.8 214.12 1115.99 214.261C1116.19 214.4 1116.41 214.494 1116.65 214.544C1116.9 214.587 1117.16 214.57 1117.45 214.493C1117.99 214.349 1118.34 214.047 1118.5 213.589C1118.66 213.123 1118.64 212.517 1118.44 211.771C1118.36 211.47 1118.25 211.198 1118.13 210.955C1118.01 210.71 1117.86 210.51 1117.69 210.357C1117.51 210.196 1117.31 210.089 1117.07 210.037C1116.84 209.985 1116.56 210.001 1116.25 210.083C1115.99 210.155 1115.76 210.269 1115.57 210.427C1115.39 210.576 1115.25 210.757 1115.14 210.97C1115.04 211.175 1114.97 211.4 1114.95 211.643C1114.93 211.88 1114.95 212.116 1115.02 212.353L1115.18 212.955ZM1113.43 210.161L1114.36 209.91L1114.62 210.857L1114.64 210.851C1114.74 210.502 1114.92 210.181 1115.18 209.888C1115.44 209.586 1115.8 209.375 1116.25 209.254C1116.57 209.169 1116.88 209.139 1117.2 209.162C1117.51 209.186 1117.81 209.283 1118.09 209.453C1118.37 209.615 1118.63 209.866 1118.86 210.205C1119.09 210.536 1119.27 210.971 1119.42 211.509C1119.55 212.025 1119.61 212.494 1119.59 212.916C1119.56 213.331 1119.46 213.695 1119.3 214.008C1119.15 214.318 1118.94 214.579 1118.67 214.789C1118.41 214.989 1118.11 215.134 1117.78 215.222C1117.57 215.28 1117.35 215.307 1117.13 215.304C1116.93 215.305 1116.73 215.284 1116.55 215.24C1116.38 215.187 1116.22 215.119 1116.07 215.035C1115.92 214.951 1115.81 214.852 1115.71 214.738L1115.69 214.744L1116.46 217.596L1115.49 217.855L1113.43 210.161ZM1120.7 208.212L1123.13 207.561C1123.7 207.407 1124.18 207.413 1124.56 207.58C1124.95 207.737 1125.21 208.038 1125.33 208.483C1125.42 208.828 1125.41 209.13 1125.3 209.389C1125.2 209.647 1125.02 209.852 1124.77 210.006L1124.77 210.028C1125.14 209.991 1125.46 210.057 1125.75 210.227C1126.04 210.396 1126.23 210.655 1126.33 211.007C1126.41 211.33 1126.42 211.615 1126.36 211.863C1126.3 212.102 1126.19 212.313 1126.02 212.496C1125.86 212.677 1125.66 212.828 1125.4 212.949C1125.15 213.071 1124.88 213.172 1124.57 213.252L1122.22 213.884L1120.7 208.212ZM1121.85 208.734L1122.27 210.283L1123.66 209.911C1123.78 209.879 1123.89 209.833 1124 209.773C1124.11 209.712 1124.21 209.637 1124.27 209.55C1124.35 209.46 1124.4 209.358 1124.42 209.244C1124.45 209.121 1124.45 208.985 1124.41 208.834C1124.33 208.568 1124.2 208.404 1124.01 208.341C1123.81 208.27 1123.58 208.269 1123.33 208.339L1121.85 208.734ZM1122.48 211.069L1122.96 212.855L1124.4 212.469C1124.76 212.373 1125.03 212.231 1125.21 212.045C1125.39 211.849 1125.44 211.582 1125.35 211.245C1125.26 210.915 1125.09 210.715 1124.83 210.646C1124.58 210.576 1124.25 210.593 1123.87 210.697L1122.48 211.069ZM1129.18 210.3C1129.26 210.602 1129.41 210.806 1129.64 210.914C1129.87 211.015 1130.14 211.022 1130.47 210.935C1130.65 210.887 1130.82 210.805 1131 210.689C1131.18 210.572 1131.32 210.421 1131.44 210.235C1131.56 210.042 1131.64 209.814 1131.68 209.55C1131.72 209.278 1131.69 208.965 1131.6 208.614L1131.56 208.485C1130.95 208.679 1130.46 208.856 1130.09 209.018C1129.72 209.179 1129.46 209.352 1129.31 209.539C1129.14 209.752 1129.1 210.006 1129.18 210.3ZM1132.02 210.161C1131.95 210.564 1131.79 210.903 1131.53 211.18C1131.28 211.456 1130.93 211.652 1130.5 211.767C1129.93 211.921 1129.44 211.895 1129.03 211.689C1128.63 211.482 1128.36 211.123 1128.22 210.614C1128.14 210.298 1128.13 210.004 1128.21 209.73C1128.28 209.457 1128.44 209.209 1128.7 208.987C1128.96 208.748 1129.31 208.535 1129.75 208.348C1130.2 208.151 1130.74 207.956 1131.37 207.764L1131.29 207.473C1131.16 206.992 1130.97 206.676 1130.7 206.524C1130.44 206.371 1130.1 206.35 1129.69 206.459C1129.46 206.521 1129.28 206.605 1129.14 206.712C1129 206.81 1128.9 206.918 1128.83 207.036C1128.76 207.154 1128.72 207.277 1128.71 207.403C1128.7 207.529 1128.7 207.647 1128.73 207.757L1127.79 208.008C1127.74 207.767 1127.73 207.53 1127.77 207.297C1127.82 207.062 1127.91 206.842 1128.05 206.636C1128.18 206.43 1128.37 206.248 1128.61 206.091C1128.85 205.927 1129.15 205.798 1129.49 205.706C1129.82 205.618 1130.13 205.577 1130.42 205.585C1130.7 205.593 1130.96 205.658 1131.2 205.78C1131.43 205.895 1131.63 206.072 1131.8 206.311C1131.98 206.54 1132.11 206.838 1132.21 207.204L1132.89 209.722C1132.93 209.894 1132.99 210.001 1133.06 210.043C1133.14 210.083 1133.27 210.08 1133.44 210.034L1133.64 209.982L1133.85 210.768L1133.55 210.849C1133.12 210.962 1132.8 210.963 1132.59 210.851C1132.37 210.732 1132.21 210.496 1132.09 210.143L1132.02 210.161ZM1138.61 207.31L1137.22 207.685L1136.45 210.071L1135.37 210.359L1136.23 207.729C1135.83 207.698 1135.5 207.569 1135.22 207.343C1134.94 207.117 1134.76 206.818 1134.66 206.445C1134.51 205.899 1134.56 205.413 1134.81 204.985C1135.06 204.549 1135.51 204.245 1136.14 204.074L1138.61 203.413L1140.13 209.085L1139.16 209.344L1138.61 207.31ZM1138.4 206.503L1137.86 204.48L1136.48 204.849C1136.28 204.903 1136.11 204.978 1135.98 205.074C1135.86 205.168 1135.77 205.277 1135.7 205.403C1135.64 205.519 1135.61 205.647 1135.6 205.788C1135.6 205.92 1135.61 206.05 1135.65 206.179C1135.72 206.466 1135.87 206.68 1136.1 206.82C1136.32 206.959 1136.63 206.976 1137.02 206.872L1138.4 206.503ZM1148.04 200.886L1152.52 199.687L1154.04 205.358L1153.07 205.618L1151.76 200.753L1149.22 201.434L1150.53 206.298L1149.56 206.558L1148.04 200.886ZM1158.72 204.253C1157.85 204.486 1157.12 204.401 1156.53 203.998C1155.94 203.594 1155.52 202.922 1155.27 201.982C1155.02 201.042 1155.05 200.253 1155.36 199.616C1155.68 198.969 1156.27 198.531 1157.12 198.302C1157.99 198.07 1158.72 198.156 1159.3 198.56C1159.89 198.956 1160.31 199.623 1160.57 200.563C1160.82 201.51 1160.79 202.307 1160.47 202.954C1160.16 203.592 1159.57 204.025 1158.72 204.253ZM1157.33 199.056C1156.76 199.207 1156.4 199.516 1156.24 199.982C1156.07 200.441 1156.09 201.018 1156.27 201.714C1156.46 202.41 1156.73 202.92 1157.1 203.246C1157.47 203.569 1157.94 203.654 1158.52 203.5C1159.1 203.343 1159.47 203.033 1159.62 202.571C1159.77 202.107 1159.75 201.527 1159.57 200.831C1159.38 200.135 1159.1 199.629 1158.73 199.313C1158.36 198.989 1157.89 198.904 1157.33 199.056ZM1161.73 197.218L1162.7 196.958L1163.13 198.583C1163.24 198.978 1163.41 199.262 1163.65 199.437C1163.9 199.602 1164.23 199.627 1164.66 199.511C1164.86 199.46 1165.03 199.402 1165.18 199.338C1165.34 199.272 1165.48 199.205 1165.59 199.136C1165.72 199.071 1165.83 198.998 1165.93 198.917L1165.23 196.28L1166.2 196.021L1167.72 201.692L1166.75 201.952L1166.15 199.724C1166.05 199.805 1165.93 199.878 1165.81 199.944C1165.69 200.012 1165.56 200.079 1165.4 200.145C1165.25 200.209 1165.07 200.267 1164.88 200.319C1164.13 200.518 1163.54 200.493 1163.1 200.243C1162.66 199.991 1162.35 199.524 1162.17 198.843L1161.73 197.218ZM1168.4 195.431L1173.46 194.076L1173.67 194.883L1171.63 195.431L1172.93 200.295L1171.96 200.554L1170.66 195.69L1168.62 196.238L1168.4 195.431ZM1179.37 198.72C1178.5 198.953 1177.77 198.868 1177.18 198.465C1176.59 198.06 1176.17 197.388 1175.92 196.448C1175.67 195.509 1175.7 194.72 1176.02 194.082C1176.33 193.435 1176.92 192.998 1177.77 192.769C1178.64 192.536 1179.37 192.622 1179.95 193.027C1180.54 193.422 1180.97 194.09 1181.22 195.03C1181.47 195.977 1181.44 196.774 1181.12 197.42C1180.81 198.058 1180.22 198.491 1179.37 198.72ZM1177.98 193.522C1177.41 193.674 1177.05 193.983 1176.89 194.448C1176.73 194.907 1176.74 195.484 1176.92 196.18C1177.11 196.876 1177.39 197.387 1177.75 197.712C1178.12 198.036 1178.59 198.12 1179.17 197.967C1179.76 197.809 1180.12 197.499 1180.27 197.037C1180.42 196.574 1180.4 195.994 1180.22 195.298C1180.03 194.602 1179.75 194.096 1179.38 193.779C1179.01 193.456 1178.54 193.37 1177.98 193.522ZM1182.65 191.612L1185.08 190.96C1185.66 190.807 1186.14 190.813 1186.52 190.979C1186.91 191.137 1187.16 191.438 1187.28 191.883C1187.37 192.227 1187.36 192.529 1187.26 192.789C1187.16 193.046 1186.98 193.252 1186.72 193.406L1186.72 193.427C1187.09 193.39 1187.42 193.457 1187.7 193.627C1187.99 193.795 1188.18 194.055 1188.28 194.406C1188.37 194.729 1188.38 195.015 1188.31 195.263C1188.25 195.501 1188.14 195.712 1187.97 195.895C1187.82 196.076 1187.61 196.228 1187.36 196.349C1187.11 196.47 1186.83 196.571 1186.53 196.652L1184.17 197.284L1182.65 191.612ZM1183.81 192.133L1184.22 193.683L1185.61 193.311C1185.73 193.278 1185.85 193.232 1185.95 193.173C1186.07 193.111 1186.16 193.037 1186.23 192.949C1186.3 192.86 1186.35 192.758 1186.38 192.644C1186.4 192.521 1186.4 192.384 1186.36 192.233C1186.29 191.968 1186.16 191.804 1185.96 191.74C1185.77 191.67 1185.54 191.669 1185.28 191.738L1183.81 192.133ZM1184.43 194.468L1184.91 196.255L1186.35 195.868C1186.71 195.772 1186.98 195.631 1187.16 195.444C1187.35 195.248 1187.39 194.982 1187.3 194.644C1187.22 194.314 1187.04 194.115 1186.79 194.045C1186.53 193.976 1186.21 193.993 1185.82 194.096L1184.43 194.468ZM1191.13 193.7C1191.21 194.001 1191.37 194.206 1191.6 194.314C1191.82 194.414 1192.1 194.422 1192.42 194.335C1192.6 194.287 1192.78 194.205 1192.95 194.088C1193.13 193.972 1193.28 193.821 1193.4 193.635C1193.51 193.442 1193.59 193.214 1193.63 192.95C1193.67 192.677 1193.65 192.365 1193.55 192.013L1193.52 191.884C1192.91 192.078 1192.42 192.256 1192.04 192.417C1191.67 192.578 1191.41 192.752 1191.26 192.938C1191.1 193.152 1191.05 193.406 1191.13 193.7ZM1193.98 193.56C1193.91 193.963 1193.75 194.303 1193.49 194.579C1193.23 194.856 1192.89 195.051 1192.46 195.167C1191.88 195.321 1191.39 195.295 1190.98 195.089C1190.58 194.881 1190.31 194.523 1190.18 194.013C1190.09 193.698 1190.09 193.403 1190.16 193.13C1190.23 192.857 1190.4 192.609 1190.65 192.386C1190.91 192.148 1191.26 191.935 1191.7 191.747C1192.15 191.55 1192.69 191.356 1193.32 191.163L1193.25 190.873C1193.12 190.392 1192.92 190.075 1192.66 189.923C1192.39 189.771 1192.06 189.749 1191.65 189.859C1191.42 189.921 1191.23 190.005 1191.09 190.112C1190.96 190.209 1190.85 190.317 1190.79 190.436C1190.72 190.554 1190.68 190.676 1190.67 190.803C1190.65 190.929 1190.66 191.047 1190.68 191.156L1189.74 191.407C1189.69 191.167 1189.69 190.93 1189.73 190.697C1189.77 190.462 1189.86 190.241 1190 190.035C1190.14 189.83 1190.33 189.648 1190.57 189.491C1190.81 189.326 1191.1 189.198 1191.45 189.106C1191.78 189.017 1192.08 188.977 1192.37 188.985C1192.66 188.993 1192.92 189.058 1193.15 189.18C1193.38 189.295 1193.58 189.472 1193.75 189.71C1193.93 189.94 1194.07 190.237 1194.16 190.603L1194.84 193.121C1194.89 193.294 1194.95 193.401 1195.02 193.443C1195.1 193.483 1195.22 193.48 1195.4 193.434L1195.59 193.382L1195.8 194.167L1195.5 194.248C1195.08 194.362 1194.76 194.362 1194.54 194.251C1194.33 194.132 1194.16 193.896 1194.04 193.543L1193.98 193.56ZM1200.57 190.71L1199.17 191.085L1198.4 193.471L1197.32 193.759L1198.19 191.128C1197.79 191.097 1197.45 190.969 1197.17 190.743C1196.9 190.517 1196.71 190.217 1196.61 189.844C1196.46 189.299 1196.51 188.812 1196.76 188.385C1197.01 187.948 1197.46 187.644 1198.1 187.473L1200.56 186.813L1202.08 192.484L1201.11 192.744L1200.57 190.71ZM1200.35 189.903L1199.81 187.88L1198.43 188.249C1198.23 188.302 1198.07 188.377 1197.94 188.473C1197.82 188.567 1197.72 188.677 1197.66 188.802C1197.6 188.919 1197.56 189.047 1197.55 189.188C1197.55 189.319 1197.57 189.45 1197.6 189.579C1197.68 189.866 1197.83 190.079 1198.05 190.22C1198.28 190.358 1198.59 190.376 1198.97 190.272L1200.35 189.903Z" fill="white"/>
<defs>
<filter id="filter0_d_98_264" x="0.600098" y="0.583008" width="1195.85" height="425.044" filterUnits="userSpaceOnUse" color-interpolation-filters="sRGB">
<feFlood flood-opacity="0" result="BackgroundImageFix"/>
<feColorMatrix in="SourceAlpha" type="matrix" values="0 0 0 0 0 0 0 0 0 0 0 0 0 0 0 0 0 0 127 0" result="hardAlpha"/>
<feOffset dy="4"/>
<feGaussianBlur stdDeviation="2"/>
<feComposite in2="hardAlpha" operator="out"/>
<feColorMatrix type="matrix" values="0 0 0 0 0 0 0 0 0 0 0 0 0 0 0 0 0 0 0.35 0"/>
<feBlend mode="normal" in2="BackgroundImageFix" result="effect1_dropShadow_98_264"/>
<feBlend mode="normal" in="SourceGraphic" in2="effect1_dropShadow_98_264" result="shape"/>
</filter>
</defs>
</svg>
