<svg width="811" height="942" viewBox="0 0 811 942" fill="none" xmlns="http://www.w3.org/2000/svg">
<path opacity="0.05" d="M371.723 404.04L321.323 460.56L296.123 435L355.163 387.12V386.04L287.843 354.72L305.483 323.04L366.323 366.96L367.403 366.6L373.163 290.64L409.163 296.76L388.283 370.56L389.363 370.92L461.363 350.4L467.483 386.4L393.323 392.88L392.963 393.96L432.203 458.76L399.803 474.24L372.443 404.04H371.723Z" fill="white"/>
<circle cx="284.31" cy="275.292" r="262.076" transform="rotate(-38.0027 284.31 275.292)" stroke="#171717" stroke-width="24.8477"/>
<path d="M411.997 495L464.003 454.364L805.553 891.484C814.002 902.298 812.086 917.913 801.272 926.363L788.424 936.401C777.611 944.851 761.995 942.934 753.546 932.12L411.997 495Z" fill="#171717"/>
<path opacity="0.05" d="M216.443 147.16H168.203L150.923 201.16H199.163L216.443 147.16ZM119.603 298.36H93.3233L116.363 226.72H78.2033L82.8833 201.16H124.643L141.923 147.16H103.043L107.723 121.6H150.563L170.363 58.96H196.643L176.843 121.6H225.083L244.883 58.96H271.163L251.363 121.6H290.243L285.563 147.16H242.723L225.443 201.16H265.403L260.723 226.72H217.163L194.123 298.36H167.843L190.883 226.72H142.643L119.603 298.36Z" fill="white"/>
</svg>
