<svg width="1227" height="1116" viewBox="0 0 1227 1116" fill="none" xmlns="http://www.w3.org/2000/svg">
<path d="M17.78 17.44C17.78 17.52 17.7 17.84 17.54 18.4C17.42 18.96 17.26 19.64 17.06 20.44C16.86 21.2 16.64 22.02 16.4 22.9C16.2 23.74 16.02 24.48 15.86 25.12L11.78 39.82H24.2L20.12 25.12C19.92 24.44 19.72 23.66 19.52 22.78C19.32 21.86 19.12 21 18.92 20.2C18.72 19.28 18.5 18.36 18.26 17.44H17.78ZM25.46 44.32H10.52L6.74 58H1.1L14.48 12.1H21.8L35.3 58H29.3L25.46 44.32ZM158.798 30.7H167.078C169.278 30.7 171.338 30.98 173.258 31.54C175.218 32.06 176.898 32.88 178.298 34C179.698 35.08 180.798 36.48 181.598 38.2C182.438 39.92 182.858 41.94 182.858 44.26C182.858 46.54 182.438 48.54 181.598 50.26C180.798 51.98 179.678 53.42 178.238 54.58C176.798 55.7 175.078 56.56 173.078 57.16C171.118 57.72 168.958 58 166.598 58H153.218V12.1H180.098V17.08H158.798V30.7ZM158.798 35.2V53.5H166.598C169.958 53.5 172.538 52.72 174.338 51.16C176.178 49.56 177.098 47.26 177.098 44.26C177.098 41.1 176.178 38.8 174.338 37.36C172.538 35.92 170.018 35.2 166.778 35.2H158.798ZM301.916 58V12.1H316.976C319.016 12.1 320.876 12.34 322.556 12.82C324.236 13.26 325.656 13.94 326.816 14.86C328.016 15.78 328.936 16.94 329.576 18.34C330.256 19.74 330.596 21.38 330.596 23.26C330.596 26.06 329.916 28.3 328.556 29.98C327.196 31.62 325.196 32.76 322.556 33.4V33.52C325.516 34.04 327.836 35.34 329.516 37.42C331.196 39.46 332.036 41.9 332.036 44.74C332.036 47.34 331.616 49.5 330.776 51.22C329.936 52.9 328.776 54.24 327.296 55.24C325.816 56.24 324.076 56.96 322.076 57.4C320.076 57.8 317.916 58 315.596 58H301.916ZM315.956 31.66C317.156 31.66 318.296 31.54 319.376 31.3C320.456 31.02 321.396 30.58 322.196 29.98C323.036 29.38 323.676 28.58 324.116 27.58C324.596 26.58 324.836 25.34 324.836 23.86C324.836 21.34 324.116 19.5 322.676 18.34C321.236 17.14 319.236 16.54 316.676 16.54H307.496V31.66H315.956ZM315.656 53.56C319.016 53.56 321.616 52.9 323.456 51.58C325.336 50.22 326.276 47.82 326.276 44.38C326.276 41.34 325.336 39.2 323.456 37.96C321.576 36.68 318.816 36.04 315.176 36.04H307.496V53.56H315.656ZM458.353 58H452.773V12.1H478.993V16.96H458.353V58ZM594.331 66.4V53.26H597.391C598.031 52.3 598.571 51.3 599.011 50.26C599.451 49.22 599.811 48.1 600.091 46.9C600.411 45.66 600.651 44.32 600.811 42.88C601.011 41.4 601.151 39.76 601.231 37.96C601.271 36.88 601.311 35.7 601.351 34.42C601.431 33.1 601.491 31.74 601.531 30.34C601.571 28.9 601.591 27.46 601.591 26.02C601.631 24.58 601.671 23.18 601.711 21.82C601.791 18.66 601.851 15.42 601.891 12.1H626.611V53.26H631.531V66.4H626.551V58H599.371V66.4H594.331ZM606.451 37.9C606.291 41.42 605.951 44.44 605.431 46.96C604.951 49.48 604.171 51.58 603.091 53.26H621.031V16.84H606.991C606.991 18.24 606.971 19.84 606.931 21.64C606.891 23.44 606.831 25.3 606.751 27.22C606.711 29.1 606.651 30.98 606.571 32.86C606.531 34.7 606.491 36.38 606.451 37.9ZM749.089 12.1H776.629V16.96H754.669V32.44H773.509V37.18H754.669V53.14H776.929V58H749.089V12.1ZM897.847 12.1H925.387V16.96H903.427V32.44H922.267V37.18H903.427V53.14H925.687V58H897.847V12.1ZM914.647 0.639998H922.387V8.38H914.647V0.639998ZM901.687 0.639998H909.487V8.38H901.687V0.639998ZM1062.14 32.26H1065.56L1067.24 26.38L1071.26 12.1H1076.72L1070.36 34.6L1078.1 58H1072.4L1067.48 43L1065.62 37.24H1062.14V58H1056.56V37.24H1053.26L1051.16 43.66L1046.48 58H1040.9L1048.52 34.9L1042.1 12.1H1047.62L1051.64 26.44L1053.32 32.26H1056.56V12.1H1062.14V32.26ZM1203.16 37.06V32.08H1208.98C1211.46 32.08 1213.4 31.3 1214.8 29.74C1216.24 28.18 1216.96 26.18 1216.96 23.74C1216.96 21.54 1216.24 19.72 1214.8 18.28C1213.4 16.84 1211.3 16.12 1208.5 16.12C1205.5 16.12 1203.2 16.96 1201.6 18.64C1200.04 20.28 1199.06 22.66 1198.66 25.78H1192.96C1193.08 23.86 1193.48 22.04 1194.16 20.32C1194.88 18.56 1195.88 17.04 1197.16 15.76C1198.48 14.44 1200.08 13.4 1201.96 12.64C1203.88 11.84 1206.1 11.44 1208.62 11.44C1210.82 11.44 1212.8 11.76 1214.56 12.4C1216.32 13 1217.8 13.86 1219 14.98C1220.2 16.06 1221.12 17.36 1221.76 18.88C1222.4 20.36 1222.72 21.98 1222.72 23.74C1222.72 24.94 1222.52 26.08 1222.12 27.16C1221.72 28.2 1221.16 29.16 1220.44 30.04C1219.72 30.92 1218.88 31.72 1217.92 32.44C1216.96 33.12 1215.92 33.68 1214.8 34.12V34.3C1215.92 34.58 1217.02 35.02 1218.1 35.62C1219.22 36.18 1220.22 36.92 1221.1 37.84C1221.98 38.72 1222.68 39.8 1223.2 41.08C1223.72 42.32 1223.98 43.76 1223.98 45.4C1223.98 47.28 1223.62 49.04 1222.9 50.68C1222.18 52.32 1221.14 53.76 1219.78 55C1218.46 56.24 1216.82 57.22 1214.86 57.94C1212.94 58.62 1210.76 58.96 1208.32 58.96C1205.64 58.96 1203.32 58.6 1201.36 57.88C1199.4 57.16 1197.76 56.16 1196.44 54.88C1195.12 53.6 1194.08 52.1 1193.32 50.38C1192.6 48.62 1192.16 46.74 1192 44.74H1197.88C1198.32 47.9 1199.46 50.28 1201.3 51.88C1203.14 53.48 1205.48 54.28 1208.32 54.28C1209.68 54.28 1210.96 54.08 1212.16 53.68C1213.36 53.28 1214.4 52.7 1215.28 51.94C1216.16 51.18 1216.86 50.26 1217.38 49.18C1217.9 48.06 1218.16 46.8 1218.16 45.4C1218.16 42.76 1217.34 40.72 1215.7 39.28C1214.1 37.8 1211.86 37.06 1208.98 37.06H1203.16ZM27.5 190V152.26H26.9C26.78 152.86 26.56 153.6 26.24 154.48C25.96 155.24 25.58 156.2 25.1 157.36C24.66 158.52 24.04 159.94 23.24 161.62L9.68 190H3.5V144.1H8.9V181.96H9.5C9.7 181.16 10 180.22 10.4 179.14C10.72 178.22 11.14 177.12 11.66 175.84C12.22 174.52 12.9 173.04 13.7 171.4L26.66 144.1H32.9V190H27.5ZM176.258 190V152.26H175.658C175.538 152.86 175.318 153.6 174.998 154.48C174.718 155.24 174.338 156.2 173.858 157.36C173.418 158.52 172.798 159.94 171.998 161.62L158.438 190H152.258V144.1H157.658V181.96H158.258C158.458 181.16 158.758 180.22 159.158 179.14C159.478 178.22 159.898 177.12 160.418 175.84C160.978 174.52 161.658 173.04 162.458 171.4L175.418 144.1H181.658V190H176.258ZM167.978 136.54C170.618 136.54 172.178 134.96 172.658 131.8H176.978C176.858 133.28 176.538 134.56 176.018 135.64C175.538 136.68 174.878 137.54 174.038 138.22C173.238 138.9 172.298 139.4 171.218 139.72C170.138 140.04 168.998 140.2 167.798 140.2C166.598 140.2 165.458 140.04 164.378 139.72C163.338 139.4 162.398 138.9 161.558 138.22C160.758 137.54 160.098 136.68 159.578 135.64C159.098 134.56 158.798 133.28 158.678 131.8H162.998C163.198 133.36 163.718 134.54 164.558 135.34C165.438 136.14 166.578 136.54 167.978 136.54ZM307.796 164.26H311.456L324.896 144.1H331.196L316.136 166.36L332.876 190H326.036L311.516 169.24H307.796V190H302.216V144.1H307.796V164.26ZM458.593 171.94C458.513 175.06 458.293 177.8 457.933 180.16C457.613 182.48 457.073 184.42 456.313 185.98C455.553 187.54 454.573 188.7 453.373 189.46C452.173 190.22 450.653 190.6 448.813 190.6C447.893 190.6 447.173 190.5 446.653 190.3C446.373 190.22 446.153 190.12 445.993 190V184.66C446.193 184.78 446.413 184.88 446.653 184.96C447.133 185.16 447.713 185.26 448.393 185.26C449.193 185.26 449.873 185.04 450.433 184.6C451.033 184.12 451.533 183.36 451.933 182.32C452.333 181.24 452.633 179.86 452.833 178.18C453.073 176.5 453.233 174.44 453.313 172C453.353 170.68 453.393 169.28 453.433 167.8C453.473 166.32 453.513 164.8 453.553 163.24C453.593 161.68 453.613 160.12 453.613 158.56C453.653 157 453.693 155.52 453.733 154.12C453.773 150.8 453.813 147.46 453.853 144.1H479.173V190H473.593V148.84H459.013C459.013 150.28 458.993 151.96 458.953 153.88C458.913 155.76 458.873 157.74 458.833 159.82C458.833 161.86 458.793 163.94 458.713 166.06C458.673 168.14 458.633 170.1 458.593 171.94ZM598.531 144.1H606.391L611.671 165.94C611.951 167.1 612.171 168.16 612.331 169.12C612.491 170.08 612.631 170.92 612.751 171.64C612.871 172.48 612.971 173.24 613.051 173.92H613.531C613.571 173.24 613.651 172.48 613.771 171.64C613.851 170.92 613.971 170.1 614.131 169.18C614.331 168.22 614.571 167.18 614.851 166.06L620.131 144.04L627.931 144.1V190.06L622.651 190V150.76H622.171C622.091 151.52 621.971 152.36 621.811 153.28C621.691 154.08 621.511 155 621.271 156.04C621.071 157.04 620.831 158.14 620.551 159.34L615.811 179.02H610.351L605.671 159.4C605.351 158.2 605.091 157.08 604.891 156.04C604.731 155 604.591 154.08 604.471 153.28C604.311 152.36 604.191 151.52 604.111 150.76H603.631V190H598.531V144.1ZM752.869 190H747.289V144.1H752.869V164.5H771.109V144.1H776.689V190H771.109V169.24H752.869V190ZM894.487 167.2C894.487 162.8 894.887 159.08 895.687 156.04C896.487 153 897.607 150.56 899.047 148.72C900.487 146.84 902.207 145.5 904.207 144.7C906.207 143.86 908.407 143.44 910.807 143.44C913.287 143.44 915.527 143.86 917.527 144.7C919.527 145.5 921.227 146.84 922.627 148.72C924.027 150.56 925.107 153 925.867 156.04C926.627 159.08 927.007 162.8 927.007 167.2C927.007 171.6 926.607 175.32 925.807 178.36C925.047 181.36 923.947 183.8 922.507 185.68C921.107 187.56 919.387 188.92 917.347 189.76C915.347 190.56 913.127 190.96 910.687 190.96C908.167 190.96 905.907 190.56 903.907 189.76C901.907 188.92 900.207 187.56 898.807 185.68C897.407 183.8 896.327 181.36 895.567 178.36C894.847 175.32 894.487 171.6 894.487 167.2ZM910.747 186.46C912.547 186.46 914.087 186.1 915.367 185.38C916.687 184.66 917.767 183.54 918.607 182.02C919.447 180.46 920.067 178.46 920.467 176.02C920.867 173.58 921.067 170.64 921.067 167.2C921.067 163.68 920.847 160.7 920.407 158.26C920.007 155.78 919.367 153.78 918.487 152.26C917.647 150.74 916.567 149.64 915.247 148.96C913.967 148.28 912.467 147.94 910.747 147.94C908.987 147.94 907.467 148.3 906.187 149.02C904.907 149.74 903.827 150.88 902.947 152.44C902.107 153.96 901.467 155.94 901.027 158.38C900.627 160.82 900.427 163.76 900.427 167.2C900.427 170.6 900.627 173.52 901.027 175.96C901.467 178.36 902.107 180.34 902.947 181.9C903.827 183.46 904.907 184.62 906.187 185.38C907.467 186.1 908.987 186.46 910.747 186.46ZM1050.68 190H1045.1V144.1H1073.9V190H1068.32V148.84H1050.68V190ZM1200.46 172.48V190H1194.88V144.1H1208.44C1210.64 144.1 1212.7 144.38 1214.62 144.94C1216.58 145.46 1218.26 146.3 1219.66 147.46C1221.06 148.58 1222.16 150.04 1222.96 151.84C1223.8 153.6 1224.22 155.72 1224.22 158.2C1224.22 160.64 1223.8 162.76 1222.96 164.56C1222.16 166.32 1221.04 167.8 1219.6 169C1218.16 170.16 1216.44 171.04 1214.44 171.64C1212.48 172.2 1210.32 172.48 1207.96 172.48H1200.46ZM1207.96 167.98C1211.32 167.98 1213.9 167.18 1215.7 165.58C1217.54 163.94 1218.46 161.48 1218.46 158.2C1218.46 154.76 1217.54 152.3 1215.7 150.82C1213.9 149.34 1211.38 148.6 1208.14 148.6H1200.46V167.98H1207.96ZM28.7 289.84C28.54 288.68 28.26 287.52 27.86 286.36C27.46 285.16 26.88 284.1 26.12 283.18C25.4 282.22 24.48 281.44 23.36 280.84C22.24 280.24 20.9 279.94 19.34 279.94C15.38 279.94 12.52 281.5 10.76 284.62C9.04 287.74 8.18 292.6 8.18 299.2C8.18 305.88 9.04 310.76 10.76 313.84C12.52 316.88 15.36 318.4 19.28 318.4C20.96 318.4 22.38 318.1 23.54 317.5C24.7 316.86 25.64 316.04 26.36 315.04C27.12 314 27.68 312.86 28.04 311.62C28.4 310.34 28.64 309.04 28.76 307.72H34.22C34.06 309.88 33.62 311.9 32.9 313.78C32.18 315.62 31.18 317.22 29.9 318.58C28.62 319.94 27.08 321.02 25.28 321.82C23.52 322.58 21.5 322.96 19.22 322.96C16.54 322.96 14.14 322.52 12.02 321.64C9.94 320.76 8.18 319.38 6.74 317.5C5.3 315.58 4.2 313.12 3.44 310.12C2.72 307.12 2.36 303.48 2.36 299.2C2.36 291.24 3.86 285.3 6.86 281.38C9.86 277.42 14.04 275.44 19.4 275.44C21.24 275.44 23 275.72 24.68 276.28C26.4 276.84 27.94 277.7 29.3 278.86C30.66 280.02 31.78 281.52 32.66 283.36C33.54 285.16 34.1 287.32 34.34 289.84H28.7ZM184.418 280.84H169.718V322H164.138V280.84H149.438V276.1H184.418V280.84ZM319.496 311.44C318.816 313.56 318.096 315.34 317.336 316.78C316.616 318.18 315.776 319.32 314.816 320.2C313.896 321.04 312.836 321.64 311.636 322C310.476 322.4 309.156 322.6 307.676 322.6C306.836 322.6 306.176 322.5 305.696 322.3C305.456 322.22 305.236 322.12 305.036 322V316.96C305.236 317.08 305.476 317.18 305.756 317.26C306.276 317.46 306.916 317.56 307.676 317.56C309.076 317.56 310.236 317.14 311.156 316.3C312.116 315.42 312.916 314.08 313.556 312.28L300.896 276.1H306.776L313.556 296.2C313.996 297.44 314.356 298.6 314.636 299.68C314.916 300.76 315.156 301.7 315.356 302.5C315.556 303.46 315.736 304.32 315.896 305.08H316.496C316.656 304.28 316.836 303.42 317.036 302.5C317.236 301.7 317.456 300.8 317.696 299.8C317.976 298.76 318.296 297.66 318.656 296.5L325.196 276.1H330.716L319.496 311.44ZM467.293 281.2C469.493 281.32 471.553 281.76 473.473 282.52C475.393 283.28 477.033 284.38 478.393 285.82C479.793 287.22 480.893 288.98 481.693 291.1C482.493 293.22 482.893 295.72 482.893 298.6C482.893 301.44 482.493 303.94 481.693 306.1C480.933 308.22 479.853 310 478.453 311.44C477.053 312.88 475.393 314 473.473 314.8C471.593 315.6 469.533 316.06 467.293 316.18V323.2H461.713V316.18C459.473 316.06 457.393 315.6 455.473 314.8C453.553 314 451.893 312.88 450.493 311.44C449.093 310 447.993 308.22 447.193 306.1C446.433 303.94 446.053 301.44 446.053 298.6C446.053 295.72 446.453 293.22 447.253 291.1C448.053 288.98 449.153 287.22 450.553 285.82C451.953 284.38 453.593 283.28 455.473 282.52C457.393 281.76 459.473 281.32 461.713 281.2V274.9H467.293V281.2ZM451.813 298.6C451.813 306.84 455.113 311.2 461.713 311.68V285.7C458.513 285.94 456.053 287.04 454.333 289C452.653 290.96 451.813 294.16 451.813 298.6ZM477.133 298.6C477.133 294.16 476.273 290.96 474.553 289C472.873 287.04 470.453 285.94 467.293 285.7V311.68C473.853 311.2 477.133 306.84 477.133 298.6ZM609.991 298.24L596.911 276.1H603.271L613.051 293.62H613.291L623.551 276.1H629.311L616.171 297.94L630.571 322H624.091L613.051 302.62H612.871L601.651 322H595.891L609.991 298.24ZM770.089 317.26V276.1H775.669V317.26H780.589V330.4H775.609V322H747.289V276.1H752.869V317.26H770.089ZM896.347 276.1H901.927V290.56C901.927 293.64 902.627 295.98 904.027 297.58C905.467 299.18 907.567 299.98 910.327 299.98C911.567 299.98 912.707 299.9 913.747 299.74C914.787 299.58 915.707 299.4 916.507 299.2C917.427 298.96 918.247 298.68 918.967 298.36V276.1H924.547V322H918.967V303.34C918.247 303.66 917.427 303.94 916.507 304.18C915.707 304.38 914.787 304.56 913.747 304.72C912.707 304.88 911.567 304.96 910.327 304.96C905.727 304.96 902.247 303.76 899.887 301.36C897.527 298.92 896.347 295.28 896.347 290.44V276.1ZM1057.04 317.26V276.1H1062.02V317.26H1069.88V276.1H1074.86V322H1044.14V276.1H1049.12V317.26H1057.04ZM1205.8 317.26V276.1H1210.78V317.26H1218.64V276.1H1223.62V317.26H1226.86V330.4H1221.88V322H1192.9V276.1H1197.88V317.26H1205.8ZM0.74 408.1H15.02V425.14H19.4C21.6 425.14 23.66 425.42 25.58 425.98C27.54 426.54 29.22 427.42 30.62 428.62C32.02 429.78 33.12 431.26 33.92 433.06C34.76 434.86 35.18 437 35.18 439.48C35.18 441.92 34.76 444.06 33.92 445.9C33.12 447.7 32 449.2 30.56 450.4C29.12 451.6 27.4 452.5 25.4 453.1C23.44 453.7 21.28 454 18.92 454H9.44V413.08H0.74V408.1ZM15.02 429.64V449.5H18.92C22.28 449.5 24.86 448.66 26.66 446.98C28.5 445.26 29.42 442.76 29.42 439.48C29.42 436.04 28.5 433.54 26.66 431.98C24.86 430.42 22.34 429.64 19.1 429.64H15.02ZM182.858 454H177.578V408.1H182.858V454ZM156.338 425.14H160.118C162.118 425.14 163.978 425.42 165.698 425.98C167.458 426.54 168.978 427.42 170.258 428.62C171.538 429.78 172.538 431.26 173.258 433.06C174.018 434.86 174.398 437 174.398 439.48C174.398 441.92 174.018 444.06 173.258 445.9C172.538 447.7 171.518 449.2 170.198 450.4C168.918 451.6 167.378 452.5 165.578 453.1C163.778 453.7 161.818 454 159.698 454H151.058V408.1H156.338V425.14ZM156.338 429.64V449.5H159.638C162.598 449.5 164.878 448.66 166.478 446.98C168.118 445.26 168.938 442.76 168.938 439.48C168.938 436.04 168.138 433.54 166.538 431.98C164.938 430.42 162.698 429.64 159.818 429.64H156.338ZM307.916 425.14H315.896C318.096 425.14 320.156 425.42 322.076 425.98C324.036 426.54 325.716 427.42 327.116 428.62C328.516 429.78 329.616 431.26 330.416 433.06C331.256 434.86 331.676 437 331.676 439.48C331.676 441.92 331.256 444.06 330.416 445.9C329.616 447.7 328.496 449.2 327.056 450.4C325.616 451.6 323.896 452.5 321.896 453.1C319.936 453.7 317.776 454 315.416 454H302.336V408.1H307.916V425.14ZM307.916 429.64V449.5H315.416C318.776 449.5 321.356 448.66 323.156 446.98C324.996 445.26 325.916 442.76 325.916 439.48C325.916 436.04 324.996 433.54 323.156 431.98C321.356 430.42 318.836 429.64 315.596 429.64H307.916ZM474.733 428.26C474.653 425.74 474.373 423.48 473.893 421.48C473.453 419.44 472.793 417.72 471.913 416.32C471.073 414.88 469.973 413.8 468.613 413.08C467.293 412.32 465.713 411.94 463.873 411.94C462.273 411.94 460.893 412.24 459.733 412.84C458.613 413.4 457.673 414.16 456.913 415.12C456.193 416.04 455.633 417.1 455.233 418.3C454.833 419.46 454.573 420.64 454.453 421.84H448.753C448.913 419.8 449.373 417.9 450.133 416.14C450.933 414.38 451.973 412.86 453.253 411.58C454.533 410.3 456.073 409.3 457.873 408.58C459.673 407.82 461.673 407.44 463.873 407.44C469.073 407.44 473.153 409.4 476.113 413.32C479.113 417.24 480.613 423.18 480.613 431.14C480.613 434.9 480.273 438.26 479.593 441.22C478.953 444.14 477.953 446.62 476.593 448.66C475.273 450.7 473.573 452.26 471.493 453.34C469.413 454.42 466.933 454.96 464.053 454.96C462.173 454.96 460.353 454.68 458.593 454.12C456.833 453.56 455.233 452.66 453.793 451.42C452.393 450.18 451.213 448.6 450.253 446.68C449.293 444.76 448.673 442.44 448.393 439.72H454.153C454.353 441.16 454.693 442.54 455.173 443.86C455.653 445.14 456.293 446.28 457.093 447.28C457.893 448.24 458.853 449 459.973 449.56C461.133 450.12 462.493 450.4 464.053 450.4C465.973 450.4 467.593 450 468.913 449.2C470.233 448.36 471.313 447.2 472.153 445.72C472.993 444.2 473.613 442.4 474.013 440.32C474.413 438.2 474.653 435.84 474.733 433.24H457.273V428.26H474.733ZM602.791 454H597.511V408.1H602.791V428.32H607.051C607.171 424.48 607.531 421.24 608.131 418.6C608.731 415.92 609.511 413.76 610.471 412.12C611.471 410.44 612.651 409.24 614.011 408.52C615.411 407.8 616.951 407.44 618.631 407.44C620.471 407.44 622.111 407.86 623.551 408.7C624.991 409.5 626.191 410.84 627.151 412.72C628.151 414.56 628.911 417 629.431 420.04C629.951 423.08 630.211 426.8 630.211 431.2C630.211 435.6 629.931 439.32 629.371 442.36C628.851 445.36 628.091 447.8 627.091 449.68C626.091 451.56 624.871 452.92 623.431 453.76C621.991 454.56 620.351 454.96 618.511 454.96C616.711 454.96 615.111 454.58 613.711 453.82C612.351 453.06 611.171 451.84 610.171 450.16C609.211 448.44 608.451 446.2 607.891 443.44C607.371 440.68 607.071 437.3 606.991 433.3H602.791V454ZM618.571 450.46C619.651 450.46 620.571 450.1 621.331 449.38C622.091 448.66 622.711 447.54 623.191 446.02C623.671 444.46 624.011 442.46 624.211 440.02C624.451 437.58 624.571 434.64 624.571 431.2C624.571 427.68 624.451 424.7 624.211 422.26C624.011 419.78 623.671 417.78 623.191 416.26C622.711 414.74 622.091 413.64 621.331 412.96C620.571 412.28 619.651 411.94 618.571 411.94C617.531 411.94 616.631 412.3 615.871 413.02C615.111 413.74 614.491 414.88 614.011 416.44C613.531 417.96 613.171 419.94 612.931 422.38C612.731 424.82 612.631 427.76 612.631 431.2C612.631 434.6 612.731 437.52 612.931 439.96C613.171 442.36 613.531 444.34 614.011 445.9C614.491 447.46 615.111 448.62 615.871 449.38C616.631 450.1 617.531 450.46 618.571 450.46ZM746.509 454L757.369 433.72V433.6C756.289 433.32 755.229 432.9 754.189 432.34C753.149 431.78 752.229 431 751.429 430C750.669 429 750.049 427.78 749.569 426.34C749.089 424.9 748.849 423.16 748.849 421.12C748.849 418.92 749.209 417 749.929 415.36C750.689 413.72 751.709 412.36 752.989 411.28C754.269 410.2 755.769 409.4 757.489 408.88C759.209 408.36 761.069 408.1 763.069 408.1H775.789V454H770.209V434.56H763.009L752.689 454H746.509ZM770.209 412.66H763.309C760.829 412.66 758.769 413.36 757.129 414.76C755.529 416.16 754.729 418.26 754.729 421.06C754.729 424.22 755.569 426.5 757.249 427.9C758.969 429.26 761.189 429.94 763.909 429.94H770.209V412.66ZM907.747 406.72H913.747L912.907 439.78H908.527L907.747 406.72ZM906.727 454V445.96H914.767V454H906.727ZM1061.18 461.44C1057.98 461.44 1055.28 460.98 1053.08 460.06C1050.88 459.18 1049.1 457.82 1047.74 455.98C1046.38 454.18 1045.4 451.9 1044.8 449.14C1044.24 446.34 1043.96 443.04 1043.96 439.24V435.28C1043.96 433.2 1044 431.22 1044.08 429.34C1044.2 427.46 1044.5 425.66 1044.98 423.94C1045.42 422.38 1046.02 420.94 1046.78 419.62C1047.58 418.26 1048.58 417.1 1049.78 416.14C1051.02 415.18 1052.48 414.44 1054.16 413.92C1055.88 413.36 1057.86 413.08 1060.1 413.08C1062.66 413.08 1064.88 413.5 1066.76 414.34C1068.64 415.18 1070.2 416.32 1071.44 417.76C1072.68 419.2 1073.58 420.9 1074.14 422.86C1074.74 424.82 1075.04 426.94 1075.04 429.22V448.78H1070.6V444.88H1070.48C1069.24 447.92 1066.7 449.44 1062.86 449.44C1061.66 449.44 1060.5 449.22 1059.38 448.78C1058.3 448.34 1057.34 447.66 1056.5 446.74C1055.66 445.78 1055 444.54 1054.52 443.02C1054.04 441.5 1053.8 439.66 1053.8 437.5C1053.8 433.58 1054.66 430.6 1056.38 428.56C1058.1 426.48 1060.42 425.44 1063.34 425.44C1066.58 425.44 1068.92 426.74 1070.36 429.34H1070.72C1070.72 427.66 1070.54 426.06 1070.18 424.54C1069.86 423.02 1069.28 421.7 1068.44 420.58C1067.64 419.42 1066.56 418.52 1065.2 417.88C1063.84 417.2 1062.14 416.86 1060.1 416.86C1058.34 416.86 1056.82 417.08 1055.54 417.52C1054.26 417.96 1053.18 418.58 1052.3 419.38C1051.42 420.14 1050.72 421.06 1050.2 422.14C1049.68 423.18 1049.28 424.34 1049 425.62C1048.68 427.14 1048.5 428.74 1048.46 430.42C1048.42 432.1 1048.4 433.82 1048.4 435.58V437.86C1048.4 440.82 1048.54 443.5 1048.82 445.9C1049.14 448.3 1049.76 450.36 1050.68 452.08C1051.6 453.8 1052.92 455.12 1054.64 456.04C1056.36 457 1058.64 457.48 1061.48 457.48C1062.28 457.48 1063 457.46 1063.64 457.42C1064.28 457.38 1064.86 457.3 1065.38 457.18C1065.94 457.1 1066.48 457 1067 456.88C1067.52 456.76 1068.06 456.62 1068.62 456.46L1068.44 460.18C1067.28 460.62 1066.06 460.94 1064.78 461.14C1063.5 461.34 1062.3 461.44 1061.18 461.44ZM1064.24 445.66C1066 445.66 1067.44 445 1068.56 443.68C1069.68 442.36 1070.24 440.72 1070.24 438.76V436.48C1070.24 434.24 1069.68 432.46 1068.56 431.14C1067.48 429.82 1066.18 429.16 1064.66 429.16C1062.66 429.16 1061.22 429.9 1060.34 431.38C1059.46 432.86 1059.02 434.84 1059.02 437.32C1059.02 438.52 1059.1 439.62 1059.26 440.62C1059.42 441.62 1059.7 442.5 1060.1 443.26C1060.5 444.02 1061.04 444.62 1061.72 445.06C1062.4 445.46 1063.24 445.66 1064.24 445.66ZM1212.82 422.86H1204.78L1203.46 431.86H1211.5L1212.82 422.86ZM1201.12 448.06H1196.74L1198.48 436.12H1192.12V431.86H1199.08L1200.4 422.86H1193.92V418.6H1201.06L1202.56 408.16H1206.94L1205.44 418.6H1213.48L1214.98 408.16H1219.36L1217.86 418.6H1224.34V422.86H1217.2L1215.88 431.86H1222.54V436.12H1215.28L1213.54 448.06H1209.16L1210.9 436.12H1202.86L1201.12 448.06ZM16.22 545.44C13.82 545.76 12.08 546.62 11 548.02C9.92 549.38 9.38 551 9.38 552.88C9.38 555.16 9.94 556.88 11.06 558.04C12.18 559.2 13.78 559.96 15.86 560.32L16.22 560.38V545.44ZM20.54 581.8C23.34 581.44 25.3 580.56 26.42 579.16C27.58 577.72 28.16 575.98 28.16 573.94C28.16 572.02 27.6 570.4 26.48 569.08C25.4 567.72 23.52 566.8 20.84 566.32L20.18 566.2V581.8H20.54ZM16.22 592.96V586.42C12.1 586.1 8.94 584.84 6.74 582.64C4.54 580.44 3.16 577.32 2.6 573.28H7.88C8.04 574.32 8.3 575.32 8.66 576.28C9.02 577.24 9.52 578.1 10.16 578.86C10.8 579.62 11.62 580.26 12.62 580.78C13.62 581.3 14.82 581.64 16.22 581.8V565.48L15.2 565.3C11.56 564.62 8.8 563.3 6.92 561.34C5.04 559.34 4.1 556.52 4.1 552.88C4.1 551.32 4.38 549.88 4.94 548.56C5.54 547.2 6.38 546 7.46 544.96C8.54 543.92 9.82 543.08 11.3 542.44C12.78 541.76 14.42 541.34 16.22 541.18V536.32H20.18V541.18C24.14 541.5 27.16 542.78 29.24 545.02C31.36 547.26 32.52 550.12 32.72 553.6H27.5C27.38 552.64 27.16 551.72 26.84 550.84C26.52 549.92 26.08 549.1 25.52 548.38C24.96 547.62 24.24 547 23.36 546.52C22.48 546 21.42 545.64 20.18 545.44V561.1L21.86 561.4C25.94 562.12 28.9 563.52 30.74 565.6C32.58 567.68 33.5 570.3 33.5 573.46C33.5 577.22 32.38 580.24 30.14 582.52C27.94 584.8 24.62 586.1 20.18 586.42V592.96H16.22ZM177.938 539.56H182.558L156.218 586H151.598L177.938 539.56ZM149.618 549.94C149.618 548.22 149.838 546.72 150.278 545.44C150.758 544.16 151.398 543.1 152.198 542.26C153.038 541.38 153.998 540.74 155.078 540.34C156.158 539.9 157.298 539.68 158.498 539.68C159.698 539.68 160.838 539.9 161.918 540.34C162.998 540.74 163.938 541.38 164.738 542.26C165.578 543.1 166.218 544.16 166.658 545.44C167.138 546.72 167.378 548.22 167.378 549.94C167.378 551.66 167.138 553.16 166.658 554.44C166.218 555.72 165.578 556.8 164.738 557.68C163.938 558.52 162.998 559.16 161.918 559.6C160.838 560.04 159.698 560.26 158.498 560.26C155.978 560.26 153.858 559.4 152.138 557.68C150.458 555.96 149.618 553.38 149.618 549.94ZM158.498 543.4C155.578 543.36 154.118 545.54 154.118 549.94C154.118 554.3 155.578 556.5 158.498 556.54C159.898 556.54 160.978 555.98 161.738 554.86C162.498 553.74 162.878 552.1 162.878 549.94C162.878 547.74 162.498 546.1 161.738 545.02C160.978 543.94 159.898 543.4 158.498 543.4ZM175.598 586.42C174.358 586.42 173.198 586.2 172.118 585.76C171.038 585.32 170.098 584.68 169.298 583.84C168.498 582.96 167.858 581.88 167.378 580.6C166.938 579.32 166.718 577.82 166.718 576.1C166.718 574.38 166.958 572.88 167.438 571.6C167.918 570.32 168.558 569.26 169.358 568.42C170.158 567.54 171.098 566.9 172.178 566.5C173.258 566.06 174.398 565.84 175.598 565.84C176.838 565.84 177.998 566.06 179.078 566.5C180.158 566.9 181.098 567.54 181.898 568.42C182.698 569.26 183.318 570.32 183.758 571.6C184.238 572.88 184.478 574.38 184.478 576.1C184.478 577.82 184.238 579.32 183.758 580.6C183.318 581.88 182.698 582.96 181.898 583.84C181.098 584.68 180.158 585.32 179.078 585.76C177.998 586.2 176.838 586.42 175.598 586.42ZM175.538 582.7C176.938 582.7 178.018 582.14 178.778 581.02C179.578 579.9 179.978 578.26 179.978 576.1C179.978 573.9 179.578 572.26 178.778 571.18C178.018 570.1 176.938 569.56 175.538 569.56C174.138 569.56 173.058 570.08 172.298 571.12C171.578 572.16 171.218 573.82 171.218 576.1C171.218 578.3 171.578 579.96 172.298 581.08C173.058 582.16 174.138 582.7 175.538 582.7ZM329.096 560.38H323.456L315.896 545.98H315.476L307.496 560.44H302.336L313.616 540.1H318.056L329.096 560.38ZM456.853 548.62C456.853 549.62 456.953 550.5 457.153 551.26C457.353 552.02 457.653 552.78 458.053 553.54C458.453 554.26 458.933 555.02 459.493 555.82C460.053 556.58 460.673 557.46 461.353 558.46C462.473 557.62 463.453 556.86 464.293 556.18C465.173 555.46 465.893 554.74 466.453 554.02C467.013 553.26 467.433 552.46 467.713 551.62C467.993 550.74 468.133 549.72 468.133 548.56C468.133 546.8 467.613 545.42 466.573 544.42C465.573 543.42 464.253 542.92 462.613 542.92C460.773 542.92 459.353 543.48 458.353 544.6C457.353 545.72 456.853 547.06 456.853 548.62ZM459.073 564.76C457.913 565.56 456.953 566.32 456.193 567.04C455.433 567.76 454.833 568.48 454.393 569.2C453.993 569.92 453.713 570.68 453.553 571.48C453.393 572.24 453.313 573.08 453.313 574C453.313 575.4 453.533 576.64 453.973 577.72C454.413 578.8 455.013 579.7 455.773 580.42C456.573 581.14 457.493 581.7 458.533 582.1C459.613 582.46 460.753 582.64 461.953 582.64C463.833 582.64 465.433 582.34 466.753 581.74C468.073 581.14 469.193 580.32 470.113 579.28C469.953 579.08 469.793 578.88 469.633 578.68C469.513 578.44 469.353 578.2 469.153 577.96L459.433 564.52L459.073 564.76ZM479.413 586C478.013 586 476.833 585.76 475.873 585.28C474.913 584.76 473.873 583.88 472.753 582.64C471.473 583.96 469.933 585.02 468.133 585.82C466.373 586.58 464.273 586.96 461.833 586.96C459.553 586.96 457.533 586.64 455.773 586C454.013 585.36 452.533 584.48 451.333 583.36C450.173 582.24 449.293 580.94 448.693 579.46C448.093 577.94 447.793 576.3 447.793 574.54C447.793 573.02 447.973 571.66 448.333 570.46C448.733 569.26 449.293 568.14 450.013 567.1C450.773 566.02 451.713 565 452.833 564.04C453.993 563.08 455.353 562.08 456.913 561.04C455.353 558.88 454.093 556.9 453.133 555.1C452.213 553.26 451.753 551.2 451.753 548.92C451.753 547.4 452.013 546.02 452.533 544.78C453.053 543.5 453.793 542.42 454.753 541.54C455.713 540.62 456.853 539.92 458.173 539.44C459.493 538.96 460.953 538.72 462.553 538.72C464.233 538.72 465.733 538.98 467.053 539.5C468.373 539.98 469.493 540.66 470.413 541.54C471.373 542.38 472.093 543.4 472.573 544.6C473.053 545.8 473.293 547.12 473.293 548.56C473.293 549.96 473.073 551.24 472.633 552.4C472.193 553.56 471.573 554.66 470.773 555.7C469.973 556.74 468.973 557.76 467.773 558.76C466.613 559.76 465.293 560.76 463.813 561.76L472.513 573.94L472.873 574.42C473.433 572.74 473.873 570.94 474.193 569.02C474.513 567.1 474.793 565.12 475.033 563.08H479.533C479.453 564.24 479.333 565.46 479.173 566.74C479.053 568.02 478.853 569.32 478.573 570.64C478.293 571.96 477.933 573.28 477.493 574.6C477.053 575.92 476.513 577.18 475.873 578.38C476.433 579.06 476.933 579.6 477.373 580C477.813 580.36 478.253 580.64 478.693 580.84C479.173 581.04 479.673 581.18 480.193 581.26C480.753 581.3 481.393 581.32 482.113 581.32V586H479.413ZM613.171 558.76L606.571 569.5L601.711 566.02L609.991 556.48V556.3L597.991 553.12L599.971 547.36L611.251 552.82L611.431 552.76L610.171 540.1H616.231L614.971 552.76L615.151 552.82L626.371 547.36L628.411 553.12L616.411 556.3V556.48L624.691 566.02L619.831 569.5L613.291 558.76H613.171ZM766.909 593.8C765.229 592.16 763.669 590.38 762.229 588.46C760.789 586.54 759.529 584.46 758.449 582.22C757.409 579.94 756.589 577.48 755.989 574.84C755.429 572.2 755.149 569.34 755.149 566.26C755.149 563.14 755.429 560.28 755.989 557.68C756.589 555.04 757.409 552.6 758.449 550.36C759.489 548.12 760.729 546.04 762.169 544.12C763.609 542.2 765.189 540.4 766.909 538.72H772.489C770.849 540.4 769.309 542.22 767.869 544.18C766.429 546.14 765.149 548.26 764.029 550.54C762.949 552.82 762.089 555.28 761.449 557.92C760.809 560.52 760.489 563.3 760.489 566.26C760.489 569.22 760.809 572.04 761.449 574.72C762.129 577.36 763.029 579.84 764.149 582.16C765.269 584.48 766.549 586.6 767.989 588.52C769.429 590.48 770.929 592.24 772.489 593.8H766.909ZM905.827 538.72C907.507 540.36 909.067 542.14 910.507 544.06C911.947 545.98 913.187 548.08 914.227 550.36C915.307 552.6 916.127 555.04 916.687 557.68C917.287 560.32 917.587 563.18 917.587 566.26C917.587 569.38 917.287 572.26 916.687 574.9C916.127 577.5 915.327 579.92 914.287 582.16C913.247 584.4 912.007 586.48 910.567 588.4C909.127 590.32 907.547 592.12 905.827 593.8H900.247C901.847 592.12 903.367 590.3 904.807 588.34C906.287 586.38 907.567 584.26 908.647 581.98C909.767 579.7 910.647 577.26 911.287 574.66C911.927 572.02 912.247 569.22 912.247 566.26C912.247 563.3 911.907 560.5 911.227 557.86C910.587 555.18 909.707 552.7 908.587 550.42C907.467 548.1 906.187 545.96 904.747 544C903.307 542.04 901.807 540.28 900.247 538.72H905.827ZM1051.28 563.68H1067.72V569.2H1051.28V563.68ZM1210.66 578.38H1205.8V566.86H1194.46V562.24H1205.8V550.78H1210.66V562.24H1222.06V566.86H1210.66V578.38ZM5 724.84H31.4V729.28H5V724.84ZM147.758 696.22H186.158V700.6H147.758V696.22ZM301.916 688.84H329.516V693.4H301.916V688.84ZM301.916 704.26V699.7H329.516V704.26H301.916ZM474.853 670.72H479.833L452.593 725.8H447.613L474.853 670.72ZM606.211 670.72H622.891V674.92H611.311V721.6H622.891V725.8H606.211V670.72ZM769.009 725.8H752.329V721.6H763.909V674.92H752.329V670.72H769.009V725.8ZM898.867 700.66V695.86H901.867C903.707 695.86 904.927 695.52 905.527 694.84C906.127 694.12 906.427 692.94 906.427 691.3V681.4C906.427 679.4 906.667 677.72 907.147 676.36C907.667 675 908.467 673.9 909.547 673.06C910.627 672.22 912.027 671.62 913.747 671.26C915.467 670.9 917.547 670.72 919.987 670.72H921.307V674.92C919.467 674.92 917.907 675.02 916.627 675.22C915.387 675.38 914.387 675.7 913.627 676.18C912.867 676.62 912.327 677.24 912.007 678.04C911.687 678.8 911.527 679.8 911.527 681.04V691C911.527 691.8 911.467 692.6 911.347 693.4C911.267 694.16 911.047 694.88 910.687 695.56C910.327 696.2 909.807 696.76 909.127 697.24C908.447 697.72 907.527 698.04 906.367 698.2V698.44C907.527 698.6 908.447 698.92 909.127 699.4C909.807 699.88 910.327 700.46 910.687 701.14C911.047 701.78 911.267 702.5 911.347 703.3C911.467 704.1 911.527 704.88 911.527 705.64V715.6C911.527 716.84 911.687 717.84 912.007 718.6C912.327 719.4 912.867 720.02 913.627 720.46C914.387 720.9 915.387 721.2 916.627 721.36C917.907 721.52 919.467 721.6 921.307 721.6V725.8H919.987C917.547 725.8 915.467 725.62 913.747 725.26C912.027 724.94 910.627 724.38 909.547 723.58C908.467 722.78 907.667 721.7 907.147 720.34C906.667 718.98 906.427 717.3 906.427 715.3V705.22C906.427 703.58 906.127 702.42 905.527 701.74C904.927 701.02 903.707 700.66 901.867 700.66H898.867ZM1071.38 695.86V700.66H1068.38C1067.46 700.66 1066.7 700.74 1066.1 700.9C1065.5 701.06 1065.02 701.32 1064.66 701.68C1064.34 702.04 1064.12 702.52 1064 703.12C1063.88 703.68 1063.82 704.38 1063.82 705.22V715.12C1063.82 717.12 1063.56 718.8 1063.04 720.16C1062.56 721.52 1061.78 722.62 1060.7 723.46C1059.62 724.3 1058.22 724.9 1056.5 725.26C1054.78 725.62 1052.7 725.8 1050.26 725.8H1048.94V721.6C1050.78 721.6 1052.32 721.5 1053.56 721.3C1054.84 721.14 1055.86 720.82 1056.62 720.34C1057.38 719.9 1057.92 719.28 1058.24 718.48C1058.56 717.72 1058.72 716.72 1058.72 715.48V705.52C1058.72 704.76 1058.76 703.98 1058.84 703.18C1058.96 702.38 1059.2 701.66 1059.56 701.02C1059.92 700.34 1060.44 699.76 1061.12 699.28C1061.8 698.8 1062.72 698.48 1063.88 698.32V698.08C1062.72 697.92 1061.8 697.6 1061.12 697.12C1060.44 696.64 1059.92 696.08 1059.56 695.44C1059.2 694.76 1058.96 694.04 1058.84 693.28C1058.76 692.48 1058.72 691.68 1058.72 690.88V680.92C1058.72 679.68 1058.56 678.68 1058.24 677.92C1057.92 677.12 1057.38 676.5 1056.62 676.06C1055.86 675.62 1054.84 675.32 1053.56 675.16C1052.32 675 1050.78 674.92 1048.94 674.92V670.72H1050.26C1052.7 670.72 1054.78 670.9 1056.5 671.26C1058.22 671.58 1059.62 672.16 1060.7 673C1061.78 673.8 1062.56 674.88 1063.04 676.24C1063.56 677.56 1063.82 679.22 1063.82 681.22V691.3C1063.82 692.14 1063.88 692.86 1064 693.46C1064.12 694.02 1064.34 694.48 1064.66 694.84C1065.02 695.2 1065.5 695.46 1066.1 695.62C1066.7 695.78 1067.46 695.86 1068.38 695.86H1071.38ZM1214.86 672.1H1219.6L1216.36 687.76H1207.72L1214.86 672.1ZM1202.86 672.1H1207.6L1204.36 687.76H1195.72L1202.86 672.1ZM22.4 819.76H17.66L20.9 804.1H29.54L22.4 819.76ZM10.4 819.76H5.66L8.9 804.1H17.54L10.4 819.76ZM167.858 804.1H172.598L169.358 819.76H160.718L167.858 804.1ZM314.816 819.76H310.076L313.316 804.1H321.956L314.816 819.76ZM466.933 822.16L457.513 834.46L463.453 846.58H455.953L449.653 834.46L459.133 822.16H466.933ZM480.373 822.16L470.953 834.46L476.893 846.58H469.333L463.033 834.46L472.513 822.16H480.373ZM597.271 846.58L606.691 834.28L600.751 822.16H608.311L614.611 834.28L605.131 846.58H597.271ZM610.711 846.58L620.131 834.28L614.191 822.16H621.691L627.991 834.28L618.511 846.58H610.711ZM758.989 826.42V818.38H767.029V826.42H758.989ZM755.209 857.62L758.449 841.96H767.089L759.949 857.62H755.209ZM906.727 826.42V818.38H914.767V826.42H906.727ZM906.727 850V841.96H914.767V850H906.727ZM1044.14 802.72H1049.12L1076.36 857.8H1071.38L1044.14 802.72ZM1205.98 802.72H1210.48V857.8H1205.98V802.72ZM11.96 989.62L15.2 973.96H23.84L16.7 989.62H11.96ZM162.938 973.96H170.978V982H162.938V973.96ZM301.196 963.88V960.16L329.276 946.36V951.58L307.736 962.02L329.276 972.46V977.68L301.196 963.88ZM478.933 960.16V963.88L450.853 977.68V972.46L472.393 962.02L450.853 951.58V946.36L478.933 960.16ZM621.331 946.6C621.331 944.32 620.591 942.46 619.111 941.02C617.671 939.58 615.711 938.86 613.231 938.86C610.231 938.86 607.911 939.78 606.271 941.62C604.631 943.46 603.851 946.14 603.931 949.66H598.831C598.751 947.34 599.031 945.24 599.671 943.36C600.351 941.44 601.311 939.8 602.551 938.44C603.831 937.08 605.371 936.04 607.171 935.32C608.971 934.56 610.951 934.18 613.111 934.18C615.471 934.18 617.491 934.54 619.171 935.26C620.891 935.94 622.311 936.84 623.431 937.96C624.551 939.08 625.371 940.36 625.891 941.8C626.411 943.24 626.671 944.68 626.671 946.12C626.671 947.68 626.471 949.06 626.071 950.26C625.711 951.46 625.211 952.54 624.571 953.5C623.971 954.42 623.271 955.26 622.471 956.02C621.711 956.78 620.931 957.5 620.131 958.18L617.911 960.1C617.311 960.66 616.831 961.12 616.471 961.48C616.151 961.8 615.891 962.14 615.691 962.5C615.531 962.86 615.431 963.26 615.391 963.7C615.351 964.14 615.331 964.72 615.331 965.44V968.38H610.411V964.54C610.411 963.54 610.451 962.72 610.531 962.08C610.651 961.4 610.851 960.8 611.131 960.28C611.451 959.72 611.891 959.18 612.451 958.66C613.051 958.1 613.811 957.42 614.731 956.62L617.251 954.4C618.571 953.32 619.571 952.18 620.251 950.98C620.971 949.74 621.331 948.28 621.331 946.6ZM608.851 982V973.96H616.891V982H608.851ZM749.149 982V977.5H760.069V949.24H749.149V945.04H753.169C755.889 945.04 757.869 944.4 759.109 943.12C759.749 942.44 760.209 941.66 760.489 940.78C760.809 939.9 760.969 938.76 760.969 937.36H765.469V977.5H776.569V982H749.149ZM897.187 952.36C897.107 950.04 897.387 947.94 898.027 946.06C898.707 944.14 899.667 942.5 900.907 941.14C902.187 939.78 903.727 938.74 905.527 938.02C907.327 937.26 909.327 936.88 911.527 936.88C913.887 936.88 915.927 937.24 917.647 937.96C919.367 938.64 920.787 939.56 921.907 940.72C923.027 941.84 923.847 943.14 924.367 944.62C924.927 946.06 925.207 947.52 925.207 949C925.207 950.44 925.047 951.8 924.727 953.08C924.407 954.32 923.867 955.6 923.107 956.92C922.387 958.24 921.407 959.62 920.167 961.06C918.967 962.5 917.447 964.1 915.607 965.86L908.707 972.46C907.747 973.38 906.947 974.14 906.307 974.74C905.707 975.3 905.207 975.76 904.807 976.12C904.367 976.56 904.027 976.88 903.787 977.08V977.2H925.807V982H896.587V977.8L911.827 962.8C913.107 961.52 914.247 960.34 915.247 959.26C916.247 958.14 917.067 957.06 917.707 956.02C918.387 954.98 918.887 953.92 919.207 952.84C919.567 951.76 919.747 950.58 919.747 949.3C919.747 948.18 919.547 947.14 919.147 946.18C918.747 945.18 918.187 944.34 917.467 943.66C916.747 942.94 915.887 942.38 914.887 941.98C913.887 941.58 912.787 941.38 911.587 941.38C908.587 941.38 906.287 942.34 904.687 944.26C903.087 946.14 902.327 948.84 902.407 952.36H897.187ZM1056.14 961.78V957.04H1059.98C1062.58 957.04 1064.56 956.32 1065.92 954.88C1067.28 953.4 1067.96 951.48 1067.96 949.12C1067.96 946.76 1067.2 944.9 1065.68 943.54C1064.16 942.14 1062.2 941.44 1059.8 941.44C1057.04 941.44 1054.84 942.16 1053.2 943.6C1051.56 945 1050.7 947.22 1050.62 950.26H1045.4C1045.44 948.54 1045.74 946.88 1046.3 945.28C1046.9 943.64 1047.8 942.2 1049 940.96C1050.2 939.72 1051.68 938.74 1053.44 938.02C1055.24 937.26 1057.36 936.88 1059.8 936.88C1061.92 936.88 1063.82 937.18 1065.5 937.78C1067.18 938.34 1068.6 939.14 1069.76 940.18C1070.92 941.18 1071.8 942.4 1072.4 943.84C1073.04 945.24 1073.36 946.76 1073.36 948.4C1073.36 951.08 1072.68 953.26 1071.32 954.94C1069.96 956.62 1068 957.94 1065.44 958.9V959.02C1066.64 959.3 1067.78 959.74 1068.86 960.34C1069.98 960.9 1070.94 961.64 1071.74 962.56C1072.58 963.44 1073.24 964.52 1073.72 965.8C1074.2 967.04 1074.44 968.5 1074.44 970.18C1074.44 971.9 1074.1 973.54 1073.42 975.1C1072.74 976.62 1071.76 977.96 1070.48 979.12C1069.2 980.28 1067.62 981.2 1065.74 981.88C1063.86 982.56 1061.72 982.9 1059.32 982.9C1056.84 982.9 1054.7 982.54 1052.9 981.82C1051.1 981.1 1049.6 980.14 1048.4 978.94C1047.24 977.7 1046.34 976.28 1045.7 974.68C1045.1 973.04 1044.76 971.32 1044.68 969.52H1049.84C1050.16 972.52 1051.22 974.76 1053.02 976.24C1054.82 977.68 1057.08 978.4 1059.8 978.4C1061.08 978.4 1062.28 978.2 1063.4 977.8C1064.52 977.4 1065.5 976.84 1066.34 976.12C1067.18 975.36 1067.84 974.46 1068.32 973.42C1068.8 972.34 1069.04 971.14 1069.04 969.82C1069.04 967.34 1068.28 965.38 1066.76 963.94C1065.24 962.5 1062.98 961.78 1059.98 961.78H1056.14ZM1212.88 966.58V942.88H1212.64C1212.48 943.28 1212.28 943.7 1212.04 944.14C1211.6 944.98 1210.94 946.12 1210.06 947.56L1197.7 966.58H1212.88ZM1218.04 971.08V982H1212.88V971.08H1192.36V966.88L1211.2 937.54H1218.04V966.52H1223.86V971.08H1218.04ZM8.48 1102.24C8.84 1104.88 9.78 1106.92 11.3 1108.36C12.86 1109.8 15.06 1110.5 17.9 1110.46C19.14 1110.46 20.36 1110.26 21.56 1109.86C22.76 1109.42 23.8 1108.76 24.68 1107.88C25.6 1107 26.34 1105.9 26.9 1104.58C27.46 1103.26 27.74 1101.66 27.74 1099.78C27.74 1098.06 27.48 1096.56 26.96 1095.28C26.48 1093.96 25.8 1092.86 24.92 1091.98C24.08 1091.06 23.06 1090.38 21.86 1089.94C20.7 1089.46 19.46 1089.22 18.14 1089.22C16.14 1089.22 14.44 1089.58 13.04 1090.3C11.64 1090.98 10.52 1091.96 9.68 1093.24H4.82L6.14 1069.54H30.5V1074.28H10.88L10.16 1088.38H10.28C11.08 1087.46 12.2 1086.62 13.64 1085.86C15.12 1085.1 16.96 1084.72 19.16 1084.72C20.96 1084.72 22.7 1085 24.38 1085.56C26.1 1086.12 27.6 1087.02 28.88 1088.26C30.2 1089.46 31.26 1091 32.06 1092.88C32.86 1094.76 33.26 1097.02 33.26 1099.66C33.26 1101.98 32.9 1104.08 32.18 1105.96C31.46 1107.84 30.44 1109.44 29.12 1110.76C27.8 1112.08 26.18 1113.1 24.26 1113.82C22.38 1114.54 20.26 1114.9 17.9 1114.9C15.34 1114.9 13.16 1114.54 11.36 1113.82C9.6 1113.1 8.14 1112.16 6.98 1111C5.82 1109.8 4.94 1108.44 4.34 1106.92C3.78 1105.4 3.42 1103.84 3.26 1102.24H8.48ZM175.898 1079.14C175.458 1077.34 174.598 1075.92 173.318 1074.88C172.078 1073.8 170.318 1073.26 168.038 1073.26C166.078 1073.26 164.418 1073.7 163.058 1074.58C161.698 1075.42 160.598 1076.64 159.758 1078.24C158.918 1079.8 158.298 1081.72 157.898 1084C157.538 1086.28 157.338 1088.82 157.298 1091.62H157.478C158.518 1089.74 160.018 1088.28 161.978 1087.24C163.978 1086.16 166.238 1085.62 168.758 1085.62C170.358 1085.62 171.958 1085.88 173.558 1086.4C175.198 1086.92 176.638 1087.76 177.878 1088.92C179.158 1090.04 180.198 1091.48 180.998 1093.24C181.798 1095 182.198 1097.14 182.198 1099.66C182.198 1101.86 181.858 1103.9 181.178 1105.78C180.498 1107.62 179.518 1109.22 178.238 1110.58C176.958 1111.94 175.398 1113 173.558 1113.76C171.718 1114.52 169.638 1114.9 167.318 1114.9C165.318 1114.9 163.378 1114.6 161.498 1114C159.618 1113.44 157.958 1112.4 156.518 1110.88C155.078 1109.36 153.918 1107.26 153.038 1104.58C152.198 1101.9 151.778 1098.48 151.778 1094.32C151.778 1085.88 153.118 1079.54 155.798 1075.3C158.478 1071.02 162.638 1068.88 168.278 1068.88C172.078 1068.88 175.078 1069.82 177.278 1071.7C179.478 1073.54 180.838 1076.02 181.358 1079.14H175.898ZM167.378 1110.34C168.498 1110.34 169.598 1110.14 170.678 1109.74C171.798 1109.34 172.798 1108.74 173.678 1107.94C174.558 1107.1 175.258 1106.04 175.778 1104.76C176.298 1103.48 176.558 1101.94 176.558 1100.14C176.558 1098.5 176.318 1097.06 175.838 1095.82C175.358 1094.58 174.698 1093.56 173.858 1092.76C173.018 1091.92 172.038 1091.3 170.918 1090.9C169.798 1090.46 168.618 1090.24 167.378 1090.24C166.018 1090.24 164.758 1090.44 163.598 1090.84C162.478 1091.24 161.498 1091.84 160.658 1092.64C159.818 1093.44 159.158 1094.46 158.678 1095.7C158.238 1096.94 158.018 1098.42 158.018 1100.14C158.018 1101.94 158.278 1103.48 158.798 1104.76C159.358 1106.04 160.058 1107.1 160.898 1107.94C161.778 1108.74 162.778 1109.34 163.898 1109.74C165.018 1110.14 166.178 1110.34 167.378 1110.34ZM324.476 1074.34H300.776V1069.54H330.716V1073.08L311.396 1114H305.696L324.476 1074.34ZM450.433 1080.82C450.433 1079.14 450.733 1077.58 451.333 1076.14C451.973 1074.7 452.893 1073.44 454.093 1072.36C455.293 1071.28 456.753 1070.44 458.473 1069.84C460.233 1069.2 462.233 1068.88 464.473 1068.88C466.713 1068.88 468.693 1069.2 470.413 1069.84C472.173 1070.44 473.653 1071.28 474.853 1072.36C476.053 1073.44 476.973 1074.7 477.613 1076.14C478.253 1077.58 478.573 1079.14 478.573 1080.82C478.573 1082.18 478.373 1083.44 477.973 1084.6C477.573 1085.76 477.033 1086.8 476.353 1087.72C475.673 1088.6 474.893 1089.36 474.013 1090C473.133 1090.6 472.233 1091.04 471.313 1091.32V1091.44C472.273 1091.68 473.253 1092.08 474.253 1092.64C475.253 1093.16 476.173 1093.88 477.013 1094.8C477.853 1095.68 478.533 1096.76 479.053 1098.04C479.573 1099.28 479.833 1100.74 479.833 1102.42C479.833 1104.22 479.493 1105.88 478.813 1107.4C478.173 1108.92 477.193 1110.24 475.873 1111.36C474.593 1112.44 472.993 1113.3 471.073 1113.94C469.193 1114.58 466.993 1114.92 464.473 1114.96C461.953 1115 459.733 1114.7 457.813 1114.06C455.933 1113.46 454.353 1112.6 453.073 1111.48C451.793 1110.36 450.813 1109.02 450.133 1107.46C449.493 1105.9 449.173 1104.22 449.173 1102.42C449.173 1100.74 449.433 1099.28 449.953 1098.04C450.513 1096.76 451.213 1095.68 452.053 1094.8C452.893 1093.88 453.813 1093.16 454.813 1092.64C455.813 1092.08 456.773 1091.68 457.693 1091.44V1091.32C456.773 1091.04 455.873 1090.58 454.993 1089.94C454.113 1089.3 453.333 1088.54 452.653 1087.66C451.973 1086.74 451.433 1085.72 451.033 1084.6C450.633 1083.44 450.433 1082.18 450.433 1080.82ZM464.473 1073.2C463.353 1073.2 462.273 1073.36 461.233 1073.68C460.233 1074 459.333 1074.5 458.533 1075.18C457.773 1075.86 457.153 1076.72 456.673 1077.76C456.233 1078.76 456.013 1079.94 456.013 1081.3C456.013 1082.66 456.233 1083.84 456.673 1084.84C457.153 1085.84 457.773 1086.68 458.533 1087.36C459.333 1088.04 460.233 1088.56 461.233 1088.92C462.273 1089.24 463.353 1089.4 464.473 1089.4C465.553 1089.4 466.593 1089.24 467.593 1088.92C468.633 1088.56 469.533 1088.04 470.293 1087.36C471.093 1086.68 471.733 1085.84 472.213 1084.84C472.693 1083.84 472.933 1082.66 472.933 1081.3C472.933 1079.94 472.693 1078.76 472.213 1077.76C471.773 1076.72 471.153 1075.86 470.353 1075.18C469.593 1074.5 468.693 1074 467.653 1073.68C466.653 1073.36 465.593 1073.2 464.473 1073.2ZM464.473 1110.64C465.793 1110.64 467.053 1110.48 468.253 1110.16C469.453 1109.84 470.493 1109.34 471.373 1108.66C472.293 1107.94 473.013 1107.06 473.533 1106.02C474.053 1104.94 474.313 1103.66 474.313 1102.18C474.313 1100.7 474.033 1099.44 473.473 1098.4C472.953 1097.32 472.233 1096.44 471.313 1095.76C470.433 1095.04 469.393 1094.52 468.193 1094.2C467.033 1093.84 465.793 1093.66 464.473 1093.66C463.193 1093.66 461.973 1093.84 460.813 1094.2C459.653 1094.52 458.613 1095.04 457.693 1095.76C456.813 1096.44 456.093 1097.32 455.533 1098.4C455.013 1099.44 454.753 1100.7 454.753 1102.18C454.753 1103.66 455.013 1104.94 455.533 1106.02C456.093 1107.06 456.813 1107.94 457.693 1108.66C458.613 1109.34 459.653 1109.84 460.813 1110.16C461.973 1110.48 463.193 1110.64 464.473 1110.64ZM612.631 1073.44C611.511 1073.44 610.411 1073.64 609.331 1074.04C608.291 1074.4 607.351 1074.98 606.511 1075.78C605.671 1076.58 604.991 1077.6 604.471 1078.84C603.951 1080.08 603.691 1081.56 603.691 1083.28C603.691 1084.84 603.931 1086.22 604.411 1087.42C604.891 1088.58 605.531 1089.56 606.331 1090.36C607.171 1091.16 608.131 1091.78 609.211 1092.22C610.331 1092.62 611.511 1092.82 612.751 1092.82C614.071 1092.82 615.291 1092.62 616.411 1092.22C617.571 1091.78 618.571 1091.16 619.411 1090.36C620.251 1089.56 620.891 1088.58 621.331 1087.42C621.811 1086.22 622.051 1084.84 622.051 1083.28C622.051 1081.64 621.771 1080.22 621.211 1079.02C620.691 1077.78 619.991 1076.76 619.111 1075.96C618.231 1075.12 617.231 1074.5 616.111 1074.1C614.991 1073.66 613.831 1073.44 612.631 1073.44ZM604.111 1103.98C604.671 1106.18 605.671 1107.82 607.111 1108.9C608.591 1109.98 610.471 1110.52 612.751 1110.52C616.071 1110.52 618.551 1109.06 620.191 1106.14C621.831 1103.22 622.651 1098.48 622.651 1091.92H622.411C621.451 1093.6 620.071 1094.92 618.271 1095.88C616.471 1096.8 614.311 1097.26 611.791 1097.26C610.231 1097.26 608.651 1097.02 607.051 1096.54C605.451 1096.02 603.991 1095.2 602.671 1094.08C601.351 1092.96 600.271 1091.52 599.431 1089.76C598.591 1088 598.171 1085.88 598.171 1083.4C598.171 1081.32 598.531 1079.4 599.251 1077.64C599.971 1075.84 600.971 1074.3 602.251 1073.02C603.531 1071.74 605.051 1070.74 606.811 1070.02C608.611 1069.26 610.591 1068.88 612.751 1068.88C615.071 1068.88 617.171 1069.28 619.051 1070.08C620.971 1070.88 622.591 1072.1 623.911 1073.74C625.271 1075.38 626.311 1077.48 627.031 1080.04C627.751 1082.6 628.111 1085.62 628.111 1089.1C628.111 1093.86 627.751 1097.88 627.031 1101.16C626.311 1104.44 625.271 1107.1 623.911 1109.14C622.591 1111.18 620.931 1112.66 618.931 1113.58C616.971 1114.46 614.731 1114.9 612.211 1114.9C610.691 1114.9 609.191 1114.7 607.711 1114.3C606.271 1113.9 604.951 1113.26 603.751 1112.38C602.551 1111.5 601.531 1110.38 600.691 1109.02C599.851 1107.62 599.271 1105.94 598.951 1103.98H604.111ZM746.809 1091.92C746.809 1084.04 748.129 1078.24 750.769 1074.52C753.409 1070.8 757.129 1068.94 761.929 1068.94C766.729 1068.94 770.469 1070.8 773.149 1074.52C775.829 1078.24 777.169 1084.04 777.169 1091.92C777.169 1099.8 775.849 1105.6 773.209 1109.32C770.569 1113.04 766.809 1114.9 761.929 1114.9C757.049 1114.9 753.309 1113.04 750.709 1109.32C748.109 1105.6 746.809 1099.8 746.809 1091.92ZM761.929 1110.4C764.969 1110.4 767.309 1108.86 768.949 1105.78C770.589 1102.7 771.409 1098.12 771.409 1092.04C771.409 1085.84 770.609 1081.2 769.009 1078.12C767.409 1075.04 765.049 1073.5 761.929 1073.5C758.889 1073.5 756.569 1075 754.969 1078C753.369 1081 752.569 1085.68 752.569 1092.04C752.569 1104.28 755.689 1110.4 761.929 1110.4Z" fill="white"/>
</svg>
